SplineFontDB: 3.0
FontName: BoonHome-700-Oblique
FullName: BoonHome 700 Oblique
FamilyName: BoonHome
Weight: 700
Copyright: Copyright (c) 2014-2015, Sungsit Sawaiwan (https://sungsit.com | gibbozer [at] gmail [dot] com).
UComments: "BoonHome Font Information+AA0ACgANAAoA-BoonHome is a Unicode typeface family that supports Lao and Thai languages. Since version 0.2, it was expanded to completely support the following Unicode ranges:+AAoACgAA-- Basic Latin+AAoA-- Latin-1 Supplement+AAoA-- Latin Extended-A+AAoACgAA-And partially included some glyphs from Latin Extended-B and Latin Extended Additional for Vietnamese language.+AAoA +AAoA-2014-1-12: Initiated.+AAoACgAA-2014-1-29: BoonHome v0.1+AAoACgAA-- Created basic OpenType features for Lao and Thai languages.+AAoA-- Completed Lao and Thai glyphs.+AAoA-- Generated 400 & 700 weights with Oblique style.+AAoACgAA-2014-2-09: BoonHome v0.2+AAoACgAA-- Corrected some Lao and Thai glyphs.+AAoA-- Corrected OpenType features for Lao and Thai's vowels and tone marks.+AAoA-- Completed Basic Latin, Latin-1 Supplement, Latin Extended-A.+AAoA-- Partially included Latin Extended-B and Latin Extended Additional.+AAoA-- Kerned diacritic glyphs, especially for Vietnamese language."
Version: 0.3-alpha1
ItalicAngle: -12
UnderlinePosition: -60
UnderlineWidth: 30
Ascent: 840
Descent: 360
InvalidEm: 0
woffMajor: 0
woffMinor: 2
LayerCount: 6
Layer: 0 0 "Back" 1
Layer: 1 0 "Fore" 0
Layer: 2 0 "400" 0
Layer: 3 0 "400-Oblique" 0
Layer: 4 0 "700" 0
Layer: 5 0 "700-Oblique" 0
FSType: 8
OS2Version: 3
OS2_WeightWidthSlopeOnly: 0
OS2_UseTypoMetrics: 0
CreationTime: 1389497698
ModificationTime: 1435073207
PfmFamily: 33
TTFWeight: 700
TTFWidth: 5
LineGap: 0
VLineGap: 0
OS2TypoAscent: 1220
OS2TypoAOffset: 0
OS2TypoDescent: -360
OS2TypoDOffset: 0
OS2TypoLinegap: 0
OS2WinAscent: 1220
OS2WinAOffset: 0
OS2WinDescent: 360
OS2WinDOffset: 0
HheadAscent: 1220
HheadAOffset: 0
HheadDescent: -360
HheadDOffset: 0
OS2Vendor: 'BUni'

StartChar: uni0E81
Encoding: 256 3713 0
Width: 700
VWidth: 0
Flags: HW
HStem: -10 65<88.3675 175.367> 0 21G<440 594.25> 500 110<437.886 592> 545 65<182.133 268.978>
VStem: 9 77<58.0251 142.146> 92 77<448.641 531.606> 271 77<521 542.797> 530 154<318.75 490.259>
AnchorPoint: "normal-below" 360 -40 basechar 0
AnchorPoint: "normal-above" 360 640 basechar 0
LayerCount: 6
Back
Fore
SplineSet
174 382 m 1xaf
 126 389 92 422 92 470 c 0
 92 478 93 486 95 495 c 0
 110 565 177 610 245 610 c 0x9f
 304 610 347 576 348 521 c 1
 396 567 463 610 550 610 c 0
 634 610 684 567 684 476 c 0
 684 453 681 428 675 400 c 2
 590 0 l 1
 440 0 l 1x6f
 525 400 l 2
 528 415 530 427 530 439 c 0
 530 482 507 500 466 500 c 0
 416 500 369 468 331 430 c 1
 304 300 l 1
 262 105 l 2
 247 35 181 -10 113 -10 c 0
 53 -10 9 25 9 80 c 0
 9 88 10 96 12 105 c 0
 25 167 80 210 139 218 c 1
 139 224 139 231 141 240 c 2
 154 300 l 1
 167 360 l 2
 168 369 171 376 174 382 c 1xaf
148 155 m 0
 120 155 93 133 87 105 c 0
 86 101 86 98 86 94 c 0
 86 72 103 55 127 55 c 0
 155 55 181 77 187 105 c 0
 188 109 188 112 188 116 c 0
 188 139 172 155 148 155 c 0
231 545 m 0
 203 545 176 523 170 495 c 0
 169 491 169 488 169 484 c 0
 169 462 186 445 210 445 c 0
 238 445 264 467 270 495 c 0
 271 499 271 502 271 506 c 0
 271 529 255 545 231 545 c 0
EndSplineSet
Layer: 2
SplineSet
150 555 m 0x36c0
 122 555 100 533 100 505 c 0
 100 477 122 455 150 455 c 0
 178 455 200 477 200 505 c 0
 200 533 178 555 150 555 c 0x36c0
150 145 m 0
 122 145 100 123 100 95 c 0
 100 67 122 45 150 45 c 0xb2c0
 178 45 200 67 200 95 c 0
 200 123 178 145 150 145 c 0
257 531 m 1
 292 569 354 610 430 610 c 0
 536 610 610 545 610 420 c 2
 610 0 l 1
 520 0 l 1
 520 420 l 2
 520 489 501 535 410 535 c 0
 336 535 291 499 260 458 c 1
 260 95 l 2x7ac0
 260 34 210 -10 150 -10 c 0
 90 -10 40 34 40 95 c 0
 40 156 90 200 150 200 c 0
 157 200 164 199 170 198 c 1
 170 402 l 1
 164 401 157 400 150 400 c 0
 90 400 40 444 40 505 c 0
 40 566 90 610 150 610 c 0xb740
 201 610 245 578 257 531 c 1
EndSplineSet
Layer: 3
SplineSet
330 531 m 1xb7c0
 373 569 444 610 520 610 c 0
 609 610 665 564 665 476 c 0
 665 459 663 440 659 420 c 2
 570 0 l 1
 480 0 l 1
 569 420 l 2
 573 437 575 452 575 466 c 0
 575 509 553 535 484 535 c 0x7bc0
 410 535 357 499 317 458 c 1
 240 95 l 2
 227 34 168 -10 108 -10 c 0
 56 -10 18 24 18 73 c 0
 18 80 18 87 20 95 c 0
 33 156 93 200 153 200 c 0
 160 200 166 199 172 198 c 1
 215 402 l 1
 209 401 202 400 195 400 c 0
 143 400 105 434 105 483 c 0
 105 490 105 497 107 505 c 0
 120 566 180 610 240 610 c 0
 291 610 328 578 330 531 c 1xb7c0
141 145 m 0
 113 145 86 123 80 95 c 0
 79 91 79 88 79 84 c 0
 79 62 96 45 120 45 c 0xb3c0
 148 45 174 67 180 95 c 0
 181 99 181 102 181 106 c 0
 181 129 165 145 141 145 c 0
228 555 m 0x37c0
 200 555 173 533 167 505 c 0
 166 501 166 498 166 494 c 0
 166 472 183 455 207 455 c 0
 235 455 261 477 267 505 c 0
 268 509 268 512 268 516 c 0
 268 539 252 555 228 555 c 0x37c0
EndSplineSet
Layer: 4
SplineSet
155 545 m 0x1b
 127 545 105 523 105 495 c 0
 105 467 127 445 155 445 c 0
 183 445 205 467 205 495 c 0
 205 523 183 545 155 545 c 0x1b
155 155 m 0
 127 155 105 133 105 105 c 0
 105 77 127 55 155 55 c 0x8b
 183 55 205 77 205 105 c 0
 205 133 183 155 155 155 c 0
133 382 m 1
 75 390 30 433 30 495 c 0
 30 565 87 610 155 610 c 0x9d
 214 610 265 576 277 521 c 1
 315 567 373 610 460 610 c 0
 565 610 630 544 630 400 c 2
 630 0 l 1
 480 0 l 1
 480 400 l 2
 480 472 451 500 400 500 c 0
 350 500 310 468 280 430 c 1x6b
 280 300 l 1x6d
 280 105 l 2x6b
 280 35 223 -10 155 -10 c 0
 87 -10 30 35 30 105 c 0
 30 167 75 210 133 218 c 1
 131 224 130 231 130 240 c 2
 130 300 l 1
 130 360 l 2xad
 130 369 131 376 133 382 c 1
EndSplineSet
Layer: 5
SplineSet
174 382 m 1xaf
 126 389 92 422 92 470 c 0
 92 478 93 486 95 495 c 0
 110 565 177 610 245 610 c 0x9f
 304 610 347 576 348 521 c 1
 396 567 463 610 550 610 c 0
 634 610 684 567 684 476 c 0
 684 453 681 428 675 400 c 2
 590 0 l 1
 440 0 l 1x6f
 525 400 l 2
 528 415 530 427 530 439 c 0
 530 482 507 500 466 500 c 0
 416 500 369 468 331 430 c 1
 304 300 l 1
 262 105 l 2
 247 35 181 -10 113 -10 c 0
 53 -10 9 25 9 80 c 0
 9 88 10 96 12 105 c 0
 25 167 80 210 139 218 c 1
 139 224 139 231 141 240 c 2
 154 300 l 1
 167 360 l 2
 168 369 171 376 174 382 c 1xaf
148 155 m 0
 120 155 93 133 87 105 c 0
 86 101 86 98 86 94 c 0
 86 72 103 55 127 55 c 0
 155 55 181 77 187 105 c 0
 188 109 188 112 188 116 c 0
 188 139 172 155 148 155 c 0
231 545 m 0
 203 545 176 523 170 495 c 0
 169 491 169 488 169 484 c 0
 169 462 186 445 210 445 c 0
 238 445 264 467 270 495 c 0
 271 499 271 502 271 506 c 0
 271 529 255 545 231 545 c 0
EndSplineSet
Colour: ffff00
EndChar

StartChar: uni0E82
Encoding: 257 3714 1
Width: 700
VWidth: 0
Flags: HW
HStem: -20 105<209.15 401.845> 0 21G<510 604.286> 330 65<190.997 277.867> 525 95<350.956 522.323>
VStem: 49 150<100.986 166.874> 112 77<397.714 479.957> 291 76<408.394 492.444> 552 139<383.466 494.924>
AnchorPoint: "normal-below" 360 -40 basechar 0
AnchorPoint: "normal-above" 350 640 basechar 0
LayerCount: 6
Back
Fore
SplineSet
510 0 m 1x7b
 525 70 l 2
 528 83 533 95 539 107 c 1
 486 45 397 -20 276 -20 c 0
 141 -20 49 43 49 123 c 0xbb
 49 130 49 137 51 145 c 0
 77 268 220 287 369 325 c 0
 495 357 539 374 549 420 c 0
 551 428 552 435 552 442 c 0
 552 492 507 525 422 525 c 0
 391 525 367 522 350 518 c 1
 361 505 367 488 367 468 c 0
 367 461 367 453 365 445 c 0
 350 375 283 330 215 330 c 0
 156 330 112 364 112 420 c 0xb7
 112 428 113 436 115 445 c 0
 132 527 254 620 442 620 c 0
 595 620 691 550 691 448 c 0
 691 436 690 423 687 410 c 0
 663 295 537 256 376 215 c 0
 241 181 207 175 200 140 c 0
 199 137 199 135 199 132 c 0
 199 101 244 85 298 85 c 0xbb
 422 85 521 151 555 210 c 1
 645 210 l 1
 600 0 l 1
 510 0 l 1x7b
229 395 m 0
 257 395 284 417 290 445 c 0
 291 449 291 452 291 456 c 0
 291 478 274 495 250 495 c 0
 222 495 196 473 190 445 c 0
 189 441 189 438 189 434 c 0x37
 189 411 205 395 229 395 c 0
EndSplineSet
Layer: 2
SplineSet
550 0 m 1x7a80
 550 60 l 2
 550 80 554 98 558 111 c 1
 521 61 443 -20 310 -20 c 0
 176 -20 90 43 90 130 c 0xba80
 90 249 237 276 340 305 c 0
 453 337 520 371 520 430 c 0
 520 503 451 550 350 550 c 0
 305 550 270 544 243 538 c 1
 282 524 310 490 310 445 c 0
 310 384 260 340 200 340 c 0
 140 340 90 384 90 445 c 0xb7
 90 551 218 620 350 620 c 0
 481 620 610 555 610 430 c 0
 610 317 490 271 370 235 c 0
 257 201 180 185 180 130 c 0
 180 89 224 55 310 55 c 0xbb
 477 55 540 175 560 210 c 1
 610 210 l 1
 610 0 l 1
 550 0 l 1x7a80
200 395 m 0
 228 395 250 417 250 445 c 0
 250 473 228 495 200 495 c 0
 172 495 150 473 150 445 c 0x36
 150 417 172 395 200 395 c 0
EndSplineSet
Layer: 3
SplineSet
244 395 m 0x37
 272 395 299 417 305 445 c 0
 306 449 306 452 306 456 c 0
 306 478 289 495 265 495 c 0
 237 495 211 473 205 445 c 0
 204 441 204 438 204 434 c 0
 204 411 220 395 244 395 c 0x37
510 0 m 1x7b
 523 60 l 2
 527 80 535 98 542 111 c 1
 494 61 399 -20 266 -20 c 0
 146 -20 75 30 75 103 c 0xbb
 75 112 76 121 78 130 c 0
 103 249 256 276 365 305 c 0
 485 337 559 371 571 430 c 0
 573 438 574 446 574 453 c 0
 574 513 517 550 427 550 c 0
 382 550 346 544 317 538 c 1
 347 526 367 500 367 465 c 0
 367 459 366 452 365 445 c 0
 352 384 292 340 232 340 c 0
 180 340 143 373 143 423 c 0xb7
 143 430 143 437 145 445 c 0
 167 551 310 620 442 620 c 0
 560 620 665 567 665 466 c 0
 665 454 664 442 661 430 c 0
 637 317 508 271 380 235 c 0
 260 201 179 185 168 130 c 0
 167 126 167 122 167 118 c 0
 167 83 204 55 282 55 c 0xbb
 449 55 537 175 565 210 c 1
 615 210 l 1
 570 0 l 1
 510 0 l 1x7b
EndSplineSet
Layer: 4
SplineSet
185 395 m 0x36
 213 395 235 417 235 445 c 0
 235 473 213 495 185 495 c 0
 157 495 135 473 135 445 c 0
 135 417 157 395 185 395 c 0x36
550 0 m 1x7a80
 550 70 l 2
 550 83 553 95 556 107 c 1
 516 45 441 -20 320 -20 c 0
 172 -20 60 55 60 145 c 0xba80
 60 268 199 287 340 325 c 0
 459 357 500 374 500 420 c 0
 500 483 446 525 350 525 c 0
 319 525 296 522 280 518 c 1
 299 501 310 476 310 445 c 0
 310 375 253 330 185 330 c 0
 117 330 60 375 60 445 c 0xb7
 60 527 162 620 350 620 c 0
 521 620 640 533 640 410 c 0
 640 295 523 256 370 215 c 0
 243 181 210 175 210 140 c 0
 210 104 262 85 320 85 c 0xbb
 444 85 529 151 550 210 c 1
 640 210 l 1
 640 0 l 1
 550 0 l 1x7a80
EndSplineSet
Layer: 5
SplineSet
510 0 m 1x7b
 525 70 l 2
 528 83 533 95 539 107 c 1
 486 45 397 -20 276 -20 c 0
 141 -20 49 43 49 123 c 0xbb
 49 130 49 137 51 145 c 0
 77 268 220 287 369 325 c 0
 495 357 539 374 549 420 c 0
 551 428 552 435 552 442 c 0
 552 492 507 525 422 525 c 0
 391 525 367 522 350 518 c 1
 361 505 367 488 367 468 c 0
 367 461 367 453 365 445 c 0
 350 375 283 330 215 330 c 0
 156 330 112 364 112 420 c 0xb7
 112 428 113 436 115 445 c 0
 132 527 254 620 442 620 c 0
 595 620 691 550 691 448 c 0
 691 436 690 423 687 410 c 0
 663 295 537 256 376 215 c 0
 241 181 207 175 200 140 c 0
 199 137 199 135 199 132 c 0
 199 101 244 85 298 85 c 0xbb
 422 85 521 151 555 210 c 1
 645 210 l 1
 600 0 l 1
 510 0 l 1x7b
229 395 m 0
 257 395 284 417 290 445 c 0
 291 449 291 452 291 456 c 0
 291 478 274 495 250 495 c 0
 222 495 196 473 190 445 c 0
 189 441 189 438 189 434 c 0x37
 189 411 205 395 229 395 c 0
EndSplineSet
Colour: ffff00
EndChar

StartChar: uni0E84
Encoding: 258 3716 2
Width: 700
VWidth: 0
Flags: HW
HStem: -10 65<184.89 270.367> 0 21G<450 604.256> 155 65<193.54 281.003> 275 70<267.208 363> 510 110<304.362 497.439>
VStem: 40 141<58.6773 142.146> 40 97<146 204.841> 96 152<364.756 462.198> 283 77<68.3936 152.286> 535 153<352.773 472.809>
AnchorPoint: "normal-below" 380 -40 basechar 0
AnchorPoint: "normal-above" 360 640 basechar 0
LayerCount: 6
Back
Fore
SplineSet
257 220 m 0x7ac0
 316 220 360 186 360 130 c 0
 360 122 359 114 357 105 c 0
 342 35 276 -10 208 -10 c 0
 116 -10 40 30 40 120 c 0xbcc0
 40 133 41 146 44 160 c 0
 57 222 106 269 171 300 c 1
 120 319 96 350 96 392 c 0
 96 401 97 410 99 420 c 0
 119 511 244 620 437 620 c 0
 606 620 688 539 688 435 c 0
 688 420 686 405 683 390 c 2
 600 0 l 1
 450 0 l 1
 533 390 l 2
 535 398 535 406 535 413 c 0
 535 471 484 510 413 510 c 0
 333 510 262 477 249 420 c 0
 248 415 248 411 248 407 c 0x79c0
 248 366 293 345 378 345 c 1
 363 275 l 1
 247 275 154 230 139 160 c 0
 138 155 137 150 137 146 c 1
 162 185 208 220 257 220 c 0x7ac0
243 155 m 0
 215 155 188 133 182 105 c 0
 181 101 181 98 181 94 c 0
 181 72 198 55 222 55 c 0
 250 55 276 77 282 105 c 0
 283 109 283 112 283 116 c 0
 283 139 267 155 243 155 c 0
EndSplineSet
Layer: 2
SplineSet
260 145 m 0xb980
 232 145 210 123 210 95 c 0
 210 67 232 45 260 45 c 0
 288 45 310 67 310 95 c 0
 310 123 288 145 260 145 c 0xb980
260 200 m 0
 320 200 370 156 370 95 c 0
 370 34 320 -10 260 -10 c 0
 156 -10 80 53 80 150 c 0xbb80
 80 213 126 268 189 303 c 1
 127 322 80 356 80 420 c 0
 80 535 200 620 345 620 c 0
 490 620 610 545 610 420 c 2
 610 0 l 1
 520 0 l 1
 520 420 l 2
 520 491 455 545 345 545 c 0
 235 545 170 491 170 420 c 0x7d80
 170 355 259 345 345 345 c 1
 345 285 l 1
 244 285 150 226 150 150 c 0x7b80
 150 133 152 119 156 108 c 1
 164 160 206 200 260 200 c 0
EndSplineSet
Layer: 3
SplineSet
263 200 m 0x7d80
 315 200 352 167 352 117 c 0
 352 110 352 103 350 95 c 0
 337 34 278 -10 218 -10 c 0xbb80
 127 -10 68 38 68 114 c 0xbd80
 68 125 69 137 72 150 c 0
 85 213 143 268 213 303 c 1
 163 320 126 347 126 396 c 0
 126 404 127 412 129 420 c 0
 154 535 292 620 437 620 c 0
 566 620 663 560 663 458 c 0
 663 446 662 433 659 420 c 2
 570 0 l 1
 480 0 l 1
 569 420 l 2
 571 428 571 436 571 443 c 0
 571 502 519 545 421 545 c 0
 311 545 234 491 219 420 c 0
 218 415 218 411 218 407 c 0x7b80
 218 354 298 345 378 345 c 1
 366 285 l 1
 265 285 158 226 142 150 c 0
 139 139 138 129 138 120 c 0
 138 116 138 112 139 108 c 1
 158 160 209 200 263 200 c 0x7d80
251 145 m 0
 223 145 196 123 190 95 c 0
 189 91 189 88 189 84 c 0
 189 62 206 45 230 45 c 0
 258 45 284 67 290 95 c 0
 291 99 291 102 291 106 c 0
 291 129 275 145 251 145 c 0
EndSplineSet
Layer: 4
SplineSet
250 155 m 0xbd80
 222 155 200 133 200 105 c 0
 200 77 222 55 250 55 c 0
 278 55 300 77 300 105 c 0
 300 133 278 155 250 155 c 0xbd80
250 220 m 0
 318 220 375 175 375 105 c 0
 375 35 318 -10 250 -10 c 0xbb80
 145 -10 50 42 50 160 c 0
 50 222 89 269 147 300 c 1
 81 323 50 363 50 420 c 0
 50 511 152 620 345 620 c 0
 538 620 640 515 640 390 c 2
 640 0 l 1
 490 0 l 1
 490 390 l 2
 490 461 425 510 345 510 c 0
 265 510 201 477 200 420 c 0x7d80
 200 370 251 345 345 345 c 1
 345 275 l 1
 229 275 145 230 145 160 c 0x7b80
 145 155 145 150 146 146 c 1
 163 185 201 220 250 220 c 0
EndSplineSet
Layer: 5
SplineSet
257 220 m 0x7ac0
 316 220 360 186 360 130 c 0
 360 122 359 114 357 105 c 0
 342 35 276 -10 208 -10 c 0
 116 -10 40 30 40 120 c 0xbcc0
 40 133 41 146 44 160 c 0
 57 222 106 269 171 300 c 1
 120 319 96 350 96 392 c 0
 96 401 97 410 99 420 c 0
 119 511 244 620 437 620 c 0
 606 620 688 539 688 435 c 0
 688 420 686 405 683 390 c 2
 600 0 l 1
 450 0 l 1
 533 390 l 2
 535 398 535 406 535 413 c 0
 535 471 484 510 413 510 c 0
 333 510 262 477 249 420 c 0
 248 415 248 411 248 407 c 0x79c0
 248 366 293 345 378 345 c 1
 363 275 l 1
 247 275 154 230 139 160 c 0
 138 155 137 150 137 146 c 1
 162 185 208 220 257 220 c 0x7ac0
243 155 m 0
 215 155 188 133 182 105 c 0
 181 101 181 98 181 94 c 0
 181 72 198 55 222 55 c 0
 250 55 276 77 282 105 c 0
 283 109 283 112 283 116 c 0
 283 139 267 155 243 155 c 0
EndSplineSet
Colour: ffff00
EndChar

StartChar: uni0E87
Encoding: 259 3719 3
Width: 540
VWidth: 0
Flags: HW
HStem: -260 100<66.4928 232.507> 280 65<150.314 237.251> 520 90<225.193 355.346>
VStem: 71 77<347.614 430.321> 250 76<358.394 441.113> 371 150<371.818 502.106>
AnchorPoint: "normal-below" 260 -270 basechar 0
AnchorPoint: "normal-above" 260 640 basechar 0
LayerCount: 6
Back
Fore
SplineSet
74 395 m 0
 100 517 210 610 340 610 c 0
 440 610 521 552 521 449 c 0
 521 434 519 417 515 400 c 2
 411 -90 l 2
 388 -197 286 -260 145 -260 c 0
 41 -260 -17 -210 -39 -185 c 1
 37 -110 l 1
 52 -133 109 -160 151 -160 c 0
 211 -160 252 -130 261 -90 c 2
 367 410 l 2
 370 424 371 436 371 446 c 0
 371 502 334 520 286 520 c 0
 261 520 238 512 219 500 c 1
 277 497 326 469 326 416 c 0
 326 409 326 402 324 395 c 0
 309 325 243 280 175 280 c 0
 115 280 71 315 71 370 c 0
 71 378 72 386 74 395 c 0
210 445 m 0
 182 445 155 423 149 395 c 0
 148 391 148 388 148 384 c 0
 148 361 164 345 188 345 c 0
 216 345 243 367 249 395 c 0
 250 399 250 402 250 406 c 0
 250 429 234 445 210 445 c 0
EndSplineSet
Layer: 2
SplineSet
150 475 m 0
 122 475 100 453 100 425 c 0
 100 397 122 375 150 375 c 0
 178 375 200 397 200 425 c 0
 200 453 178 475 150 475 c 0
40 425 m 0
 40 536 125 610 235 610 c 0
 345 610 440 552 440 410 c 2
 440 -90 l 2
 440 -226 358 -260 260 -260 c 0
 187 -260 100 -231 60 -190 c 1
 100 -140 l 1
 122 -158 186 -190 260 -190 c 0
 329 -190 350 -155 350 -90 c 2
 350 410 l 2
 350 503 305 540 235 540 c 0
 204 540 178 534 158 525 c 1
 215 521 260 483 260 425 c 0
 260 364 210 320 150 320 c 0
 90 320 40 364 40 425 c 0
EndSplineSet
Layer: 3
SplineSet
90 425 m 0
 114 536 215 610 325 610 c 0
 419 610 493 567 493 465 c 0
 493 448 491 430 487 410 c 2
 381 -90 l 2
 352 -226 263 -260 165 -260 c 0
 92 -260 11 -231 -20 -190 c 1
 30 -140 l 1
 48 -158 106 -190 180 -190 c 0
 249 -190 277 -155 291 -90 c 2
 397 410 l 2
 401 427 402 442 402 455 c 0
 402 515 367 540 310 540 c 0
 279 540 252 534 230 525 c 1
 278 522 313 493 313 447 c 0
 313 440 312 433 310 425 c 0
 297 364 238 320 178 320 c 0
 126 320 88 354 88 403 c 0
 88 410 88 417 90 425 c 0
211 475 m 0
 183 475 156 453 150 425 c 0
 149 421 149 418 149 414 c 0
 149 392 166 375 190 375 c 0
 218 375 244 397 250 425 c 0
 251 429 251 432 251 436 c 0
 251 459 235 475 211 475 c 0
EndSplineSet
Layer: 4
SplineSet
155 445 m 0
 127 445 105 423 105 395 c 0
 105 367 127 345 155 345 c 0
 183 345 205 367 205 395 c 0
 205 423 183 445 155 445 c 0
30 395 m 0
 30 517 120 610 250 610 c 0
 365 610 470 534 470 400 c 2
 470 -90 l 2
 470 -197 381 -260 240 -260 c 0
 136 -260 68 -210 40 -185 c 1
 100 -110 l 1
 120 -133 183 -160 225 -160 c 0
 285 -160 320 -130 320 -90 c 2
 320 410 l 2
 320 495 272 520 215 520 c 0
 190 520 169 512 153 500 c 1
 218 497 280 462 280 395 c 0
 280 325 223 280 155 280 c 0
 87 280 30 325 30 395 c 0
EndSplineSet
Layer: 5
SplineSet
74 395 m 0
 100 517 210 610 340 610 c 0
 440 610 521 552 521 449 c 0
 521 434 519 417 515 400 c 2
 411 -90 l 2
 388 -197 286 -260 145 -260 c 0
 41 -260 -17 -210 -39 -185 c 1
 37 -110 l 1
 52 -133 109 -160 151 -160 c 0
 211 -160 252 -130 261 -90 c 2
 367 410 l 2
 370 424 371 436 371 446 c 0
 371 502 334 520 286 520 c 0
 261 520 238 512 219 500 c 1
 277 497 326 469 326 416 c 0
 326 409 326 402 324 395 c 0
 309 325 243 280 175 280 c 0
 115 280 71 315 71 370 c 0
 71 378 72 386 74 395 c 0
210 445 m 0
 182 445 155 423 149 395 c 0
 148 391 148 388 148 384 c 0
 148 361 164 345 188 345 c 0
 216 345 243 367 249 395 c 0
 250 399 250 402 250 406 c 0
 250 429 234 445 210 445 c 0
EndSplineSet
Colour: ffff00
EndChar

StartChar: uni0E88
Encoding: 260 3720 4
Width: 650
VWidth: 0
Flags: HW
HStem: -10 90<309.083 415.021> 295 65<194.133 279.736> 500 120<282.44 459.649>
VStem: 104 77<198.05 281.606> 179 128<55 140.23> 283 77<208.891 291.998> 486 152<353.793 474.688>
AnchorPoint: "normal-below" 390 -40 basechar 0
AnchorPoint: "normal-above" 320 640 basechar 0
LayerCount: 6
Back
Fore
SplineSet
257 360 m 0xf2
 326 360 360 321 360 272 c 0xf6
 360 265 360 258 358 250 c 0
 345 186 315 163 308 130 c 0
 307 126 307 122 307 119 c 0
 307 94 327 80 357 80 c 0
 393 80 421 99 428 130 c 2
 483 390 l 2
 485 398 486 406 486 414 c 0
 486 465 449 500 376 500 c 0
 292 500 236 450 223 390 c 1
 73 390 l 1
 97 504 214 620 402 620 c 0
 566 620 638 533 638 434 c 0
 638 420 636 405 633 390 c 2
 580 140 l 2
 561 51 471 -10 338 -10 c 0
 230 -10 179 29 179 81 c 0xea
 179 87 180 94 181 100 c 0
 184 114 189 126 195 136 c 1
 142 140 104 170 104 220 c 0
 104 228 105 236 107 245 c 0
 122 315 189 360 257 360 c 0xf2
243 295 m 0
 215 295 188 273 182 245 c 0
 181 241 181 238 181 234 c 0
 181 211 197 195 221 195 c 0
 249 195 276 217 282 245 c 0
 283 249 283 252 283 256 c 0
 283 279 267 295 243 295 c 0
EndSplineSet
Layer: 2
SplineSet
240 315 m 0xf280
 212 315 190 293 190 265 c 0
 190 237 212 215 240 215 c 0xf680
 268 215 290 237 290 265 c 0xf180
 290 293 268 315 240 315 c 0xf280
257 161 m 1
 252 160 246 160 240 160 c 0
 180 160 130 204 130 265 c 0
 130 326 180 370 240 370 c 0xf680
 311 370 355 320 355 260 c 0xf180
 355 187 320 164 320 120 c 0
 320 88 345 60 391 60 c 0
 432 60 470 75 470 130 c 2
 470 420 l 2
 470 491 413 545 310 545 c 0
 207 545 150 491 150 420 c 1
 60 420 l 1xfa80
 60 535 170 620 310 620 c 0
 450 620 560 545 560 420 c 2
 560 130 l 2
 560 41 502 -10 391 -10 c 0
 280 -10 240 45 240 100 c 0
 240 126 248 145 257 161 c 1
EndSplineSet
Layer: 3
SplineSet
251 161 m 1xfb80
 246 160 240 160 234 160 c 0
 182 160 144 194 144 243 c 0xf780
 144 250 144 257 146 265 c 0
 159 326 219 370 279 370 c 0
 340 370 373 333 373 285 c 0
 373 277 372 269 370 260 c 0
 355 187 315 164 306 120 c 0
 305 116 305 111 305 107 c 0
 305 81 324 60 364 60 c 0
 405 60 446 75 458 130 c 2
 519 420 l 2
 521 429 522 438 522 446 c 0
 522 504 476 545 386 545 c 0
 283 545 214 491 199 420 c 1
 109 420 l 1
 134 535 262 620 402 620 c 0
 526 620 614 561 614 461 c 0
 614 448 612 434 609 420 c 2
 548 130 l 2
 529 41 460 -10 349 -10 c 0
 253 -10 219 32 219 78 c 0
 219 86 220 93 221 100 c 0
 227 126 239 145 251 161 c 1xfb80
267 315 m 0
 239 315 212 293 206 265 c 0
 205 261 205 258 205 254 c 0
 205 232 222 215 246 215 c 0
 274 215 300 237 306 265 c 0
 307 269 307 272 307 276 c 0
 307 299 291 315 267 315 c 0
EndSplineSet
Layer: 4
SplineSet
220 295 m 0xeb
 192 295 170 273 170 245 c 0
 170 217 192 195 220 195 c 0
 248 195 270 217 270 245 c 0
 270 273 248 295 220 295 c 0xeb
220 360 m 0
 299 360 345 308 345 250 c 0xeb
 345 186 320 163 320 130 c 0
 320 98 346 80 380 80 c 0
 416 80 440 99 440 130 c 2
 440 390 l 2
 440 453 394 500 310 500 c 0
 226 500 180 450 180 390 c 1
 30 390 l 1
 30 504 122 620 310 620 c 0
 498 620 590 505 590 390 c 2
 590 140 l 2
 590 51 513 -10 380 -10 c 0
 259 -10 200 38 200 100 c 0xf5
 200 114 202 126 206 136 c 1
 144 141 95 180 95 245 c 0
 95 315 152 360 220 360 c 0
EndSplineSet
Layer: 5
SplineSet
257 360 m 0xf2
 326 360 360 321 360 272 c 0xf6
 360 265 360 258 358 250 c 0
 345 186 315 163 308 130 c 0
 307 126 307 122 307 119 c 0
 307 94 327 80 357 80 c 0
 393 80 421 99 428 130 c 2
 483 390 l 2
 485 398 486 406 486 414 c 0
 486 465 449 500 376 500 c 0
 292 500 236 450 223 390 c 1
 73 390 l 1
 97 504 214 620 402 620 c 0
 566 620 638 533 638 434 c 0
 638 420 636 405 633 390 c 2
 580 140 l 2
 561 51 471 -10 338 -10 c 0
 230 -10 179 29 179 81 c 0xea
 179 87 180 94 181 100 c 0
 184 114 189 126 195 136 c 1
 142 140 104 170 104 220 c 0
 104 228 105 236 107 245 c 0
 122 315 189 360 257 360 c 0xf2
243 295 m 0
 215 295 188 273 182 245 c 0
 181 241 181 238 181 234 c 0
 181 211 197 195 221 195 c 0
 249 195 276 217 282 245 c 0
 283 249 283 252 283 256 c 0
 283 279 267 295 243 295 c 0
EndSplineSet
Colour: ffff00
EndChar

StartChar: uni0E8A
Encoding: 261 3722 5
Width: 710
VWidth: 0
Flags: HW
HStem: -20 105<209.15 399.655> 330 65<190.997 277.867> 525 95<350.956 522.323>
VStem: 49 150<100.986 166.874> 112 77<397.714 479.957> 291 76<408.394 492.444> 545 100<176.555 210> 552 139<383.466 494.924>
AnchorPoint: "normal-below" 260 -40 basechar 0
AnchorPoint: "normal-above" 350 640 basechar 0
LayerCount: 6
Back
Fore
SplineSet
419 -240 m 1xf6
 470 0 l 2
 475 25 487 50 497 70 c 1
 447 22 373 -20 276 -20 c 0
 141 -20 49 43 49 123 c 0xf6
 49 130 49 137 51 145 c 0
 77 268 220 287 369 325 c 0
 495 357 539 374 549 420 c 0
 551 428 552 435 552 442 c 0
 552 492 507 525 422 525 c 0
 391 525 367 522 350 518 c 1
 361 505 367 488 367 468 c 0
 367 461 367 453 365 445 c 0
 350 375 283 330 215 330 c 0
 156 330 112 364 112 420 c 0
 112 428 113 436 115 445 c 0
 132 527 254 620 442 620 c 0
 595 620 691 550 691 448 c 0xed
 691 436 690 423 687 410 c 0
 663 295 537 256 376 215 c 0
 241 181 207 175 200 140 c 0
 199 137 199 135 199 132 c 0
 199 101 244 85 298 85 c 0
 422 85 511 151 545 210 c 1
 645 210 l 1
 549 -240 l 1
 419 -240 l 1xf6
229 395 m 0
 257 395 284 417 290 445 c 0
 291 449 291 452 291 456 c 0
 291 478 274 495 250 495 c 0
 222 495 196 473 190 445 c 0
 189 441 189 438 189 434 c 0xec
 189 411 205 395 229 395 c 0
EndSplineSet
Layer: 2
SplineSet
200 395 m 0xec
 228 395 250 417 250 445 c 0
 250 473 228 495 200 495 c 0
 172 495 150 473 150 445 c 0
 150 417 172 395 200 395 c 0xec
540 -240 m 1xf5
 540 60 l 2
 540 79 543 94 546 106 c 1
 510 56 439 -20 310 -20 c 0
 176 -20 90 43 90 130 c 0xf5
 90 249 237 276 340 305 c 0
 453 337 520 371 520 430 c 0
 520 503 451 550 350 550 c 0
 305 550 270 544 243 538 c 1
 282 524 310 490 310 445 c 0
 310 384 260 340 200 340 c 0
 140 340 90 384 90 445 c 0
 90 551 218 620 350 620 c 0
 481 620 610 555 610 430 c 0xee
 610 317 490 271 370 235 c 0
 257 201 180 185 180 130 c 0
 180 89 224 55 310 55 c 0
 477 55 530 175 550 210 c 1
 620 210 l 1
 620 -240 l 1
 540 -240 l 1xf5
EndSplineSet
Layer: 3
SplineSet
449 -240 m 1xf6
 513 60 l 2
 517 79 523 94 529 106 c 1
 482 56 395 -20 266 -20 c 0
 146 -20 75 30 75 103 c 0xf6
 75 112 76 121 78 130 c 0
 103 249 256 276 365 305 c 0
 485 337 559 371 571 430 c 0
 573 438 574 446 574 453 c 0
 574 513 517 550 427 550 c 0
 382 550 346 544 317 538 c 1
 347 526 367 500 367 465 c 0
 367 459 366 452 365 445 c 0
 352 384 292 340 232 340 c 0
 180 340 143 373 143 423 c 0xee
 143 430 143 437 145 445 c 0
 167 551 310 620 442 620 c 0
 560 620 665 567 665 466 c 0
 665 454 664 442 661 430 c 0
 637 317 508 271 380 235 c 0
 260 201 179 185 168 130 c 0
 167 126 167 122 167 118 c 0
 167 83 204 55 282 55 c 0
 449 55 527 175 555 210 c 1
 625 210 l 1
 529 -240 l 1
 449 -240 l 1xf6
244 395 m 0
 272 395 299 417 305 445 c 0
 306 449 306 452 306 456 c 0
 306 478 289 495 265 495 c 0
 237 495 211 473 205 445 c 0
 204 441 204 438 204 434 c 0xee
 204 411 220 395 244 395 c 0
EndSplineSet
Layer: 4
SplineSet
185 395 m 0xec
 213 395 235 417 235 445 c 0
 235 473 213 495 185 495 c 0
 157 495 135 473 135 445 c 0
 135 417 157 395 185 395 c 0xec
510 -240 m 1xe5
 510 0 l 2
 510 25 516 50 522 70 c 1
 482 22 417 -20 320 -20 c 0
 172 -20 60 55 60 145 c 0xf5
 60 268 199 287 340 325 c 0
 459 357 500 374 500 420 c 0
 500 483 446 525 350 525 c 0
 319 525 296 522 280 518 c 1
 299 501 310 476 310 445 c 0
 310 375 253 330 185 330 c 0
 117 330 60 375 60 445 c 0
 60 527 162 620 350 620 c 0
 521 620 640 533 640 410 c 0xee
 640 295 523 256 370 215 c 0
 243 181 210 175 210 140 c 0
 210 104 262 85 320 85 c 0
 444 85 519 151 540 210 c 1
 640 210 l 1xf480
 640 -240 l 1
 510 -240 l 1xe5
EndSplineSet
Layer: 5
SplineSet
419 -240 m 1xf6
 470 0 l 2
 475 25 487 50 497 70 c 1
 447 22 373 -20 276 -20 c 0
 141 -20 49 43 49 123 c 0xf6
 49 130 49 137 51 145 c 0
 77 268 220 287 369 325 c 0
 495 357 539 374 549 420 c 0
 551 428 552 435 552 442 c 0
 552 492 507 525 422 525 c 0
 391 525 367 522 350 518 c 1
 361 505 367 488 367 468 c 0
 367 461 367 453 365 445 c 0
 350 375 283 330 215 330 c 0
 156 330 112 364 112 420 c 0
 112 428 113 436 115 445 c 0
 132 527 254 620 442 620 c 0
 595 620 691 550 691 448 c 0xed
 691 436 690 423 687 410 c 0
 663 295 537 256 376 215 c 0
 241 181 207 175 200 140 c 0
 199 137 199 135 199 132 c 0
 199 101 244 85 298 85 c 0
 422 85 511 151 545 210 c 1
 645 210 l 1
 549 -240 l 1
 419 -240 l 1xf6
229 395 m 0
 257 395 284 417 290 445 c 0
 291 449 291 452 291 456 c 0
 291 478 274 495 250 495 c 0
 222 495 196 473 190 445 c 0
 189 441 189 438 189 434 c 0xec
 189 411 205 395 229 395 c 0
EndSplineSet
Colour: ffff00
EndChar

StartChar: uni0E8D
Encoding: 262 3725 6
Width: 700
VWidth: 0
Flags: HW
HStem: -20 110<225.607 419.694> 255 70<247.375 359> 380 65<266.688 353.367> 545 65<276.373 364.003> 580 20G<573.744 728>
VStem: 45 152<117.028 220.353> 100 97<367.158 452.341> 366 77<458.394 542.286>
AnchorPoint: "normal-below" 360 -40 basechar 0
AnchorPoint: "normal-above" 350 640 basechar 0
LayerCount: 6
Back
Fore
SplineSet
291 380 m 0xf3
 242 380 211 415 203 454 c 1
 201 450 200 445 199 440 c 0
 198 434 197 428 197 422 c 0xf3
 197 363 268 325 374 325 c 1
 359 255 l 1
 265 255 209 230 198 180 c 0
 197 175 197 171 197 166 c 0
 197 118 251 90 324 90 c 0
 404 90 480 139 495 210 c 2
 578 600 l 1
 728 600 l 1
 645 210 l 2
 618 85 494 -20 301 -20 c 0
 127 -20 45 69 45 153 c 0xed
 45 162 46 171 48 180 c 0
 60 237 100 277 171 300 c 1
 128 326 100 363 100 410 c 0
 100 419 102 429 104 440 c 0
 129 558 235 610 340 610 c 0
 399 610 443 576 443 520 c 0
 443 512 442 504 440 495 c 0
 425 425 359 380 291 380 c 0xf3
305 445 m 0
 333 445 359 467 365 495 c 0
 366 499 366 502 366 506 c 0
 366 529 350 545 326 545 c 0
 298 545 271 523 265 495 c 0
 264 491 264 488 264 484 c 0
 264 462 281 445 305 445 c 0
EndSplineSet
Layer: 2
SplineSet
260 455 m 0xf180
 288 455 310 477 310 505 c 0
 310 533 288 555 260 555 c 0
 232 555 210 533 210 505 c 0
 210 477 232 455 260 455 c 0xf180
260 400 m 0
 206 400 164 440 156 492 c 1
 152 481 150 467 150 450 c 0xf380
 150 374 244 315 345 315 c 1
 345 255 l 1
 259 255 170 245 170 180 c 0
 170 109 235 55 345 55 c 0
 455 55 520 109 520 180 c 2
 520 600 l 1
 610 600 l 1
 610 180 l 2
 610 55 490 -20 345 -20 c 0
 200 -20 80 65 80 180 c 0xed80
 80 244 127 278 189 297 c 1
 126 332 80 387 80 450 c 0xeb80
 80 547 156 610 260 610 c 0
 320 610 370 566 370 505 c 0
 370 444 320 400 260 400 c 0
EndSplineSet
Layer: 3
SplineSet
305 400 m 0xf380
 253 400 221 437 221 486 c 2
 221 492 l 1
 214 481 209 467 206 450 c 0
 204 443 204 437 204 430 c 0xf380
 204 364 280 315 372 315 c 1
 359 255 l 1
 273 255 182 245 168 180 c 0
 166 172 166 165 166 157 c 0
 166 98 219 55 317 55 c 0
 427 55 503 109 518 180 c 2
 608 600 l 1
 698 600 l 1
 608 180 l 2
 582 55 446 -20 301 -20 c 0
 170 -20 74 49 74 147 c 0xed80
 74 158 76 169 78 180 c 0
 92 244 146 278 212 297 c 1
 165 327 133 371 133 422 c 0
 133 431 134 441 136 450 c 0
 156 547 246 610 350 610 c 0
 402 610 439 577 439 527 c 0
 439 520 439 513 437 505 c 0
 424 444 365 400 305 400 c 0xf380
317 455 m 0
 345 455 371 477 377 505 c 0
 378 509 378 512 378 516 c 0
 378 539 362 555 338 555 c 0
 310 555 283 533 277 505 c 0
 276 501 276 498 276 494 c 0
 276 472 293 455 317 455 c 0
EndSplineSet
Layer: 4
SplineSet
250 445 m 0xf580
 278 445 300 467 300 495 c 0
 300 523 278 545 250 545 c 0
 222 545 200 523 200 495 c 0
 200 467 222 445 250 445 c 0xf580
250 380 m 0
 201 380 163 415 146 454 c 1
 145 450 145 445 145 440 c 0xf380
 145 370 229 325 345 325 c 1
 345 255 l 1
 251 255 200 230 200 180 c 0
 201 123 265 90 345 90 c 0
 425 90 490 139 490 210 c 2
 490 600 l 1
 640 600 l 1xed80
 640 210 l 2
 640 85 538 -20 345 -20 c 0
 152 -20 50 89 50 180 c 0
 50 237 81 277 147 300 c 1
 89 331 50 378 50 440 c 0
 50 558 145 610 250 610 c 0
 318 610 375 565 375 495 c 0
 375 425 318 380 250 380 c 0
EndSplineSet
Layer: 5
SplineSet
291 380 m 0xf3
 242 380 211 415 203 454 c 1
 201 450 200 445 199 440 c 0
 198 434 197 428 197 422 c 0xf3
 197 363 268 325 374 325 c 1
 359 255 l 1
 265 255 209 230 198 180 c 0
 197 175 197 171 197 166 c 0
 197 118 251 90 324 90 c 0
 404 90 480 139 495 210 c 2
 578 600 l 1
 728 600 l 1
 645 210 l 2
 618 85 494 -20 301 -20 c 0
 127 -20 45 69 45 153 c 0xed
 45 162 46 171 48 180 c 0
 60 237 100 277 171 300 c 1
 128 326 100 363 100 410 c 0
 100 419 102 429 104 440 c 0
 129 558 235 610 340 610 c 0
 399 610 443 576 443 520 c 0
 443 512 442 504 440 495 c 0
 425 425 359 380 291 380 c 0xf3
305 445 m 0
 333 445 359 467 365 495 c 0
 366 499 366 502 366 506 c 0
 366 529 350 545 326 545 c 0
 298 545 271 523 265 495 c 0
 264 491 264 488 264 484 c 0
 264 462 281 445 305 445 c 0
EndSplineSet
Colour: ffff00
EndChar

StartChar: uni0E94
Encoding: 263 3732 7
Width: 700
VWidth: 0
Flags: HW
HStem: -10 65<183.047 270.367> 0 21G<450 604.256> 155 65<210.707 281.003> 510 110<324.165 502.027>
VStem: 50 131<58.3957 142.354> 283 77<68.3936 152.286> 536 152<352.773 474.436>
AnchorPoint: "normal-below" 380 -40 basechar 0
AnchorPoint: "normal-above" 360 640 basechar 0
LayerCount: 6
Back
Fore
SplineSet
257 220 m 0x7e
 316 220 360 186 360 130 c 0
 360 122 359 114 357 105 c 0
 342 35 276 -10 208 -10 c 0xbe
 117 -10 50 42 50 124 c 0
 50 136 51 148 54 160 c 2
 103 390 l 2
 127 505 249 620 442 620 c 0
 610 620 688 540 688 437 c 0
 688 422 686 406 683 390 c 2
 600 0 l 1
 450 0 l 1
 533 390 l 2
 535 398 536 407 536 414 c 0
 536 472 488 510 418 510 c 0
 338 510 268 461 253 390 c 2
 221 240 l 2
 219 231 215 219 210 208 c 1
 225 215 240 220 257 220 c 0x7e
243 155 m 0
 215 155 188 133 182 105 c 0
 181 101 181 98 181 94 c 0
 181 72 198 55 222 55 c 0
 250 55 276 77 282 105 c 0
 283 109 283 112 283 116 c 0
 283 139 267 155 243 155 c 0
EndSplineSet
Layer: 2
SplineSet
250 145 m 0xbe
 222 145 200 123 200 95 c 0
 200 67 222 45 250 45 c 0
 278 45 300 67 300 95 c 0
 300 123 278 145 250 145 c 0xbe
250 200 m 0
 310 200 360 156 360 95 c 0
 360 34 310 -10 250 -10 c 0xbe
 153 -10 90 63 90 160 c 2
 90 420 l 2
 90 535 205 620 350 620 c 0
 495 620 610 545 610 420 c 2
 610 0 l 1
 520 0 l 1x7e
 520 420 l 2
 520 491 460 545 350 545 c 0
 240 545 180 491 180 420 c 2
 180 173 l 1
 198 190 223 200 250 200 c 0
EndSplineSet
Layer: 3
SplineSet
253 200 m 0x7e
 305 200 342 167 342 117 c 0
 342 110 342 103 340 95 c 0
 327 34 268 -10 208 -10 c 0xbe
 126 -10 79 42 79 117 c 0
 79 130 81 145 84 160 c 2
 139 420 l 2
 164 535 297 620 442 620 c 0
 571 620 663 561 663 460 c 0
 663 447 662 434 659 420 c 2
 570 0 l 1
 480 0 l 1
 569 420 l 2
 571 428 572 437 572 445 c 0
 572 503 523 545 426 545 c 0
 316 545 244 491 229 420 c 2
 177 173 l 1
 198 190 226 200 253 200 c 0x7e
241 145 m 0
 213 145 186 123 180 95 c 0
 179 91 179 88 179 84 c 0
 179 62 196 45 220 45 c 0
 248 45 274 67 280 95 c 0
 281 99 281 102 281 106 c 0
 281 129 265 145 241 145 c 0
EndSplineSet
Layer: 4
SplineSet
250 155 m 0xb7
 222 155 200 133 200 105 c 0
 200 77 222 55 250 55 c 0
 278 55 300 77 300 105 c 0
 300 133 278 155 250 155 c 0xb7
250 220 m 0
 318 220 375 175 375 105 c 0
 375 35 318 -10 250 -10 c 0
 146 -10 60 58 60 160 c 2xb7
 60 390 l 2
 60 505 157 620 350 620 c 0
 543 620 640 515 640 390 c 2
 640 0 l 1
 490 0 l 1
 490 390 l 2
 490 461 430 510 350 510 c 0
 270 510 210 461 210 390 c 2
 210 240 l 2x7b
 210 231 208 219 206 208 c 1
 219 215 233 220 250 220 c 0
EndSplineSet
Layer: 5
SplineSet
257 220 m 0x7e
 316 220 360 186 360 130 c 0
 360 122 359 114 357 105 c 0
 342 35 276 -10 208 -10 c 0xbe
 117 -10 50 42 50 124 c 0
 50 136 51 148 54 160 c 2
 103 390 l 2
 127 505 249 620 442 620 c 0
 610 620 688 540 688 437 c 0
 688 422 686 406 683 390 c 2
 600 0 l 1
 450 0 l 1
 533 390 l 2
 535 398 536 407 536 414 c 0
 536 472 488 510 418 510 c 0
 338 510 268 461 253 390 c 2
 221 240 l 2
 219 231 215 219 210 208 c 1
 225 215 240 220 257 220 c 0x7e
243 155 m 0
 215 155 188 133 182 105 c 0
 181 101 181 98 181 94 c 0
 181 72 198 55 222 55 c 0
 250 55 276 77 282 105 c 0
 283 109 283 112 283 116 c 0
 283 139 267 155 243 155 c 0
EndSplineSet
Colour: ffff00
EndChar

StartChar: uni0E95
Encoding: 264 3733 8
Width: 700
VWidth: 0
Flags: HW
HStem: -10 65<183.047 270.367> 0 21G<450 604.256> 155 65<210.707 281.003> 600 20G<306.5 354.895 520.684 573.5>
VStem: 50 131<58.3957 142.354> 283 77<68.3936 152.286> 542 147<310.781 509.411>
AnchorPoint: "normal-below" 380 -40 basechar 0
AnchorPoint: "normal-above" 360 640 basechar 0
LayerCount: 6
Back
Fore
SplineSet
257 220 m 0x7e
 316 220 360 186 360 130 c 0
 360 122 359 114 357 105 c 0
 342 35 276 -10 208 -10 c 0xbe
 117 -10 50 42 50 124 c 0
 50 136 51 148 54 160 c 2
 103 390 l 2
 137 552 276 620 337 620 c 1
 422 525 l 1
 547 620 l 1
 600 620 689 569 689 449 c 0
 689 431 687 411 683 390 c 2
 600 0 l 1
 450 0 l 1
 533 390 l 2
 539 419 542 441 542 459 c 0
 542 484 536 499 523 510 c 1
 399 420 l 1
 313 510 l 1
 285 492 268 460 253 390 c 2
 221 240 l 2
 219 231 215 219 210 208 c 1
 225 215 240 220 257 220 c 0x7e
243 155 m 0
 215 155 188 133 182 105 c 0
 181 101 181 98 181 94 c 0
 181 72 198 55 222 55 c 0
 250 55 276 77 282 105 c 0
 283 109 283 112 283 116 c 0
 283 139 267 155 243 155 c 0
EndSplineSet
Layer: 2
SplineSet
250 145 m 0xbe
 222 145 200 123 200 95 c 0
 200 67 222 45 250 45 c 0
 278 45 300 67 300 95 c 0
 300 123 278 145 250 145 c 0xbe
250 200 m 0
 310 200 360 156 360 95 c 0
 360 34 310 -10 250 -10 c 0xbe
 153 -10 90 63 90 160 c 2
 90 420 l 2
 90 551 205 620 235 620 c 1
 350 525 l 1
 465 620 l 1
 495 620 610 551 610 420 c 2
 610 0 l 1
 520 0 l 1x7e
 520 420 l 2
 520 459 508 509 465 540 c 1
 350 450 l 1
 235 540 l 1
 192 509 180 459 180 420 c 2
 180 173 l 1
 198 190 223 200 250 200 c 0
EndSplineSet
Layer: 3
SplineSet
253 200 m 0x7e
 305 200 342 167 342 117 c 0
 342 110 342 103 340 95 c 0
 327 34 268 -10 208 -10 c 0xbe
 126 -10 79 42 79 117 c 0
 79 130 81 145 84 160 c 2
 139 420 l 2
 167 551 297 620 327 620 c 1
 422 525 l 1
 557 620 l 1
 583 620 664 567 664 465 c 0
 664 451 662 436 659 420 c 2
 570 0 l 1
 480 0 l 1
 569 420 l 2
 572 432 574 445 574 458 c 0
 574 488 565 519 540 540 c 1
 406 450 l 1
 310 540 l 1
 260 509 238 459 229 420 c 2
 177 173 l 1
 198 190 226 200 253 200 c 0x7e
241 145 m 0
 213 145 186 123 180 95 c 0
 179 91 179 88 179 84 c 0
 179 62 196 45 220 45 c 0
 248 45 274 67 280 95 c 0
 281 99 281 102 281 106 c 0
 281 129 265 145 241 145 c 0
EndSplineSet
Layer: 4
SplineSet
250 155 m 0xb7
 222 155 200 133 200 105 c 0
 200 77 222 55 250 55 c 0
 278 55 300 77 300 105 c 0
 300 133 278 155 250 155 c 0xb7
250 220 m 0
 318 220 375 175 375 105 c 0
 375 35 318 -10 250 -10 c 0
 146 -10 60 58 60 160 c 2xb7
 60 390 l 2
 60 552 184 620 245 620 c 1
 350 525 l 1
 455 620 l 1
 516 620 640 552 640 390 c 2
 640 0 l 1
 490 0 l 1
 490 390 l 2
 490 460 480 492 455 510 c 1
 350 420 l 1
 245 510 l 1
 220 492 210 460 210 390 c 2
 210 240 l 2x7b
 210 231 208 219 206 208 c 1
 219 215 233 220 250 220 c 0
EndSplineSet
Layer: 5
SplineSet
257 220 m 0x7e
 316 220 360 186 360 130 c 0
 360 122 359 114 357 105 c 0
 342 35 276 -10 208 -10 c 0xbe
 117 -10 50 42 50 124 c 0
 50 136 51 148 54 160 c 2
 103 390 l 2
 137 552 276 620 337 620 c 1
 422 525 l 1
 547 620 l 1
 600 620 689 569 689 449 c 0
 689 431 687 411 683 390 c 2
 600 0 l 1
 450 0 l 1
 533 390 l 2
 539 419 542 441 542 459 c 0
 542 484 536 499 523 510 c 1
 399 420 l 1
 313 510 l 1
 285 492 268 460 253 390 c 2
 221 240 l 2
 219 231 215 219 210 208 c 1
 225 215 240 220 257 220 c 0x7e
243 155 m 0
 215 155 188 133 182 105 c 0
 181 101 181 98 181 94 c 0
 181 72 198 55 222 55 c 0
 250 55 276 77 282 105 c 0
 283 109 283 112 283 116 c 0
 283 139 267 155 243 155 c 0
EndSplineSet
Colour: ffff00
EndChar

StartChar: uni0E96
Encoding: 265 3734 9
Width: 710
VWidth: 0
Flags: HW
HStem: -10 65<168.368 255.367> 500 110<437.473 592> 545 65<182.133 268.978>
VStem: 93 76<58.0251 125.927 448.588 531.606> 268 77<68.3936 151.359 521 542.921> 530 154<320 490.259>
AnchorPoint: "normal-below" 270 -40 basechar 0
AnchorPoint: "normal-above" 360 640 basechar 0
LayerCount: 6
Back
Fore
SplineSet
157 386 m 1xdc
 118 398 93 429 93 471 c 0
 93 479 93 487 95 495 c 0
 110 565 177 610 245 610 c 0xbc
 304 610 347 576 348 521 c 1
 396 567 463 610 550 610 c 0
 634 610 684 567 684 476 c 0
 684 453 681 428 675 400 c 2
 539 -240 l 1
 389 -240 l 1
 525 400 l 2
 528 415 530 427 530 439 c 0
 530 482 507 500 466 500 c 0
 404 500 348 452 305 402 c 1
 284 300 l 1
 271 240 l 2
 269 231 267 224 263 218 c 1
 312 211 345 178 345 130 c 0
 345 122 344 114 342 105 c 0
 327 35 261 -10 193 -10 c 0
 133 -10 89 25 89 80 c 0
 89 88 90 96 92 105 c 2
 134 300 l 1
 147 360 l 2
 149 372 153 380 157 386 c 1xdc
228 155 m 0
 200 155 173 133 167 105 c 0
 166 101 166 98 166 94 c 0
 166 72 183 55 207 55 c 0
 235 55 261 77 267 105 c 0
 268 109 268 112 268 116 c 0
 268 139 252 155 228 155 c 0
231 545 m 0
 203 545 176 523 170 495 c 0
 169 491 169 488 169 484 c 0
 169 462 186 445 210 445 c 0
 238 445 264 467 270 495 c 0
 271 499 271 502 271 506 c 0
 271 529 255 545 231 545 c 0
EndSplineSet
Layer: 2
SplineSet
150 555 m 0xdb80
 122 555 100 533 100 505 c 0
 100 477 122 455 150 455 c 0
 178 455 200 477 200 505 c 0
 200 533 178 555 150 555 c 0xdb80
250 145 m 0
 222 145 200 123 200 95 c 0
 200 67 222 45 250 45 c 0
 278 45 300 67 300 95 c 0
 300 123 278 145 250 145 c 0
250 200 m 0
 310 200 360 156 360 95 c 0
 360 34 310 -10 250 -10 c 0
 190 -10 140 34 140 95 c 2xeb80
 140 400 l 1
 85 405 40 447 40 505 c 0
 40 566 90 610 150 610 c 0xdd80
 200 610 243 580 256 534 c 1
 295 572 358 610 430 610 c 0
 536 610 610 545 610 420 c 2
 610 -240 l 1
 520 -240 l 1
 520 420 l 2
 520 489 501 535 410 535 c 0
 318 535 262 478 230 427 c 1
 230 198 l 1xed80
 236 199 243 200 250 200 c 0
EndSplineSet
Layer: 3
SplineSet
253 200 m 0xeb
 305 200 342 167 342 117 c 0
 342 110 342 103 340 95 c 0
 327 34 268 -10 208 -10 c 0
 156 -10 118 24 118 73 c 0xe7
 118 80 118 87 120 95 c 2
 185 400 l 1
 138 404 105 437 105 483 c 0
 105 490 105 497 107 505 c 0
 120 566 180 610 240 610 c 0xdb
 290 610 326 580 330 534 c 1
 377 572 448 610 520 610 c 0
 609 610 665 564 665 476 c 0
 665 459 663 440 659 420 c 2
 519 -240 l 1
 429 -240 l 1
 569 420 l 2
 573 437 575 452 575 466 c 0
 575 509 553 535 484 535 c 0
 392 535 324 478 281 427 c 1
 232 198 l 1
 238 199 246 200 253 200 c 0xeb
241 145 m 0
 213 145 186 123 180 95 c 0
 179 91 179 88 179 84 c 0
 179 62 196 45 220 45 c 0
 248 45 274 67 280 95 c 0
 281 99 281 102 281 106 c 0
 281 129 265 145 241 145 c 0
228 555 m 0xdb
 200 555 173 533 167 505 c 0
 166 501 166 498 166 494 c 0
 166 472 183 455 207 455 c 0
 235 455 261 477 267 505 c 0
 268 509 268 512 268 516 c 0
 268 539 252 555 228 555 c 0xdb
EndSplineSet
Layer: 4
SplineSet
155 545 m 0xb3
 127 545 105 523 105 495 c 0
 105 467 127 445 155 445 c 0
 183 445 205 467 205 495 c 0
 205 523 183 545 155 545 c 0xb3
235 155 m 0
 207 155 185 133 185 105 c 0x97
 185 77 207 55 235 55 c 0
 263 55 285 77 285 105 c 0
 285 133 263 155 235 155 c 0
115 386 m 1
 66 400 30 440 30 495 c 0
 30 565 87 610 155 610 c 0xbb
 214 610 265 576 277 521 c 1
 315 567 373 610 460 610 c 0
 565 610 630 544 630 400 c 2
 630 -240 l 1
 480 -240 l 1
 480 400 l 2
 480 472 451 500 400 500 c 0
 338 500 292 452 260 402 c 1
 260 300 l 1
 260 240 l 2xdb
 260 231 259 224 257 218 c 1
 315 210 360 167 360 105 c 0
 360 35 303 -10 235 -10 c 0
 167 -10 110 35 110 105 c 2xd7
 110 300 l 1
 110 360 l 2xdb
 110 372 112 380 115 386 c 1
EndSplineSet
Layer: 5
SplineSet
157 386 m 1xdc
 118 398 93 429 93 471 c 0
 93 479 93 487 95 495 c 0
 110 565 177 610 245 610 c 0xbc
 304 610 347 576 348 521 c 1
 396 567 463 610 550 610 c 0
 634 610 684 567 684 476 c 0
 684 453 681 428 675 400 c 2
 539 -240 l 1
 389 -240 l 1
 525 400 l 2
 528 415 530 427 530 439 c 0
 530 482 507 500 466 500 c 0
 404 500 348 452 305 402 c 1
 284 300 l 1
 271 240 l 2
 269 231 267 224 263 218 c 1
 312 211 345 178 345 130 c 0
 345 122 344 114 342 105 c 0
 327 35 261 -10 193 -10 c 0
 133 -10 89 25 89 80 c 0
 89 88 90 96 92 105 c 2
 134 300 l 1
 147 360 l 2
 149 372 153 380 157 386 c 1xdc
228 155 m 0
 200 155 173 133 167 105 c 0
 166 101 166 98 166 94 c 0
 166 72 183 55 207 55 c 0
 235 55 261 77 267 105 c 0
 268 109 268 112 268 116 c 0
 268 139 252 155 228 155 c 0
231 545 m 0
 203 545 176 523 170 495 c 0
 169 491 169 488 169 484 c 0
 169 462 186 445 210 445 c 0
 238 445 264 467 270 495 c 0
 271 499 271 502 271 506 c 0
 271 529 255 545 231 545 c 0
EndSplineSet
Colour: ffff00
EndChar

StartChar: uni0E97
Encoding: 266 3735 10
Width: 780
VWidth: 0
Flags: HW
HStem: -10 110<232.405 321.403> 0 21G<530 684.267> 385 60<172.661 202> 500 110<536.225 625.031> 545 65<182.133 268.149>
VStem: 78 152<102.134 256.875> 92 77<449.24 531.606> 271 94<458.621 540.734> 627 152<411.818 496.456>
AnchorPoint: "normal-below" 480 -40 basechar 0
AnchorPoint: "normal-above" 420 640 basechar 0
LayerCount: 6
Back
Fore
SplineSet
197 385 m 2xb580
 137 385 92 416 92 471 c 0xb380
 92 478 93 486 95 495 c 0
 110 565 177 610 245 610 c 0
 315 610 365 567 365 506 c 0
 365 498 364 489 362 480 c 0
 341 383 277 364 257 270 c 2
 232 150 l 2
 231 145 230 140 230 135 c 0
 230 110 248 100 271 100 c 0xad80
 298 100 324 114 332 150 c 2
 396 450 l 2
 416 548 505 610 615 610 c 0
 713 610 779 561 779 482 c 0
 779 472 778 461 776 450 c 2
 680 0 l 1
 530 0 l 1x7580
 626 450 l 2
 627 455 627 459 627 464 c 0
 627 490 609 500 586 500 c 0
 559 500 533 486 526 450 c 2
 462 150 l 2
 441 52 353 -10 243 -10 c 0
 146 -10 78 38 78 117 c 0
 78 128 80 139 82 150 c 2
 107 270 l 2
 119 325 162 356 202 385 c 1
 197 385 l 2xb580
210 445 m 0
 238 445 264 467 270 495 c 0
 271 499 271 502 271 506 c 0
 271 529 255 545 231 545 c 0x2b80
 203 545 176 523 170 495 c 0
 169 491 169 488 169 484 c 0
 169 462 186 445 210 445 c 0
EndSplineSet
Layer: 2
SplineSet
160 555 m 0x2dc0
 132 555 110 533 110 505 c 0
 110 477 132 455 160 455 c 0
 188 455 210 477 210 505 c 0
 210 533 188 555 160 555 c 0x2dc0
200 300 m 2xabc0
 200 130 l 2
 200 75 243 65 275 65 c 0xabc0
 307 65 350 75 350 130 c 2
 350 470 l 2
 350 559 420 610 515 610 c 0
 610 610 680 559 680 470 c 2
 680 0 l 1
 590 0 l 1x73c0
 590 470 l 2
 590 525 547 535 515 535 c 0
 483 535 440 525 440 470 c 2
 440 130 l 2
 440 41 370 -10 275 -10 c 0
 180 -10 110 41 110 130 c 2
 110 300 l 2xb3c0
 110 353 147 379 177 406 c 1
 171 405 166 405 160 405 c 0
 100 405 50 444 50 505 c 0xb5c0
 50 566 100 610 160 610 c 0
 231 610 280 560 280 500 c 0
 280 403 200 380 200 300 c 2xabc0
EndSplineSet
Layer: 3
SplineSet
224 300 m 2xab80
 188 130 l 2
 187 123 186 117 186 112 c 0
 186 73 221 65 249 65 c 0xad80
 281 65 326 75 338 130 c 2
 410 470 l 2
 429 559 510 610 605 610 c 0
 688 610 744 571 744 502 c 0
 744 492 742 481 740 470 c 2
 640 0 l 1
 550 0 l 1x7580
 650 470 l 2
 651 477 652 483 652 488 c 0
 652 527 617 535 589 535 c 0
 557 535 512 525 500 470 c 2
 428 130 l 2
 409 41 328 -10 233 -10 c 0
 150 -10 94 29 94 98 c 0xb580
 94 108 96 119 98 130 c 2
 134 300 l 2
 145 353 188 379 223 406 c 1
 217 405 212 405 206 405 c 0
 153 405 115 435 115 483 c 0
 115 490 115 497 117 505 c 0
 130 566 190 610 250 610 c 0
 312 610 349 572 349 523 c 0
 349 515 348 508 346 500 c 0
 326 403 241 380 224 300 c 2xab80
238 555 m 0
 210 555 183 533 177 505 c 0
 176 501 176 498 176 494 c 0x2b80
 176 472 193 455 217 455 c 0
 245 455 271 477 277 505 c 0
 278 509 278 512 278 516 c 0
 278 539 262 555 238 555 c 0
EndSplineSet
Layer: 4
SplineSet
155 445 m 0x2dc0
 183 445 205 467 205 495 c 0
 205 523 183 545 155 545 c 0
 127 545 105 523 105 495 c 0
 105 467 127 445 155 445 c 0x2dc0
155 385 m 0
 87 385 30 425 30 495 c 0
 30 565 87 610 155 610 c 0
 235 610 300 554 300 480 c 0xadc0
 300 383 240 364 240 270 c 2
 240 150 l 2
 240 114 263 100 290 100 c 0xaac0
 317 100 340 114 340 150 c 2
 340 450 l 2
 340 548 415 610 525 610 c 0
 635 610 720 548 720 450 c 2
 720 0 l 1
 570 0 l 1x72c0
 570 450 l 2
 570 486 547 500 520 500 c 0
 493 500 470 486 470 450 c 2
 470 150 l 2
 470 52 395 -10 285 -10 c 0
 175 -10 90 52 90 150 c 2
 90 270 l 2xb2c0
 90 325 126 356 160 385 c 1
 159 385 157 385 155 385 c 0
EndSplineSet
Layer: 5
SplineSet
197 385 m 2xb580
 137 385 92 416 92 471 c 0xb380
 92 478 93 486 95 495 c 0
 110 565 177 610 245 610 c 0
 315 610 365 567 365 506 c 0
 365 498 364 489 362 480 c 0
 341 383 277 364 257 270 c 2
 232 150 l 2
 231 145 230 140 230 135 c 0
 230 110 248 100 271 100 c 0xad80
 298 100 324 114 332 150 c 2
 396 450 l 2
 416 548 505 610 615 610 c 0
 713 610 779 561 779 482 c 0
 779 472 778 461 776 450 c 2
 680 0 l 1
 530 0 l 1x7580
 626 450 l 2
 627 455 627 459 627 464 c 0
 627 490 609 500 586 500 c 0
 559 500 533 486 526 450 c 2
 462 150 l 2
 441 52 353 -10 243 -10 c 0
 146 -10 78 38 78 117 c 0
 78 128 80 139 82 150 c 2
 107 270 l 2
 119 325 162 356 202 385 c 1
 197 385 l 2xb580
210 445 m 0
 238 445 264 467 270 495 c 0
 271 499 271 502 271 506 c 0
 271 529 255 545 231 545 c 0x2b80
 203 545 176 523 170 495 c 0
 169 491 169 488 169 484 c 0
 169 462 186 445 210 445 c 0
EndSplineSet
Colour: ffff00
EndChar

StartChar: uni0E99
Encoding: 267 3737 11
Width: 690
VWidth: 0
Flags: HW
HStem: -10 110<315.287 447.556> -10 86<33.1093 119.92> 545 65<192.133 279.003> 580 20G<563.75 718>
VStem: 102 77<447.444 531.606> 281 77<457.602 542.542>
AnchorPoint: "normal-below" 360 -40 basechar 0
AnchorPoint: "normal-above" 360 640 basechar 0
LayerCount: 6
Back
Fore
SplineSet
355 495 m 2x6c
 284 158 l 1
 306 125 336 100 381 100 c 0
 432 100 467 128 483 200 c 2
 568 600 l 1
 718 600 l 1
 633 200 l 2
 602 56 523 -10 418 -10 c 0x9c
 335 -10 287 29 258 72 c 1
 231 21 181 -10 113 -10 c 0
 56 -10 23 4 3 15 c 1
 43 85 l 1
 43 85 62 76 83 76 c 0
 100 76 118 83 126 120 c 2
 177 360 l 2
 179 372 183 380 187 386 c 1
 138 392 102 422 102 471 c 0
 102 479 103 487 105 495 c 0
 120 565 187 610 255 610 c 0
 314 610 358 576 358 520 c 0
 358 512 357 504 355 495 c 2x6c
220 445 m 0
 248 445 274 467 280 495 c 0
 281 499 281 502 281 506 c 0
 281 529 265 545 241 545 c 0x2c
 213 545 186 523 180 495 c 0
 179 491 179 488 179 484 c 0
 179 462 196 445 220 445 c 0
EndSplineSet
Layer: 2
SplineSet
60 15 m 1x6680
 85 70 l 1
 95 65 116 55 135 55 c 0
 162 55 170 83 170 120 c 2
 170 402 l 1x6680
 164 401 157 400 150 400 c 0
 90 400 40 444 40 505 c 0
 40 566 90 610 150 610 c 0
 210 610 260 566 260 505 c 2x7580
 260 144 l 1
 292 102 336 65 400 65 c 0
 485 65 510 107 510 170 c 2
 510 600 l 1
 600 600 l 1
 600 170 l 2
 600 57 537 -10 430 -10 c 0xae80
 356 -10 295 26 255 72 c 1
 243 28 209 -10 150 -10 c 0
 108 -10 78 6 60 15 c 1x6680
150 555 m 0x3580
 122 555 100 533 100 505 c 0
 100 477 122 455 150 455 c 0
 178 455 200 477 200 505 c 0
 200 533 178 555 150 555 c 0x3580
EndSplineSet
Layer: 3
SplineSet
228 555 m 0x36
 200 555 173 533 167 505 c 0
 166 501 166 498 166 494 c 0
 166 472 183 455 207 455 c 0
 235 455 261 477 267 505 c 0
 268 509 268 512 268 516 c 0
 268 539 252 555 228 555 c 0x36
23 15 m 1
 60 70 l 1
 69 65 88 55 107 55 c 0
 134 55 148 83 156 120 c 2
 215 402 l 1
 209 401 202 400 195 400 c 0
 143 400 105 434 105 483 c 0
 105 490 105 497 107 505 c 0
 120 566 180 610 240 610 c 0x76
 292 610 329 577 329 527 c 0
 329 520 329 513 327 505 c 2
 251 144 l 1
 274 102 310 65 374 65 c 0
 459 65 493 107 506 170 c 2
 598 600 l 1
 688 600 l 1
 596 170 l 2
 572 57 495 -10 388 -10 c 0xae
 314 -10 261 26 230 72 c 1
 209 28 167 -10 108 -10 c 0x66
 66 -10 39 6 23 15 c 1
EndSplineSet
Layer: 4
SplineSet
165 445 m 0x2b
 193 445 215 467 215 495 c 0
 215 523 193 545 165 545 c 0
 137 545 115 523 115 495 c 0
 115 467 137 445 165 445 c 0x2b
290 495 m 2
 290 158 l 1
 319 125 355 100 400 100 c 0
 451 100 480 128 480 200 c 2
 480 600 l 1
 630 600 l 1
 630 200 l 2
 630 56 565 -10 460 -10 c 0x9d
 377 -10 321 29 283 72 c 1
 267 21 223 -10 155 -10 c 0
 98 -10 62 4 40 15 c 1
 65 85 l 1
 65 85 86 76 107 76 c 0
 124 76 140 83 140 120 c 2
 140 360 l 2x4d
 140 372 142 380 145 386 c 1
 86 393 40 432 40 495 c 0
 40 565 97 610 165 610 c 0
 233 610 290 565 290 495 c 2
EndSplineSet
Layer: 5
SplineSet
355 495 m 2x6c
 284 158 l 1
 306 125 336 100 381 100 c 0
 432 100 467 128 483 200 c 2
 568 600 l 1
 718 600 l 1
 633 200 l 2
 602 56 523 -10 418 -10 c 0x9c
 335 -10 287 29 258 72 c 1
 231 21 181 -10 113 -10 c 0
 56 -10 23 4 3 15 c 1
 43 85 l 1
 43 85 62 76 83 76 c 0
 100 76 118 83 126 120 c 2
 177 360 l 2
 179 372 183 380 187 386 c 1
 138 392 102 422 102 471 c 0
 102 479 103 487 105 495 c 0
 120 565 187 610 255 610 c 0
 314 610 358 576 358 520 c 0
 358 512 357 504 355 495 c 2x6c
220 445 m 0
 248 445 274 467 280 495 c 0
 281 499 281 502 281 506 c 0
 281 529 265 545 241 545 c 0x2c
 213 545 186 523 180 495 c 0
 179 491 179 488 179 484 c 0
 179 462 196 445 220 445 c 0
EndSplineSet
Colour: ffff00
EndChar

StartChar: uni0E9A
Encoding: 268 3738 12
Width: 710
VWidth: 0
Flags: HW
HStem: -20 110<256.955 451.564> 385 60<172.661 202> 545 65<182.133 268.149> 580 20G<583.707 738>
VStem: 85 152<113.371 220.545> 92 77<449.24 531.606> 271 94<458.621 540.734>
AnchorPoint: "normal-below" 370 -40 basechar 0
AnchorPoint: "normal-above" 360 640 basechar 0
LayerCount: 6
Back
Fore
SplineSet
197 385 m 2xda
 137 385 92 416 92 471 c 0
 92 478 93 486 95 495 c 0
 110 565 177 610 245 610 c 0xe6
 315 610 365 567 365 506 c 0
 365 498 364 489 362 480 c 0
 341 383 277 364 257 270 c 2
 240 190 l 2
 238 181 237 172 237 164 c 0
 237 112 279 90 349 90 c 0
 429 90 485 119 500 190 c 2
 588 600 l 1
 738 600 l 1
 650 190 l 2
 624 65 530 -20 326 -20 c 0
 151 -20 85 50 85 143 c 0
 85 158 87 174 90 190 c 2
 107 270 l 2
 119 325 162 356 202 385 c 1
 197 385 l 2xda
210 445 m 0
 238 445 264 467 270 495 c 0
 271 499 271 502 271 506 c 0
 271 529 255 545 231 545 c 0
 203 545 176 523 170 495 c 0
 169 491 169 488 169 484 c 0
 169 462 186 445 210 445 c 0
EndSplineSet
Layer: 2
SplineSet
150 555 m 0xeb
 122 555 100 533 100 505 c 0
 100 477 122 455 150 455 c 0
 178 455 200 477 200 505 c 0
 200 533 178 555 150 555 c 0xeb
100 300 m 2xd7
 100 353 137 379 167 406 c 1
 161 405 156 405 150 405 c 0
 90 405 40 444 40 505 c 0
 40 566 90 610 150 610 c 0xeb
 221 610 270 560 270 500 c 0
 270 403 190 380 190 300 c 2
 190 170 l 2
 190 105 255 55 360 55 c 0
 465 55 530 105 530 170 c 2
 530 600 l 1
 620 600 l 1
 620 170 l 2
 620 34 495 -20 360 -20 c 0
 225 -20 100 34 100 170 c 2
 100 300 l 2xd7
EndSplineSet
Layer: 3
SplineSet
124 300 m 2xda
 135 353 178 379 213 406 c 1
 207 405 202 405 196 405 c 0
 143 405 105 435 105 483 c 0
 105 490 105 497 107 505 c 0
 120 566 180 610 240 610 c 0xe6
 302 610 339 572 339 523 c 0
 339 515 338 508 336 500 c 0
 316 403 231 380 214 300 c 2
 186 170 l 2
 185 163 184 157 184 150 c 0
 184 95 238 55 332 55 c 0
 437 55 512 105 526 170 c 2
 618 600 l 1
 708 600 l 1
 616 170 l 2
 587 34 451 -20 316 -20 c 0
 195 -20 91 23 91 129 c 0
 91 142 93 156 96 170 c 2
 124 300 l 2xda
228 555 m 0
 200 555 173 533 167 505 c 0
 166 501 166 498 166 494 c 0
 166 472 183 455 207 455 c 0
 235 455 261 477 267 505 c 0
 268 509 268 512 268 516 c 0
 268 539 252 555 228 555 c 0
EndSplineSet
Layer: 4
SplineSet
155 445 m 0xeb
 183 445 205 467 205 495 c 0
 205 523 183 545 155 545 c 0
 127 545 105 523 105 495 c 0
 105 467 127 445 155 445 c 0xeb
155 385 m 0
 87 385 30 425 30 495 c 0
 30 565 87 610 155 610 c 0
 235 610 300 554 300 480 c 0xeb
 300 383 240 364 240 270 c 2
 240 190 l 2
 240 119 290 90 370 90 c 0
 450 90 500 119 500 190 c 2
 500 600 l 1
 650 600 l 1
 650 190 l 2
 650 65 574 -20 370 -20 c 0
 166 -20 90 75 90 190 c 2
 90 270 l 2xd5
 90 325 126 356 160 385 c 1
 159 385 157 385 155 385 c 0
EndSplineSet
Layer: 5
SplineSet
197 385 m 2xda
 137 385 92 416 92 471 c 0
 92 478 93 486 95 495 c 0
 110 565 177 610 245 610 c 0xe6
 315 610 365 567 365 506 c 0
 365 498 364 489 362 480 c 0
 341 383 277 364 257 270 c 2
 240 190 l 2
 238 181 237 172 237 164 c 0
 237 112 279 90 349 90 c 0
 429 90 485 119 500 190 c 2
 588 600 l 1
 738 600 l 1
 650 190 l 2
 624 65 530 -20 326 -20 c 0
 151 -20 85 50 85 143 c 0
 85 158 87 174 90 190 c 2
 107 270 l 2
 119 325 162 356 202 385 c 1
 197 385 l 2xda
210 445 m 0
 238 445 264 467 270 495 c 0
 271 499 271 502 271 506 c 0
 271 529 255 545 231 545 c 0
 203 545 176 523 170 495 c 0
 169 491 169 488 169 484 c 0
 169 462 186 445 210 445 c 0
EndSplineSet
Colour: ffff00
EndChar

StartChar: uni0E9B
Encoding: 269 3739 13
Width: 720
VWidth: 0
Flags: HW
HStem: -20 110<256.955 451.564> 385 60<172.661 202> 545 65<182.133 268.149> 820 20G<634.723 789>
VStem: 85 152<113.371 220.545> 92 77<449.24 531.606> 271 94<458.621 540.734>
AnchorPoint: "normal-below" 370 -40 basechar 0
AnchorPoint: "left-above" 320 640 basechar 0
LayerCount: 6
Back
Fore
SplineSet
197 385 m 2xfa
 137 385 92 416 92 471 c 0xf6
 92 478 93 486 95 495 c 0
 110 565 177 610 245 610 c 0
 315 610 365 567 365 506 c 0
 365 498 364 489 362 480 c 0
 341 383 277 364 257 270 c 2
 240 190 l 2
 238 181 237 172 237 164 c 0
 237 112 279 90 349 90 c 0
 429 90 485 119 500 190 c 2
 639 840 l 1
 789 840 l 1
 650 190 l 2
 624 65 530 -20 326 -20 c 0
 151 -20 85 50 85 143 c 0
 85 158 87 174 90 190 c 2
 107 270 l 2
 119 325 162 356 202 385 c 1
 197 385 l 2xfa
210 445 m 0
 238 445 264 467 270 495 c 0
 271 499 271 502 271 506 c 0
 271 529 255 545 231 545 c 0
 203 545 176 523 170 495 c 0
 169 491 169 488 169 484 c 0
 169 462 186 445 210 445 c 0
EndSplineSet
Layer: 2
SplineSet
150 555 m 0xfb
 122 555 100 533 100 505 c 0
 100 477 122 455 150 455 c 0
 178 455 200 477 200 505 c 0
 200 533 178 555 150 555 c 0xfb
100 300 m 2xf7
 100 353 137 379 167 406 c 1
 161 405 156 405 150 405 c 0
 90 405 40 444 40 505 c 0xfb
 40 566 90 610 150 610 c 0
 221 610 270 560 270 500 c 0
 270 403 190 380 190 300 c 2
 190 170 l 2
 190 105 255 55 360 55 c 0
 465 55 530 105 530 170 c 2
 530 840 l 1
 620 840 l 1
 620 170 l 2
 620 34 495 -20 360 -20 c 0
 225 -20 100 34 100 170 c 2
 100 300 l 2xf7
EndSplineSet
Layer: 3
SplineSet
124 300 m 2xfa
 135 353 178 379 213 406 c 1
 207 405 202 405 196 405 c 0
 143 405 105 435 105 483 c 0xf6
 105 490 105 497 107 505 c 0
 120 566 180 610 240 610 c 0
 302 610 339 572 339 523 c 0
 339 515 338 508 336 500 c 0
 316 403 231 380 214 300 c 2
 186 170 l 2
 185 163 184 157 184 150 c 0
 184 95 238 55 332 55 c 0
 437 55 512 105 526 170 c 2
 669 840 l 1
 759 840 l 1
 616 170 l 2
 587 34 451 -20 316 -20 c 0
 195 -20 91 23 91 129 c 0
 91 142 93 156 96 170 c 2
 124 300 l 2xfa
228 555 m 0
 200 555 173 533 167 505 c 0
 166 501 166 498 166 494 c 0
 166 472 183 455 207 455 c 0
 235 455 261 477 267 505 c 0
 268 509 268 512 268 516 c 0
 268 539 252 555 228 555 c 0
EndSplineSet
Layer: 4
SplineSet
155 445 m 0xfb
 183 445 205 467 205 495 c 0
 205 523 183 545 155 545 c 0
 127 545 105 523 105 495 c 0
 105 467 127 445 155 445 c 0xfb
155 385 m 0
 87 385 30 425 30 495 c 0
 30 565 87 610 155 610 c 0
 235 610 300 554 300 480 c 0xfb
 300 383 240 364 240 270 c 2
 240 190 l 2
 240 119 290 90 370 90 c 0
 450 90 500 119 500 190 c 2
 500 840 l 1
 650 840 l 1
 650 190 l 2
 650 65 574 -20 370 -20 c 0
 166 -20 90 75 90 190 c 2
 90 270 l 2xf5
 90 325 126 356 160 385 c 1
 159 385 157 385 155 385 c 0
EndSplineSet
Layer: 5
SplineSet
197 385 m 2xfa
 137 385 92 416 92 471 c 0xf6
 92 478 93 486 95 495 c 0
 110 565 177 610 245 610 c 0
 315 610 365 567 365 506 c 0
 365 498 364 489 362 480 c 0
 341 383 277 364 257 270 c 2
 240 190 l 2
 238 181 237 172 237 164 c 0
 237 112 279 90 349 90 c 0
 429 90 485 119 500 190 c 2
 639 840 l 1
 789 840 l 1
 650 190 l 2
 624 65 530 -20 326 -20 c 0
 151 -20 85 50 85 143 c 0
 85 158 87 174 90 190 c 2
 107 270 l 2
 119 325 162 356 202 385 c 1
 197 385 l 2xfa
210 445 m 0
 238 445 264 467 270 495 c 0
 271 499 271 502 271 506 c 0
 271 529 255 545 231 545 c 0
 203 545 176 523 170 495 c 0
 169 491 169 488 169 484 c 0
 169 462 186 445 210 445 c 0
EndSplineSet
Colour: ffff00
EndChar

StartChar: uni0E9C
Encoding: 270 3740 14
Width: 800
VWidth: 0
Flags: HW
HStem: -10 110<203.311 310.184 453.894 559.678> 380 65<245 313.437 576.368 627.744> 545 65<236.07 324.003 587.133 674.091>
VStem: 48 153<104.875 187.059> 326 77<457.959 542.542> 497 77<447.67 531.876>
AnchorPoint: "normal-below" 400 -40 basechar 0
AnchorPoint: "normal-above" 400 640 basechar 0
LayerCount: 6
Back
Fore
SplineSet
265 445 m 0
 293 445 319 467 325 495 c 0
 326 499 326 502 326 506 c 0
 326 529 310 545 286 545 c 0
 258 545 231 523 225 495 c 0
 224 491 224 488 224 484 c 0
 224 462 241 445 265 445 c 0
636 545 m 0
 608 545 581 523 575 495 c 0
 574 491 574 488 574 484 c 0
 574 462 591 445 615 445 c 0
 643 445 669 467 675 495 c 0
 676 499 676 502 676 506 c 0
 676 529 660 545 636 545 c 0
710 660 m 1
 830 660 l 1
 722 150 l 2
 700 49 612 -10 498 -10 c 0
 441 -10 392 14 366 54 c 1
 324 14 265 -10 208 -10 c 0
 109 -10 48 35 48 112 c 0
 48 124 49 137 52 150 c 2
 116 450 l 2
 132 527 192 610 300 610 c 0
 359 610 403 576 403 520 c 0
 403 512 402 504 400 495 c 0
 385 425 320 385 252 385 c 2
 245 385 l 1
 247 375 247 363 244 350 c 2
 202 150 l 2
 201 146 201 143 201 139 c 0
 201 112 228 100 251 100 c 0
 277 100 314 115 322 150 c 2
 360 330 l 1
 490 330 l 1
 452 150 l 2
 451 146 451 143 451 139 c 0
 451 112 478 100 501 100 c 0
 527 100 564 115 572 150 c 2
 614 350 l 2
 617 363 622 374 628 383 c 1
 619 381 610 380 601 380 c 0
 541 380 497 415 497 470 c 0
 497 478 498 486 500 495 c 0
 515 565 582 610 650 610 c 0
 670 610 688 605 702 596 c 1
 700 604 700 612 702 620 c 2
 710 660 l 1
EndSplineSet
Layer: 2
SplineSet
240 555 m 0xfa
 212 555 190 533 190 505 c 0
 190 477 212 455 240 455 c 0
 268 455 290 477 290 505 c 0
 290 533 268 555 240 555 c 0xfa
240 610 m 0
 300 610 350 566 350 505 c 0xfb
 350 444 300 405 240 405 c 0
 216 405 195 413 180 427 c 1
 180 150 l 2
 180 102 213 65 265 65 c 0
 317 65 350 98 350 150 c 2
 350 300 l 1
 440 300 l 1
 440 150 l 2
 440 98 473 65 525 65 c 0
 577 65 610 102 610 150 c 2
 610 400 l 2xf7
 610 407 613 416 618 425 c 1
 604 416 586 410 565 410 c 0
 505 410 460 449 460 510 c 0
 460 571 505 610 565 610 c 0
 589 610 608 602 623 591 c 1
 621 598 620 606 620 615 c 2
 620 660 l 1
 700 660 l 1xf280
 700 150 l 2xf3
 700 47 632 -10 525 -10 c 0
 461 -10 419 22 395 61 c 1
 371 22 329 -10 265 -10 c 0
 158 -10 90 47 90 150 c 2
 90 450 l 2
 90 527 132 610 240 610 c 0
570 560 m 0
 542 560 520 538 520 510 c 0
 520 482 542 460 570 460 c 0
 598 460 620 482 620 510 c 0xf280
 620 538 598 560 570 560 c 0
EndSplineSet
Layer: 3
SplineSet
649 560 m 0
 621 560 594 538 588 510 c 0
 587 506 587 503 587 499 c 0
 587 477 604 460 628 460 c 0
 656 460 682 482 688 510 c 0
 689 514 689 517 689 521 c 0
 689 544 673 560 649 560 c 0
330 610 m 0
 382 610 419 577 419 527 c 0
 419 520 419 513 417 505 c 0
 404 444 346 405 286 405 c 0
 262 405 243 413 231 427 c 1
 172 150 l 2
 171 143 170 136 170 130 c 0
 170 92 195 65 239 65 c 0
 291 65 331 98 342 150 c 2
 374 300 l 1
 464 300 l 1
 432 150 l 2
 430 142 430 135 430 128 c 0
 430 89 455 65 499 65 c 0
 551 65 592 102 602 150 c 2
 655 400 l 2
 657 407 661 416 668 425 c 1
 652 416 633 410 612 410 c 0
 560 410 525 439 525 487 c 0
 525 494 526 502 528 510 c 0
 541 571 595 610 655 610 c 0
 679 610 696 602 709 591 c 1
 708 598 709 606 711 615 c 2
 720 660 l 1
 800 660 l 1
 692 150 l 2
 670 47 590 -10 483 -10 c 0
 419 -10 384 22 368 61 c 1
 336 22 287 -10 223 -10 c 0
 131 -10 77 32 77 108 c 0
 77 121 79 135 82 150 c 2
 146 450 l 2
 162 527 222 610 330 610 c 0
318 555 m 0
 290 555 263 533 257 505 c 0
 256 501 256 498 256 494 c 0
 256 472 273 455 297 455 c 0
 325 455 351 477 357 505 c 0
 358 509 358 512 358 516 c 0
 358 539 342 555 318 555 c 0
EndSplineSet
Layer: 4
SplineSet
610 660 m 1xe140
 730 660 l 1xe140
 730 150 l 2
 730 49 654 -10 540 -10 c 0
 483 -10 429 14 395 54 c 1
 361 14 307 -10 250 -10 c 0
 136 -10 60 49 60 150 c 2xf080
 60 450 l 2xe8
 60 527 102 610 210 610 c 0
 278 610 335 565 335 495 c 0xf4
 335 425 278 385 210 385 c 0
 208 385 206 385 203 385 c 1
 207 375 210 363 210 350 c 2
 210 150 l 2
 210 115 244 100 270 100 c 0
 296 100 330 115 330 150 c 2
 330 330 l 1
 460 330 l 1
 460 150 l 2
 460 115 494 100 520 100 c 0
 546 100 580 115 580 150 c 2
 580 350 l 2xf280
 580 363 583 374 587 383 c 1
 578 381 569 380 560 380 c 0
 492 380 435 425 435 495 c 0
 435 565 492 610 560 610 c 0
 580 610 599 605 615 596 c 1
 612 604 610 612 610 620 c 2
 610 660 l 1xe140
560 545 m 0
 532 545 510 523 510 495 c 0
 510 467 532 445 560 445 c 0
 588 445 610 467 610 495 c 0
 610 523 588 545 560 545 c 0
210 445 m 0xf0
 238 445 260 467 260 495 c 0
 260 523 238 545 210 545 c 0xf4
 182 545 160 523 160 495 c 0xe8
 160 467 182 445 210 445 c 0xf0
EndSplineSet
Layer: 5
SplineSet
265 445 m 0
 293 445 319 467 325 495 c 0
 326 499 326 502 326 506 c 0
 326 529 310 545 286 545 c 0
 258 545 231 523 225 495 c 0
 224 491 224 488 224 484 c 0
 224 462 241 445 265 445 c 0
636 545 m 0
 608 545 581 523 575 495 c 0
 574 491 574 488 574 484 c 0
 574 462 591 445 615 445 c 0
 643 445 669 467 675 495 c 0
 676 499 676 502 676 506 c 0
 676 529 660 545 636 545 c 0
710 660 m 1
 830 660 l 1
 722 150 l 2
 700 49 612 -10 498 -10 c 0
 441 -10 392 14 366 54 c 1
 324 14 265 -10 208 -10 c 0
 109 -10 48 35 48 112 c 0
 48 124 49 137 52 150 c 2
 116 450 l 2
 132 527 192 610 300 610 c 0
 359 610 403 576 403 520 c 0
 403 512 402 504 400 495 c 0
 385 425 320 385 252 385 c 2
 245 385 l 1
 247 375 247 363 244 350 c 2
 202 150 l 2
 201 146 201 143 201 139 c 0
 201 112 228 100 251 100 c 0
 277 100 314 115 322 150 c 2
 360 330 l 1
 490 330 l 1
 452 150 l 2
 451 146 451 143 451 139 c 0
 451 112 478 100 501 100 c 0
 527 100 564 115 572 150 c 2
 614 350 l 2
 617 363 622 374 628 383 c 1
 619 381 610 380 601 380 c 0
 541 380 497 415 497 470 c 0
 497 478 498 486 500 495 c 0
 515 565 582 610 650 610 c 0
 670 610 688 605 702 596 c 1
 700 604 700 612 702 620 c 2
 710 660 l 1
EndSplineSet
Colour: ffff00
EndChar

StartChar: uni0E9D
Encoding: 271 3741 15
Width: 800
VWidth: 0
Flags: HW
HStem: -10 110<203.311 310.184 453.894 559.678> 385 60<245.737 313.437> 545 65<236.07 324.003> 820 20G<714.739 869>
VStem: 48 153<104.626 253.125> 326 77<458.855 542.286>
AnchorPoint: "left-above" 380 640 basechar 0
AnchorPoint: "normal-below" 400 -40 basechar 0
LayerCount: 6
Back
Fore
SplineSet
245 385 m 1
 247 375 247 363 244 350 c 2
 202 150 l 2
 201 146 201 143 201 139 c 0
 201 112 228 100 251 100 c 0
 277 100 314 115 322 150 c 2
 360 330 l 1
 490 330 l 1
 452 150 l 2
 451 146 451 143 451 139 c 0
 451 112 478 100 501 100 c 0
 527 100 564 115 572 150 c 2
 719 840 l 1
 869 840 l 1
 722 150 l 2
 700 49 612 -10 498 -10 c 0
 441 -10 392 14 366 54 c 1
 324 14 265 -10 208 -10 c 0
 109 -10 48 35 48 112 c 0
 48 124 49 137 52 150 c 2
 116 450 l 2
 132 527 192 610 300 610 c 0
 359 610 403 576 403 520 c 0
 403 512 402 504 400 495 c 0
 385 425 320 385 252 385 c 2
 245 385 l 1
265 445 m 0
 293 445 319 467 325 495 c 0
 326 499 326 502 326 506 c 0
 326 529 310 545 286 545 c 0
 258 545 231 523 225 495 c 0
 224 491 224 488 224 484 c 0
 224 462 241 445 265 445 c 0
EndSplineSet
Layer: 2
SplineSet
240 555 m 0xfd
 212 555 190 533 190 505 c 0
 190 477 212 455 240 455 c 0
 268 455 290 477 290 505 c 0
 290 533 268 555 240 555 c 0xfd
240 610 m 0
 300 610 350 566 350 505 c 0xfd
 350 444 300 405 240 405 c 0
 216 405 195 413 180 427 c 1
 180 150 l 2
 180 102 213 65 265 65 c 0
 317 65 350 98 350 150 c 2
 350 300 l 1
 440 300 l 1
 440 150 l 2xfb
 440 98 473 65 525 65 c 0
 577 65 610 102 610 150 c 2
 610 840 l 1
 700 840 l 1
 700 150 l 2
 700 47 632 -10 525 -10 c 0
 461 -10 419 22 395 61 c 1
 371 22 329 -10 265 -10 c 0
 158 -10 90 47 90 150 c 2
 90 450 l 2
 90 527 132 610 240 610 c 0
EndSplineSet
Layer: 3
SplineSet
329 610 m 0
 381 610 418 577 418 527 c 0
 418 520 418 513 416 505 c 0
 403 444 345 405 285 405 c 0
 261 405 242 413 230 427 c 1
 171 150 l 2
 170 143 169 136 169 130 c 0
 169 92 194 65 238 65 c 0
 290 65 330 98 341 150 c 2
 373 300 l 1
 463 300 l 1
 431 150 l 2
 429 142 429 135 429 128 c 0
 429 89 454 65 498 65 c 0
 550 65 591 102 601 150 c 2
 748 840 l 1
 838 840 l 1
 691 150 l 2
 669 47 589 -10 482 -10 c 0
 418 -10 383 22 367 61 c 1
 335 22 286 -10 222 -10 c 0
 130 -10 76 32 76 108 c 0
 76 121 78 135 81 150 c 2
 145 450 l 2
 161 527 221 610 329 610 c 0
317 555 m 0
 289 555 262 533 256 505 c 0
 255 501 255 498 255 494 c 0
 255 472 272 455 296 455 c 0
 324 455 350 477 356 505 c 0
 357 509 357 512 357 516 c 0
 357 539 341 555 317 555 c 0
EndSplineSet
Layer: 4
SplineSet
210 445 m 0xf880
 238 445 260 467 260 495 c 0
 260 523 238 545 210 545 c 0xfa80
 182 545 160 523 160 495 c 0xf480
 160 467 182 445 210 445 c 0xf880
203 385 m 1
 207 375 210 363 210 350 c 2
 210 150 l 2
 210 115 244 100 270 100 c 0
 296 100 330 115 330 150 c 2
 330 330 l 1
 460 330 l 1
 460 150 l 2
 460 115 494 100 520 100 c 0
 546 100 580 115 580 150 c 2
 580 840 l 1
 730 840 l 1
 730 150 l 2
 730 49 654 -10 540 -10 c 0
 483 -10 429 14 395 54 c 1
 361 14 307 -10 250 -10 c 0
 136 -10 60 49 60 150 c 2xf980
 60 450 l 2xf480
 60 527 102 610 210 610 c 0
 278 610 335 565 335 495 c 0
 335 425 278 385 210 385 c 0
 208 385 206 385 203 385 c 1
EndSplineSet
Layer: 5
SplineSet
245 385 m 1
 247 375 247 363 244 350 c 2
 202 150 l 2
 201 146 201 143 201 139 c 0
 201 112 228 100 251 100 c 0
 277 100 314 115 322 150 c 2
 360 330 l 1
 490 330 l 1
 452 150 l 2
 451 146 451 143 451 139 c 0
 451 112 478 100 501 100 c 0
 527 100 564 115 572 150 c 2
 719 840 l 1
 869 840 l 1
 722 150 l 2
 700 49 612 -10 498 -10 c 0
 441 -10 392 14 366 54 c 1
 324 14 265 -10 208 -10 c 0
 109 -10 48 35 48 112 c 0
 48 124 49 137 52 150 c 2
 116 450 l 2
 132 527 192 610 300 610 c 0
 359 610 403 576 403 520 c 0
 403 512 402 504 400 495 c 0
 385 425 320 385 252 385 c 2
 245 385 l 1
265 445 m 0
 293 445 319 467 325 495 c 0
 326 499 326 502 326 506 c 0
 326 529 310 545 286 545 c 0
 258 545 231 523 225 495 c 0
 224 491 224 488 224 484 c 0
 224 462 241 445 265 445 c 0
EndSplineSet
Colour: ffff00
EndChar

StartChar: uni0E9E
Encoding: 272 3742 16
Width: 780
VWidth: 0
Flags: HW
HStem: -10 110<179.5 321.875 461.17 550.351> 385 60<172.661 202> 545 65<182.133 268.149> 580 20G<653.733 808>
VStem: 77 153<103.18 251.25> 92 77<449.24 531.606> 271 94<458.621 540.734>
AnchorPoint: "normal-below" 400 -40 basechar 0
AnchorPoint: "normal-above" 400 640 basechar 0
LayerCount: 6
Back
Fore
SplineSet
197 385 m 2xda
 137 385 92 416 92 471 c 0
 92 478 93 486 95 495 c 0
 110 565 177 610 245 610 c 0xe6
 315 610 365 567 365 506 c 0
 365 498 364 489 362 480 c 0
 341 383 277 364 257 270 c 2
 232 150 l 2
 231 145 230 140 230 136 c 0
 230 111 249 100 271 100 c 0
 297 100 324 115 332 150 c 2
 370 330 l 1
 500 330 l 1
 462 150 l 2
 461 145 460 140 460 136 c 0
 460 111 479 100 501 100 c 0
 527 100 554 115 562 150 c 2
 658 600 l 1
 808 600 l 1
 712 150 l 2
 690 49 612 -10 498 -10 c 0
 443 -10 399 12 375 49 c 1
 337 12 283 -10 228 -10 c 0
 131 -10 77 33 77 108 c 0
 77 121 79 135 82 150 c 2
 107 270 l 2
 119 325 162 356 202 385 c 1
 197 385 l 2xda
210 445 m 0
 238 445 264 467 270 495 c 0
 271 499 271 502 271 506 c 0
 271 529 255 545 231 545 c 0
 203 545 176 523 170 495 c 0
 169 491 169 488 169 484 c 0
 169 462 186 445 210 445 c 0
EndSplineSet
Layer: 2
SplineSet
150 555 m 0xeb80
 122 555 100 533 100 505 c 0
 100 477 122 455 150 455 c 0
 178 455 200 477 200 505 c 0
 200 533 178 555 150 555 c 0xeb80
395 58 m 1
 368 15 322 -10 270 -10 c 0
 161 -10 100 56 100 150 c 2
 100 300 l 2xd780
 100 353 137 379 167 406 c 1
 161 405 156 405 150 405 c 0
 90 405 40 444 40 505 c 0
 40 566 90 610 150 610 c 0xeb80
 221 610 270 560 270 500 c 0
 270 403 190 380 190 300 c 2
 190 150 l 2
 190 97 221 65 270 65 c 0
 319 65 350 97 350 150 c 2
 350 300 l 1
 440 300 l 1
 440 150 l 2
 440 97 471 65 520 65 c 0
 569 65 600 97 600 150 c 2
 600 600 l 1
 690 600 l 1xd780
 690 150 l 2
 690 56 629 -10 520 -10 c 0
 468 -10 422 15 395 58 c 1
EndSplineSet
Layer: 3
SplineSet
367 58 m 1xda
 331 15 280 -10 228 -10 c 0
 135 -10 88 38 88 110 c 0xda
 88 122 89 136 92 150 c 2
 124 300 l 2
 135 353 178 379 213 406 c 1
 207 405 202 405 196 405 c 0
 143 405 105 435 105 483 c 0
 105 490 105 497 107 505 c 0
 120 566 180 610 240 610 c 0xe6
 302 610 339 572 339 523 c 0
 339 515 338 508 336 500 c 0
 316 403 231 380 214 300 c 2
 182 150 l 2
 180 141 179 133 179 126 c 0
 179 88 203 65 244 65 c 0
 293 65 331 97 342 150 c 2
 374 300 l 1
 464 300 l 1
 432 150 l 2
 430 141 429 133 429 126 c 0
 429 88 453 65 494 65 c 0
 543 65 581 97 592 150 c 2
 688 600 l 1
 778 600 l 1
 682 150 l 2
 662 56 587 -10 478 -10 c 0
 426 -10 385 15 367 58 c 1xda
228 555 m 0xe6
 200 555 173 533 167 505 c 0
 166 501 166 498 166 494 c 0
 166 472 183 455 207 455 c 0
 235 455 261 477 267 505 c 0
 268 509 268 512 268 516 c 0
 268 539 252 555 228 555 c 0xe6
EndSplineSet
Layer: 4
SplineSet
155 445 m 0xeb80
 183 445 205 467 205 495 c 0
 205 523 183 545 155 545 c 0
 127 545 105 523 105 495 c 0
 105 467 127 445 155 445 c 0xeb80
155 385 m 0
 87 385 30 425 30 495 c 0
 30 565 87 610 155 610 c 0
 235 610 300 554 300 480 c 0xeb80
 300 383 240 364 240 270 c 2
 240 150 l 2
 240 115 264 100 290 100 c 0
 316 100 340 115 340 150 c 2
 340 330 l 1
 470 330 l 1
 470 150 l 2
 470 115 494 100 520 100 c 0
 546 100 570 115 570 150 c 2
 570 600 l 1
 720 600 l 1
 720 150 l 2
 720 49 654 -10 540 -10 c 0
 485 -10 436 12 405 49 c 1
 374 12 325 -10 270 -10 c 0
 156 -10 90 49 90 150 c 2
 90 270 l 2xd580
 90 325 126 356 160 385 c 1
 159 385 157 385 155 385 c 0
EndSplineSet
Layer: 5
SplineSet
197 385 m 2xda
 137 385 92 416 92 471 c 0
 92 478 93 486 95 495 c 0
 110 565 177 610 245 610 c 0xe6
 315 610 365 567 365 506 c 0
 365 498 364 489 362 480 c 0
 341 383 277 364 257 270 c 2
 232 150 l 2
 231 145 230 140 230 136 c 0
 230 111 249 100 271 100 c 0
 297 100 324 115 332 150 c 2
 370 330 l 1
 500 330 l 1
 462 150 l 2
 461 145 460 140 460 136 c 0
 460 111 479 100 501 100 c 0
 527 100 554 115 562 150 c 2
 658 600 l 1
 808 600 l 1
 712 150 l 2
 690 49 612 -10 498 -10 c 0
 443 -10 399 12 375 49 c 1
 337 12 283 -10 228 -10 c 0
 131 -10 77 33 77 108 c 0
 77 121 79 135 82 150 c 2
 107 270 l 2
 119 325 162 356 202 385 c 1
 197 385 l 2xda
210 445 m 0
 238 445 264 467 270 495 c 0
 271 499 271 502 271 506 c 0
 271 529 255 545 231 545 c 0
 203 545 176 523 170 495 c 0
 169 491 169 488 169 484 c 0
 169 462 186 445 210 445 c 0
EndSplineSet
Colour: ffff00
EndChar

StartChar: uni0E9F
Encoding: 273 3743 17
Width: 790
VWidth: 0
Flags: HW
HStem: -10 110<179.5 321.875 461.17 550.351> 385 60<172.661 202> 545 65<182.133 268.149> 820 20G<704.739 859>
VStem: 77 153<103.18 251.25> 92 77<449.24 531.606> 271 94<458.621 540.734>
AnchorPoint: "left-above" 380 640 basechar 0
AnchorPoint: "normal-below" 410 -40 basechar 0
LayerCount: 6
Back
Fore
SplineSet
197 385 m 2xfa
 137 385 92 416 92 471 c 0xf6
 92 478 93 486 95 495 c 0
 110 565 177 610 245 610 c 0
 315 610 365 567 365 506 c 0
 365 498 364 489 362 480 c 0
 341 383 277 364 257 270 c 2
 232 150 l 2
 231 145 230 140 230 136 c 0
 230 111 249 100 271 100 c 0
 297 100 324 115 332 150 c 2
 370 330 l 1
 500 330 l 1
 462 150 l 2
 461 145 460 140 460 136 c 0
 460 111 479 100 501 100 c 0
 527 100 554 115 562 150 c 2
 709 840 l 1
 859 840 l 1
 712 150 l 2
 690 49 612 -10 498 -10 c 0
 443 -10 399 12 375 49 c 1
 337 12 283 -10 228 -10 c 0
 131 -10 77 33 77 108 c 0
 77 121 79 135 82 150 c 2
 107 270 l 2
 119 325 162 356 202 385 c 1
 197 385 l 2xfa
210 445 m 0
 238 445 264 467 270 495 c 0
 271 499 271 502 271 506 c 0
 271 529 255 545 231 545 c 0
 203 545 176 523 170 495 c 0
 169 491 169 488 169 484 c 0
 169 462 186 445 210 445 c 0
EndSplineSet
Layer: 2
SplineSet
150 555 m 0xfb80
 122 555 100 533 100 505 c 0
 100 477 122 455 150 455 c 0
 178 455 200 477 200 505 c 0
 200 533 178 555 150 555 c 0xfb80
395 58 m 1
 368 15 322 -10 270 -10 c 0
 161 -10 100 56 100 150 c 2
 100 300 l 2xf780
 100 353 137 379 167 406 c 1
 161 405 156 405 150 405 c 0
 90 405 40 444 40 505 c 0xfb80
 40 566 90 610 150 610 c 0
 221 610 270 560 270 500 c 0
 270 403 190 380 190 300 c 2
 190 150 l 2xf780
 190 97 221 65 270 65 c 0
 319 65 350 97 350 150 c 2
 350 300 l 1
 440 300 l 1
 440 150 l 2
 440 97 471 65 520 65 c 0
 569 65 600 97 600 150 c 2
 600 840 l 1
 690 840 l 1
 690 150 l 2
 690 56 629 -10 520 -10 c 0
 468 -10 422 15 395 58 c 1
EndSplineSet
Layer: 3
SplineSet
366 58 m 1xfa
 330 15 279 -10 227 -10 c 0
 134 -10 87 38 87 110 c 0xfa
 87 122 88 136 91 150 c 2
 123 300 l 2
 134 353 177 379 212 406 c 1
 206 405 201 405 195 405 c 0
 142 405 104 435 104 483 c 0xf6
 104 490 104 497 106 505 c 0
 119 566 179 610 239 610 c 0
 301 610 338 572 338 523 c 0
 338 515 337 508 335 500 c 0
 315 403 230 380 213 300 c 2
 181 150 l 2
 179 141 178 133 178 126 c 0
 178 88 202 65 243 65 c 0
 292 65 330 97 341 150 c 2
 373 300 l 1
 463 300 l 1
 431 150 l 2
 429 141 428 133 428 126 c 0
 428 88 452 65 493 65 c 0
 542 65 580 97 591 150 c 2
 738 840 l 1
 828 840 l 1
 681 150 l 2
 661 56 586 -10 477 -10 c 0
 425 -10 384 15 366 58 c 1xfa
227 555 m 0
 199 555 172 533 166 505 c 0
 165 501 165 498 165 494 c 0xf6
 165 472 182 455 206 455 c 0
 234 455 260 477 266 505 c 0
 267 509 267 512 267 516 c 0
 267 539 251 555 227 555 c 0
EndSplineSet
Layer: 4
SplineSet
155 445 m 0xfb80
 183 445 205 467 205 495 c 0
 205 523 183 545 155 545 c 0
 127 545 105 523 105 495 c 0
 105 467 127 445 155 445 c 0xfb80
155 385 m 0
 87 385 30 425 30 495 c 0
 30 565 87 610 155 610 c 0
 235 610 300 554 300 480 c 0xfb80
 300 383 240 364 240 270 c 2
 240 150 l 2
 240 115 264 100 290 100 c 0
 316 100 340 115 340 150 c 2
 340 330 l 1
 470 330 l 1
 470 150 l 2
 470 115 494 100 520 100 c 0
 546 100 570 115 570 150 c 2
 570 840 l 1
 720 840 l 1
 720 150 l 2
 720 49 654 -10 540 -10 c 0
 485 -10 436 12 405 49 c 1
 374 12 325 -10 270 -10 c 0
 156 -10 90 49 90 150 c 2
 90 270 l 2xf580
 90 325 126 356 160 385 c 1
 159 385 157 385 155 385 c 0
EndSplineSet
Layer: 5
SplineSet
197 385 m 2xfa
 137 385 92 416 92 471 c 0xf6
 92 478 93 486 95 495 c 0
 110 565 177 610 245 610 c 0
 315 610 365 567 365 506 c 0
 365 498 364 489 362 480 c 0
 341 383 277 364 257 270 c 2
 232 150 l 2
 231 145 230 140 230 136 c 0
 230 111 249 100 271 100 c 0
 297 100 324 115 332 150 c 2
 370 330 l 1
 500 330 l 1
 462 150 l 2
 461 145 460 140 460 136 c 0
 460 111 479 100 501 100 c 0
 527 100 554 115 562 150 c 2
 709 840 l 1
 859 840 l 1
 712 150 l 2
 690 49 612 -10 498 -10 c 0
 443 -10 399 12 375 49 c 1
 337 12 283 -10 228 -10 c 0
 131 -10 77 33 77 108 c 0
 77 121 79 135 82 150 c 2
 107 270 l 2
 119 325 162 356 202 385 c 1
 197 385 l 2xfa
210 445 m 0
 238 445 264 467 270 495 c 0
 271 499 271 502 271 506 c 0
 271 529 255 545 231 545 c 0
 203 545 176 523 170 495 c 0
 169 491 169 488 169 484 c 0
 169 462 186 445 210 445 c 0
EndSplineSet
Colour: ffff00
EndChar

StartChar: uni0EA1
Encoding: 274 3745 18
Width: 700
VWidth: 0
Flags: HW
HStem: -10 110<316.393 447.556> -10 65<88.3675 175.378> 590 10G<185.778 247.5 563.75 718>
VStem: 9 77<58.0251 142.146> 194 151<425.132 519.996>
AnchorPoint: "normal-below" 360 -40 basechar 0
AnchorPoint: "normal-above" 360 640 basechar 0
LayerCount: 6
Back
Fore
SplineSet
190 610 m 1x78
 305 610 345 581 345 516 c 0
 345 500 342 481 338 460 c 2
 276 170 l 1
 298 132 331 100 381 100 c 0
 432 100 467 128 483 200 c 2
 568 600 l 1
 718 600 l 1
 633 200 l 2
 602 56 523 -10 418 -10 c 0xb8
 331 -10 282 33 254 79 c 1
 230 24 172 -10 113 -10 c 0
 53 -10 9 25 9 80 c 0
 9 88 10 96 12 105 c 0
 25 167 80 210 139 218 c 1
 139 224 139 231 141 240 c 2
 188 460 l 2
 192 478 194 490 194 500 c 0
 194 515 187 520 171 520 c 1
 190 610 l 1x78
148 155 m 0
 120 155 93 133 87 105 c 0
 86 101 86 98 86 94 c 0
 86 72 103 55 127 55 c 0x78
 155 55 181 77 187 105 c 0
 188 109 188 112 188 116 c 0
 188 139 172 155 148 155 c 0
EndSplineSet
Layer: 2
SplineSet
140 610 m 1x7680
 237 610 260 560 260 500 c 2x7680
 260 134 l 1
 291 96 336 65 410 65 c 0
 501 65 520 111 520 180 c 2
 520 600 l 1
 610 600 l 1
 610 180 l 2
 610 55 536 -10 430 -10 c 0xad80
 352 -10 290 27 255 63 c 1
 241 19 199 -10 150 -10 c 0
 90 -10 40 34 40 95 c 0
 40 156 90 200 150 200 c 0
 157 200 164 199 170 198 c 1
 170 500 l 2
 170 531 161 545 140 545 c 1
 140 610 l 1x7680
150 45 m 0
 178 45 200 67 200 95 c 0x6580
 200 123 178 145 150 145 c 0
 122 145 100 123 100 95 c 0
 100 67 122 45 150 45 c 0
EndSplineSet
Layer: 3
SplineSet
120 45 m 0x7c
 148 45 174 67 180 95 c 0
 181 99 181 102 181 106 c 0
 181 129 165 145 141 145 c 0
 113 145 86 123 80 95 c 0
 79 91 79 88 79 84 c 0
 79 62 96 45 120 45 c 0x7c
230 610 m 1
 307 610 330 579 330 536 c 0
 330 525 329 512 326 500 c 2
 248 134 l 1
 271 96 310 65 384 65 c 0
 475 65 504 111 518 180 c 2
 608 600 l 1
 698 600 l 1
 608 180 l 2
 582 55 494 -10 388 -10 c 0xbc
 310 -10 256 27 228 63 c 1
 205 19 157 -10 108 -10 c 0
 56 -10 18 24 18 73 c 0
 18 80 18 87 20 95 c 0
 33 156 93 200 153 200 c 0
 160 200 166 199 172 198 c 1
 236 500 l 2
 238 508 239 515 239 521 c 0
 239 537 231 545 216 545 c 1
 230 610 l 1
EndSplineSet
Layer: 4
SplineSet
155 155 m 0x7c
 127 155 105 133 105 105 c 0
 105 77 127 55 155 55 c 0
 183 55 205 77 205 105 c 0
 205 133 183 155 155 155 c 0x7c
100 610 m 1
 244 610 280 565 280 460 c 2
 280 170 l 1
 310 132 350 100 400 100 c 0
 451 100 480 128 480 200 c 2
 480 600 l 1
 630 600 l 1
 630 200 l 2
 630 56 565 -10 460 -10 c 0xbc
 373 -10 315 33 277 79 c 1
 265 24 214 -10 155 -10 c 0
 87 -10 30 35 30 105 c 0
 30 167 75 210 133 218 c 1
 131 224 130 231 130 240 c 2
 130 460 l 2
 130 508 126 520 100 520 c 1
 100 610 l 1
EndSplineSet
Layer: 5
SplineSet
190 610 m 1x78
 305 610 345 581 345 516 c 0
 345 500 342 481 338 460 c 2
 276 170 l 1
 298 132 331 100 381 100 c 0
 432 100 467 128 483 200 c 2
 568 600 l 1
 718 600 l 1
 633 200 l 2
 602 56 523 -10 418 -10 c 0xb8
 331 -10 282 33 254 79 c 1
 230 24 172 -10 113 -10 c 0
 53 -10 9 25 9 80 c 0
 9 88 10 96 12 105 c 0
 25 167 80 210 139 218 c 1
 139 224 139 231 141 240 c 2
 188 460 l 2
 192 478 194 490 194 500 c 0
 194 515 187 520 171 520 c 1
 190 610 l 1x78
148 155 m 0
 120 155 93 133 87 105 c 0
 86 101 86 98 86 94 c 0
 86 72 103 55 127 55 c 0x78
 155 55 181 77 187 105 c 0
 188 109 188 112 188 116 c 0
 188 139 172 155 148 155 c 0
EndSplineSet
Colour: ffff00
EndChar

StartChar: uni0EA2
Encoding: 275 3746 19
Width: 710
VWidth: 0
Flags: HW
HStem: -20 110<225.607 419.694> 255 70<247.375 359> 380 65<266.688 353.367> 545 65<276.373 364.003> 820 20G<624.746 779>
VStem: 45 152<117.028 220.353> 100 97<367.158 452.341> 366 77<458.394 542.286>
AnchorPoint: "left-above" 320 640 basechar 0
AnchorPoint: "normal-below" 350 -40 basechar 0
LayerCount: 6
Back
Fore
SplineSet
291 380 m 0xfb
 242 380 211 415 203 454 c 1
 201 450 200 445 199 440 c 0
 198 434 197 428 197 422 c 0xfb
 197 363 268 325 374 325 c 1
 359 255 l 1
 265 255 209 230 198 180 c 0
 197 175 197 171 197 166 c 0
 197 118 251 90 324 90 c 0
 404 90 480 139 495 210 c 2
 629 840 l 1
 779 840 l 1
 645 210 l 2
 618 85 494 -20 301 -20 c 0
 127 -20 45 69 45 153 c 0xfd
 45 162 46 171 48 180 c 0
 60 237 100 277 171 300 c 1
 128 326 100 363 100 410 c 0
 100 419 102 429 104 440 c 0
 129 558 235 610 340 610 c 0
 399 610 443 576 443 520 c 0
 443 512 442 504 440 495 c 0
 425 425 359 380 291 380 c 0xfb
305 445 m 0
 333 445 359 467 365 495 c 0
 366 499 366 502 366 506 c 0
 366 529 350 545 326 545 c 0
 298 545 271 523 265 495 c 0
 264 491 264 488 264 484 c 0
 264 462 281 445 305 445 c 0
EndSplineSet
Layer: 2
SplineSet
260 455 m 0xf980
 288 455 310 477 310 505 c 0
 310 533 288 555 260 555 c 0
 232 555 210 533 210 505 c 0
 210 477 232 455 260 455 c 0xf980
260 400 m 0
 206 400 164 440 156 492 c 1
 152 481 150 467 150 450 c 0xfb80
 150 374 244 315 345 315 c 1
 345 255 l 1
 259 255 170 245 170 180 c 0
 170 109 235 55 345 55 c 0
 455 55 520 109 520 180 c 2
 520 840 l 1
 610 840 l 1
 610 180 l 2
 610 55 490 -20 345 -20 c 0
 200 -20 80 65 80 180 c 0xfd80
 80 244 127 278 189 297 c 1
 126 332 80 387 80 450 c 0xfb80
 80 547 156 610 260 610 c 0
 320 610 370 566 370 505 c 0
 370 444 320 400 260 400 c 0
EndSplineSet
Layer: 3
SplineSet
305 400 m 0xfb80
 253 400 221 437 221 486 c 2
 221 492 l 1
 214 481 209 467 206 450 c 0
 204 443 204 437 204 430 c 0xfb80
 204 364 280 315 372 315 c 1
 359 255 l 1
 273 255 182 245 168 180 c 0
 166 172 166 165 166 157 c 0
 166 98 219 55 317 55 c 0
 427 55 503 109 518 180 c 2
 659 840 l 1
 749 840 l 1
 608 180 l 2
 582 55 446 -20 301 -20 c 0
 170 -20 74 49 74 147 c 0xfd80
 74 158 76 169 78 180 c 0
 92 244 146 278 212 297 c 1
 165 327 133 371 133 422 c 0
 133 431 134 441 136 450 c 0
 156 547 246 610 350 610 c 0
 402 610 439 577 439 527 c 0
 439 520 439 513 437 505 c 0
 424 444 365 400 305 400 c 0xfb80
317 455 m 0
 345 455 371 477 377 505 c 0
 378 509 378 512 378 516 c 0
 378 539 362 555 338 555 c 0
 310 555 283 533 277 505 c 0
 276 501 276 498 276 494 c 0
 276 472 293 455 317 455 c 0
EndSplineSet
Layer: 4
SplineSet
250 445 m 0xfd80
 278 445 300 467 300 495 c 0
 300 523 278 545 250 545 c 0
 222 545 200 523 200 495 c 0
 200 467 222 445 250 445 c 0xfd80
250 380 m 0
 201 380 163 415 146 454 c 1
 145 450 145 445 145 440 c 0xfb80
 145 370 229 325 345 325 c 1
 345 255 l 1
 251 255 200 230 200 180 c 0
 201 123 265 90 345 90 c 0
 425 90 490 139 490 210 c 2
 490 840 l 1
 640 840 l 1
 640 210 l 2
 640 85 538 -20 345 -20 c 0
 152 -20 50 89 50 180 c 0
 50 237 81 277 147 300 c 1
 89 331 50 378 50 440 c 0
 50 558 145 610 250 610 c 0
 318 610 375 565 375 495 c 0
 375 425 318 380 250 380 c 0
EndSplineSet
Layer: 5
SplineSet
291 380 m 0xfb
 242 380 211 415 203 454 c 1
 201 450 200 445 199 440 c 0
 198 434 197 428 197 422 c 0xfb
 197 363 268 325 374 325 c 1
 359 255 l 1
 265 255 209 230 198 180 c 0
 197 175 197 171 197 166 c 0
 197 118 251 90 324 90 c 0
 404 90 480 139 495 210 c 2
 629 840 l 1
 779 840 l 1
 645 210 l 2
 618 85 494 -20 301 -20 c 0
 127 -20 45 69 45 153 c 0xfd
 45 162 46 171 48 180 c 0
 60 237 100 277 171 300 c 1
 128 326 100 363 100 410 c 0
 100 419 102 429 104 440 c 0
 129 558 235 610 340 610 c 0
 399 610 443 576 443 520 c 0
 443 512 442 504 440 495 c 0
 425 425 359 380 291 380 c 0xfb
305 445 m 0
 333 445 359 467 365 495 c 0
 366 499 366 502 366 506 c 0
 366 529 350 545 326 545 c 0
 298 545 271 523 265 495 c 0
 264 491 264 488 264 484 c 0
 264 462 281 445 305 445 c 0
EndSplineSet
Colour: ffff00
EndChar

StartChar: uni0EA3
Encoding: 276 3747 20
Width: 680
VWidth: 0
Flags: HW
HStem: -20 95<248.861 432.458> 205 65<129.749 216.686> 510 110<300.534 505.844>
VStem: 41 76<109.095 191.606> 108 150<402.73 473.23> 219 77<117.925 201.975> 487 145<123.972 221.734> 538 141<400.492 478.574>
AnchorPoint: "normal-below" 350 -40 basechar 0
AnchorPoint: "normal-above" 340 640 basechar 0
LayerCount: 6
Back
Fore
SplineSet
192 270 m 0xf6
 252 270 296 235 296 180 c 0
 296 172 295 164 293 155 c 0
 286 124 270 99 247 82 c 1
 263 78 285 75 316 75 c 0
 412 75 473 107 486 170 c 0
 487 174 487 178 487 182 c 0xf6
 487 217 448 237 346 265 c 0
 232 297 108 313 108 404 c 0
 108 412 109 420 111 429 c 0
 134 538 277 620 432 620 c 0
 602 620 679 532 679 438 c 0
 679 425 678 413 675 400 c 1
 535 400 l 1
 537 408 538 416 538 423 c 0
 538 479 487 510 408 510 c 0
 322 510 265 469 259 440 c 0
 259 438 258 436 258 433 c 0xe9
 258 397 330 387 399 370 c 0
 550 333 632 303 632 217 c 0
 632 206 631 193 628 180 c 0
 602 57 467 -20 296 -20 c 0
 124 -20 41 58 41 134 c 0
 41 141 42 148 43 155 c 0
 58 225 124 270 192 270 c 0xf6
179 205 m 0
 151 205 124 183 118 155 c 0
 117 151 117 148 117 144 c 0
 117 121 133 105 157 105 c 0
 185 105 212 127 218 155 c 0
 219 159 219 162 219 166 c 0
 219 189 203 205 179 205 c 0
EndSplineSet
Layer: 2
SplineSet
335 620 m 0xf5
 475 620 590 545 590 420 c 1
 505 420 l 1
 505 491 438 550 335 550 c 0
 232 550 165 498 165 445 c 0xf6
 165 389 264 374 355 350 c 0
 460 322 600 292 600 165 c 0
 600 24 466 -20 335 -20 c 0
 233 -20 80 26 80 155 c 0xed
 80 216 130 260 190 260 c 0
 250 260 300 216 300 155 c 0
 300 108 270 74 229 61 c 1
 256 55 291 50 335 50 c 0
 436 50 510 88 510 155 c 0
 510 230 422 249 325 275 c 0
 241 297 80 315 80 435 c 0
 80 544 195 620 335 620 c 0xf5
190 205 m 0
 162 205 140 183 140 155 c 0xec
 140 127 162 105 190 105 c 0
 218 105 240 127 240 155 c 0
 240 183 218 205 190 205 c 0
EndSplineSet
Layer: 3
SplineSet
194 205 m 0xf4
 166 205 139 183 133 155 c 0
 132 151 132 148 132 144 c 0
 132 121 148 105 172 105 c 0
 200 105 227 127 233 155 c 0
 234 159 234 162 234 166 c 0
 234 189 218 205 194 205 c 0xf4
427 620 m 0
 551 620 643 561 643 460 c 0
 643 447 642 434 639 420 c 1
 554 420 l 1
 556 428 556 436 556 443 c 0
 556 503 504 550 412 550 c 0
 309 550 231 498 220 445 c 0
 219 442 219 439 219 436 c 0xed
 219 387 308 373 389 350 c 0
 479 324 599 297 599 197 c 0
 599 187 597 176 595 165 c 0
 565 24 422 -20 291 -20 c 0
 198 -20 70 19 70 124 c 0xf6
 70 134 71 144 73 155 c 0
 86 216 145 260 205 260 c 0
 257 260 295 226 295 177 c 0
 295 170 295 163 293 155 c 0
 283 108 246 74 202 61 c 1
 228 55 262 50 306 50 c 0
 407 50 489 88 503 155 c 0
 504 161 505 167 505 173 c 0
 505 233 427 251 343 275 c 0
 270 295 129 312 129 410 c 0xee
 129 418 130 426 132 435 c 0
 156 544 287 620 427 620 c 0
EndSplineSet
Layer: 4
SplineSet
175 205 m 0xf6
 147 205 125 183 125 155 c 0
 125 127 147 105 175 105 c 0
 203 105 225 127 225 155 c 0
 225 183 203 205 175 205 c 0xf6
175 270 m 0
 243 270 300 225 300 155 c 0
 300 124 289 99 270 82 c 1
 286 78 309 75 340 75 c 0
 436 75 490 107 490 170 c 0
 490 213 449 234 330 265 c 0
 198 300 60 316 60 429 c 0
 60 538 185 620 340 620 c 0
 533 620 630 507 630 400 c 1
 490 400 l 1
 490 471 429 510 340 510 c 0
 254 510 205 469 205 440 c 0xee
 205 398 284 388 360 370 c 0
 540 328 630 295 630 180 c 0
 630 57 511 -20 340 -20 c 0
 152 -20 50 73 50 155 c 0
 50 225 107 270 175 270 c 0
EndSplineSet
Layer: 5
SplineSet
192 270 m 0xf6
 252 270 296 235 296 180 c 0
 296 172 295 164 293 155 c 0
 286 124 270 99 247 82 c 1
 263 78 285 75 316 75 c 0
 412 75 473 107 486 170 c 0
 487 174 487 178 487 182 c 0xf6
 487 217 448 237 346 265 c 0
 232 297 108 313 108 404 c 0
 108 412 109 420 111 429 c 0
 134 538 277 620 432 620 c 0
 602 620 679 532 679 438 c 0
 679 425 678 413 675 400 c 1
 535 400 l 1
 537 408 538 416 538 423 c 0
 538 479 487 510 408 510 c 0
 322 510 265 469 259 440 c 0
 259 438 258 436 258 433 c 0xe9
 258 397 330 387 399 370 c 0
 550 333 632 303 632 217 c 0
 632 206 631 193 628 180 c 0
 602 57 467 -20 296 -20 c 0
 124 -20 41 58 41 134 c 0
 41 141 42 148 43 155 c 0
 58 225 124 270 192 270 c 0xf6
179 205 m 0
 151 205 124 183 118 155 c 0
 117 151 117 148 117 144 c 0
 117 121 133 105 157 105 c 0
 185 105 212 127 218 155 c 0
 219 159 219 162 219 166 c 0
 219 189 203 205 179 205 c 0
EndSplineSet
Colour: ffff00
EndChar

StartChar: uni0EA5
Encoding: 277 3749 21
Width: 690
VWidth: 0
Flags: HW
HStem: -20 60<133.505 213.994> 0 21G<390 496> 130 55<169.516 222.226> 200 90<169.958 326.434> 500 120<306.612 494.418>
VStem: 34 98<41.5447 120.583> 224 72<48.9978 127.407> 525 153<292.812 470.694>
AnchorPoint: "normal-below" 360 -40 basechar 0
AnchorPoint: "normal-above" 350 640 basechar 0
LayerCount: 6
Back
Fore
SplineSet
199 185 m 0x7f
 255 185 296 157 296 108 c 0
 296 101 295 93 293 85 c 0
 279 21 220 -20 156 -20 c 0xbf
 86 -20 34 28 34 97 c 0
 34 108 35 119 38 130 c 0
 58 227 163 290 262 290 c 0
 404 290 451 208 468 130 c 1
 523 390 l 2
 525 398 525 405 525 412 c 0
 525 464 484 500 406 500 c 0
 317 500 256 450 243 390 c 1
 93 390 l 1
 117 504 234 620 432 620 c 0
 605 620 678 533 678 434 c 0
 678 419 676 405 673 390 c 2
 607 80 l 2
 591 3 552 0 440 0 c 2
 390 0 l 1
 390 11 l 2
 390 90 368 200 233 200 c 0
 206 200 184 193 169 181 c 1
 179 184 189 185 199 185 c 0x7f
188 130 m 0
 163 130 138 110 133 85 c 0
 132 82 132 79 132 76 c 0
 132 55 147 40 169 40 c 0
 194 40 218 60 223 85 c 0
 224 88 224 91 224 94 c 0
 224 115 210 130 188 130 c 0
EndSplineSet
Layer: 2
SplineSet
210 135 m 0xbb80
 182 135 160 113 160 85 c 0
 160 57 182 35 210 35 c 0
 238 35 260 57 260 85 c 0
 260 113 238 135 210 135 c 0xbb80
220 185 m 0
 273 185 320 146 320 85 c 0
 320 24 270 -20 210 -20 c 0
 143 -20 80 34 80 120 c 0xbb80
 80 217 157 280 250 280 c 0
 404 280 459 151 483 60 c 1
 500 61 510 70 510 100 c 2
 510 420 l 2
 510 498 441 545 340 545 c 0
 239 545 170 498 170 420 c 1
 80 420 l 1
 80 534 191 620 340 620 c 0
 489 620 600 534 600 420 c 2
 600 100 l 2
 600 37 591 0 520 0 c 2
 430 0 l 1x7d80
 416 74 378 220 250 220 c 0
 200 220 164 194 151 160 c 1
 168 176 192 185 220 185 c 0
EndSplineSet
Layer: 3
SplineSet
219 185 m 0x7f
 265 185 301 156 301 108 c 0
 301 101 300 93 298 85 c 0
 285 24 226 -20 166 -20 c 0xbf
 108 -20 62 20 62 85 c 0
 62 96 63 108 66 120 c 0
 86 217 177 280 270 280 c 0
 424 280 451 151 456 60 c 1
 473 61 485 70 491 100 c 2
 559 420 l 2
 561 429 562 437 562 446 c 0
 562 508 505 545 416 545 c 0
 315 545 236 498 219 420 c 1
 129 420 l 1
 154 534 283 620 432 620 c 0
 565 620 653 552 653 456 c 0
 653 445 652 432 649 420 c 2
 581 100 l 2
 568 37 551 0 480 0 c 2
 390 0 l 1
 390 18 l 2
 390 95 375 220 257 220 c 0
 207 220 165 194 145 160 c 1
 165 176 191 185 219 185 c 0x7f
199 135 m 0
 171 135 144 113 138 85 c 0
 137 81 137 78 137 74 c 0
 137 51 153 35 177 35 c 0
 205 35 232 57 238 85 c 0
 239 89 239 92 239 96 c 0
 239 119 223 135 199 135 c 0
EndSplineSet
Layer: 4
SplineSet
200 130 m 0xbf
 175 130 155 110 155 85 c 0
 155 60 175 40 200 40 c 0
 225 40 245 60 245 85 c 0
 245 110 225 130 200 130 c 0xbf
200 185 m 0
 264 185 315 149 315 85 c 0
 315 21 264 -20 200 -20 c 0xbf
 119 -20 50 44 50 130 c 0
 50 227 141 290 240 290 c 0
 382 290 447 208 480 130 c 1
 480 390 l 2
 480 453 429 500 340 500 c 0
 251 500 200 450 200 390 c 1
 50 390 l 1
 50 504 142 620 340 620 c 0
 538 620 630 505 630 390 c 2
 630 80 l 2
 630 3 592 0 480 0 c 2
 430 0 l 1x7f
 415 79 371 200 230 200 c 0
 203 200 183 193 171 181 c 1
 180 184 190 185 200 185 c 0
EndSplineSet
Layer: 5
SplineSet
199 185 m 0x7f
 255 185 296 157 296 108 c 0
 296 101 295 93 293 85 c 0
 279 21 220 -20 156 -20 c 0xbf
 86 -20 34 28 34 97 c 0
 34 108 35 119 38 130 c 0
 58 227 163 290 262 290 c 0
 404 290 451 208 468 130 c 1
 523 390 l 2
 525 398 525 405 525 412 c 0
 525 464 484 500 406 500 c 0
 317 500 256 450 243 390 c 1
 93 390 l 1
 117 504 234 620 432 620 c 0
 605 620 678 533 678 434 c 0
 678 419 676 405 673 390 c 2
 607 80 l 2
 591 3 552 0 440 0 c 2
 390 0 l 1
 390 11 l 2
 390 90 368 200 233 200 c 0
 206 200 184 193 169 181 c 1
 179 184 189 185 199 185 c 0x7f
188 130 m 0
 163 130 138 110 133 85 c 0
 132 82 132 79 132 76 c 0
 132 55 147 40 169 40 c 0
 194 40 218 60 223 85 c 0
 224 88 224 91 224 94 c 0
 224 115 210 130 188 130 c 0
EndSplineSet
Colour: ffff00
EndChar

StartChar: uni0EA7
Encoding: 278 3751 22
Width: 660
VWidth: 0
Flags: HW
HStem: -20 95<255.792 397.337> 205 65<139.749 226.686> 500 120<292.44 469.649>
VStem: 50 77<107.916 191.606> 229 77<117.854 201.975> 496 152<293.125 474.767>
AnchorPoint: "normal-below" 330 -40 basechar 0
AnchorPoint: "normal-above" 330 640 basechar 0
LayerCount: 6
Back
Fore
SplineSet
202 270 m 0
 262 270 306 235 306 180 c 0
 306 172 305 164 303 155 c 0
 296 122 277 96 253 79 c 1
 266 76 284 75 306 75 c 0
 392 75 435 118 450 190 c 2
 493 390 l 2
 495 398 496 406 496 414 c 0
 496 465 459 500 386 500 c 0
 302 500 246 450 233 390 c 1
 83 390 l 1
 107 504 224 620 412 620 c 0
 576 620 648 533 648 434 c 0
 648 420 646 405 643 390 c 2
 600 190 l 2
 574 67 457 -20 286 -20 c 0
 132 -20 50 44 50 127 c 0
 50 136 51 146 53 155 c 0
 68 225 134 270 202 270 c 0
189 205 m 0
 161 205 134 183 128 155 c 0
 127 151 127 148 127 144 c 0
 127 121 143 105 167 105 c 0
 195 105 222 127 228 155 c 0
 229 159 229 162 229 166 c 0
 229 189 213 205 189 205 c 0
EndSplineSet
Layer: 2
SplineSet
200 205 m 0xee
 172 205 150 183 150 155 c 0
 150 127 172 105 200 105 c 0
 228 105 250 127 250 155 c 0
 250 183 228 205 200 205 c 0xee
200 260 m 0
 260 260 310 216 310 155 c 0
 310 106 278 72 235 60 c 1
 258 54 289 50 330 50 c 0
 419 50 480 103 480 180 c 2
 480 420 l 2
 480 491 423 545 320 545 c 0
 217 545 160 491 160 420 c 1
 70 420 l 1xf6
 70 535 180 620 320 620 c 0
 460 620 570 545 570 420 c 2
 570 180 l 2
 570 34 439 -20 330 -20 c 0
 228 -20 90 26 90 155 c 0
 90 216 140 260 200 260 c 0
EndSplineSet
Layer: 3
SplineSet
215 260 m 0xf6
 267 260 305 226 305 177 c 0
 305 170 305 163 303 155 c 0
 293 106 253 72 208 60 c 1
 229 54 260 50 301 50 c 0
 390 50 462 103 478 180 c 2
 529 420 l 2
 531 429 532 438 532 446 c 0
 532 504 486 545 396 545 c 0
 293 545 224 491 209 420 c 1
 119 420 l 1xee
 144 535 272 620 412 620 c 0
 536 620 624 561 624 461 c 0
 624 448 622 434 619 420 c 2
 568 180 l 2
 537 34 395 -20 286 -20 c 0
 193 -20 79 18 79 121 c 0
 79 132 81 143 83 155 c 0
 96 216 155 260 215 260 c 0xf6
204 205 m 0
 176 205 149 183 143 155 c 0
 142 151 142 148 142 144 c 0xf6
 142 121 158 105 182 105 c 0
 210 105 237 127 243 155 c 0
 244 159 244 162 244 166 c 0
 244 189 228 205 204 205 c 0
EndSplineSet
Layer: 4
SplineSet
185 205 m 0xee
 157 205 135 183 135 155 c 0
 135 127 157 105 185 105 c 0
 213 105 235 127 235 155 c 0
 235 183 213 205 185 205 c 0xee
185 270 m 0
 253 270 310 225 310 155 c 0
 310 122 297 96 276 79 c 1
 290 76 308 75 330 75 c 0
 416 75 450 118 450 190 c 2
 450 390 l 2
 450 453 404 500 320 500 c 0
 236 500 190 450 190 390 c 1
 40 390 l 1xf6
 40 504 132 620 320 620 c 0
 508 620 600 505 600 390 c 2
 600 190 l 2
 600 67 501 -20 330 -20 c 0
 159 -20 60 59 60 155 c 0
 60 225 117 270 185 270 c 0
EndSplineSet
Layer: 5
SplineSet
202 270 m 0
 262 270 306 235 306 180 c 0
 306 172 305 164 303 155 c 0
 296 122 277 96 253 79 c 1
 266 76 284 75 306 75 c 0
 392 75 435 118 450 190 c 2
 493 390 l 2
 495 398 496 406 496 414 c 0
 496 465 459 500 386 500 c 0
 302 500 246 450 233 390 c 1
 83 390 l 1
 107 504 224 620 412 620 c 0
 576 620 648 533 648 434 c 0
 648 420 646 405 643 390 c 2
 600 190 l 2
 574 67 457 -20 286 -20 c 0
 132 -20 50 44 50 127 c 0
 50 136 51 146 53 155 c 0
 68 225 134 270 202 270 c 0
189 205 m 0
 161 205 134 183 128 155 c 0
 127 151 127 148 127 144 c 0
 127 121 143 105 167 105 c 0
 195 105 222 127 228 155 c 0
 229 159 229 162 229 166 c 0
 229 189 213 205 189 205 c 0
EndSplineSet
Colour: ffff00
EndChar

StartChar: uni0EAA
Encoding: 279 3754 23
Width: 700
VWidth: 0
Flags: HW
HStem: -20 60<133.505 213.994> 0 21G<390 496> 130 55<169.516 222.226> 200 90<169.958 326.434> 330 80<244.59 519.284> 520 100<289.626 512.81>
VStem: 34 98<41.5447 120.583> 104 132<425.87 479.972> 224 72<48.9472 128.171>
AnchorPoint: "normal-below" 360 -40 basechar 0
AnchorPoint: "normal-above" 360 640 basechar 0
LayerCount: 6
Back
Fore
SplineSet
411 520 m 0x3d
 326 520 242 481 236 450 c 1
 236 448 l 2
 236 425 303 410 387 410 c 0
 459 410 519 426 559 443 c 1
 541 488 486 520 411 520 c 0x3d
188 130 m 0
 163 130 138 110 133 85 c 0
 132 82 132 79 132 76 c 0
 132 55 147 40 169 40 c 0
 194 40 218 60 223 85 c 0
 224 88 224 91 224 94 c 0xbe80
 224 115 210 130 188 130 c 0
610 660 m 1
 730 660 l 1
 607 80 l 2
 591 3 552 0 440 0 c 2
 390 0 l 1x7d
 390 11 l 2
 390 90 368 200 233 200 c 0
 206 200 184 193 169 181 c 1
 179 184 189 185 199 185 c 0
 255 185 296 157 296 108 c 0
 296 101 295 93 293 85 c 0
 279 21 220 -20 156 -20 c 0
 86 -20 34 28 34 97 c 0xbe80
 34 108 35 119 38 130 c 0
 58 227 163 290 262 290 c 0
 404 290 451 208 468 130 c 1
 508 320 l 2
 511 336 520 349 531 360 c 1
 486 344 431 330 370 330 c 0
 243 330 104 362 104 436 c 0xbd
 104 441 105 445 106 450 c 0
 120 517 248 620 432 620 c 0
 511 620 562 595 594 559 c 1
 593 568 593 579 595 590 c 2
 610 660 l 1
EndSplineSet
Layer: 2
SplineSet
220 135 m 0xbd80
 192 135 170 113 170 85 c 0
 170 57 192 35 220 35 c 0
 248 35 270 57 270 85 c 0
 270 113 248 135 220 135 c 0xbd80
230 185 m 0
 283 185 330 146 330 85 c 0
 330 24 280 -20 220 -20 c 0
 153 -20 90 34 90 120 c 0
 90 217 167 280 260 280 c 0
 414 280 469 151 493 60 c 1
 510 61 520 70 520 100 c 2
 520 360 l 2xbdc0
 520 371 523 380 526 386 c 1
 481 365 417 345 340 345 c 0
 205 345 80 391 80 455 c 0
 80 539 200 620 340 620 c 0
 423 620 492 589 535 542 c 1
 532 551 530 560 530 570 c 2
 530 660 l 1
 610 660 l 1xbea0
 610 100 l 2xbcc0
 610 37 601 0 530 0 c 2
 440 0 l 1x7ca0
 426 74 388 220 260 220 c 0
 210 220 174 194 161 160 c 1
 178 176 202 185 230 185 c 0
528 455 m 1
 505 509 432 550 340 550 c 0
 231 550 170 489 170 460 c 0x3e80
 170 436 241 405 340 405 c 0
 431 405 495 434 528 455 c 1
EndSplineSet
Layer: 3
SplineSet
585 455 m 1x3d80
 573 509 509 550 417 550 c 0
 308 550 234 489 228 460 c 1
 228 457 l 2
 228 434 291 405 386 405 c 0
 477 405 547 434 585 455 c 1x3d80
229 185 m 0
 275 185 311 156 311 108 c 0
 311 101 310 93 308 85 c 0
 295 24 236 -20 176 -20 c 0
 118 -20 72 20 72 85 c 0xbe80
 72 96 73 108 76 120 c 0
 96 217 187 280 280 280 c 0
 434 280 461 151 466 60 c 1
 483 61 495 70 501 100 c 2
 557 360 l 2
 559 371 564 380 568 386 c 1
 519 365 450 345 373 345 c 0
 246 345 136 386 136 445 c 0
 136 448 136 451 137 455 c 0
 155 539 292 620 432 620 c 0
 515 620 577 589 610 542 c 1
 609 551 609 560 611 570 c 2
 630 660 l 1
 710 660 l 1
 591 100 l 2
 578 37 561 0 490 0 c 2
 400 0 l 1x7d80
 400 18 l 2
 400 95 385 220 267 220 c 0
 217 220 175 194 155 160 c 1
 175 176 201 185 229 185 c 0
209 135 m 0
 181 135 154 113 148 85 c 0
 147 81 147 78 147 74 c 0
 147 51 163 35 187 35 c 0
 215 35 242 57 248 85 c 0
 249 89 249 92 249 96 c 0
 249 119 233 135 209 135 c 0
EndSplineSet
Layer: 4
SplineSet
510 660 m 1xbea0
 630 660 l 1
 630 80 l 2xbea0
 630 3 592 0 480 0 c 2
 430 0 l 1x7cc0
 415 79 371 200 230 200 c 0
 203 200 183 193 171 181 c 1
 180 184 190 185 200 185 c 0
 264 185 315 149 315 85 c 0
 315 21 264 -20 200 -20 c 0
 119 -20 50 44 50 130 c 0
 50 227 141 290 240 290 c 0
 382 290 447 208 480 130 c 1
 480 320 l 2xbdc0
 480 336 486 349 494 360 c 1
 453 344 401 330 340 330 c 0
 205 330 50 366 50 450 c 0
 50 517 156 620 340 620 c 0
 419 620 476 595 515 559 c 1
 512 568 510 579 510 590 c 2
 510 660 l 1xbea0
200 130 m 0
 175 130 155 110 155 85 c 0xbd80
 155 60 175 40 200 40 c 0
 225 40 245 60 245 85 c 0
 245 110 225 130 200 130 c 0
340 520 m 0
 255 520 180 481 180 450 c 0x3e80
 180 426 253 410 340 410 c 0
 412 410 468 426 505 443 c 1
 477 488 415 520 340 520 c 0
EndSplineSet
Layer: 5
SplineSet
411 520 m 0x3d
 326 520 242 481 236 450 c 1
 236 448 l 2
 236 425 303 410 387 410 c 0
 459 410 519 426 559 443 c 1
 541 488 486 520 411 520 c 0x3d
188 130 m 0
 163 130 138 110 133 85 c 0
 132 82 132 79 132 76 c 0
 132 55 147 40 169 40 c 0
 194 40 218 60 223 85 c 0
 224 88 224 91 224 94 c 0xbe80
 224 115 210 130 188 130 c 0
610 660 m 1
 730 660 l 1
 607 80 l 2
 591 3 552 0 440 0 c 2
 390 0 l 1x7d
 390 11 l 2
 390 90 368 200 233 200 c 0
 206 200 184 193 169 181 c 1
 179 184 189 185 199 185 c 0
 255 185 296 157 296 108 c 0
 296 101 295 93 293 85 c 0
 279 21 220 -20 156 -20 c 0
 86 -20 34 28 34 97 c 0xbe80
 34 108 35 119 38 130 c 0
 58 227 163 290 262 290 c 0
 404 290 451 208 468 130 c 1
 508 320 l 2
 511 336 520 349 531 360 c 1
 486 344 431 330 370 330 c 0
 243 330 104 362 104 436 c 0xbd
 104 441 105 445 106 450 c 0
 120 517 248 620 432 620 c 0
 511 620 562 595 594 559 c 1
 593 568 593 579 595 590 c 2
 610 660 l 1
EndSplineSet
Colour: ffff00
EndChar

StartChar: uni0EAB
Encoding: 280 3755 24
Width: 830
VWidth: 0
Flags: HW
HStem: -10 110<234.029 338.645> 0 21G<580 734.255> 385 60<172.661 202> 480 120<636.5 785.5> 545 65<182.133 268.149 449.525 540.661>
VStem: 79 152<105.356 186> 92 77<449.24 531.606> 271 94<458.621 540.734> 374 66<452.608 536.145> 542 67<517 547.062> 674 162<377.578 552.521>
AnchorPoint: "normal-below" 520 -40 basechar 0
AnchorPoint: "normal-above" 420 640 basechar 0
LayerCount: 6
Back
Fore
SplineSet
197 385 m 2xb5e0
 137 385 92 416 92 471 c 0
 92 478 93 486 95 495 c 0
 110 565 177 610 245 610 c 0xabe0
 315 610 365 567 365 506 c 0
 365 498 364 489 362 480 c 0x33e0
 341 383 277 364 257 270 c 2
 232 150 l 2
 231 146 231 142 231 139 c 0
 231 111 257 100 281 100 c 0
 308 100 344 114 352 150 c 2
 399 370 l 2
 402 384 407 396 412 405 c 1
 389 420 374 444 374 477 c 0
 374 484 374 492 376 500 c 0
 391 570 458 610 515 610 c 0xade0
 565 610 609 578 609 523 c 2
 609 517 l 1
 649 554 699 600 758 600 c 0
 813 600 836 571 836 520 c 0
 836 505 834 489 830 470 c 2
 730 0 l 1
 580 0 l 1x75e0
 669 420 l 2
 672 434 674 445 674 454 c 0
 674 472 667 480 652 480 c 0
 621 480 570 419 537 407 c 1
 482 150 l 2
 461 52 363 -10 253 -10 c 0
 155 -10 79 40 79 120 c 0
 79 130 80 140 82 150 c 2
 107 270 l 2
 119 325 162 356 202 385 c 1
 197 385 l 2xb5e0
210 445 m 0
 238 445 264 467 270 495 c 0
 271 499 271 502 271 506 c 0
 271 529 255 545 231 545 c 0x2de0
 203 545 176 523 170 495 c 0
 169 491 169 488 169 484 c 0
 169 462 186 445 210 445 c 0
502 550 m 0
 474 550 447 528 441 500 c 0
 440 496 440 493 440 489 c 0
 440 467 457 450 481 450 c 0
 509 450 535 472 541 500 c 0
 542 504 542 507 542 511 c 0
 542 534 526 550 502 550 c 0
EndSplineSet
Layer: 2
SplineSet
415 560 m 0x21e0
 387 560 365 538 365 510 c 0
 365 482 387 460 415 460 c 0
 443 460 465 482 465 510 c 0
 465 538 443 560 415 560 c 0x21e0
160 555 m 0x2de0
 132 555 110 533 110 505 c 0
 110 477 132 455 160 455 c 0
 188 455 210 477 210 505 c 0
 210 533 188 555 160 555 c 0x2de0
520 517 m 1
 546 556 576 600 630 600 c 0
 681 600 730 561 730 480 c 2
 730 0 l 1
 640 0 l 1x73e0
 640 460 l 2
 640 501 630 525 600 525 c 0
 552 525 524 437 470 418 c 1
 470 130 l 2
 470 41 395 -10 290 -10 c 0
 185 -10 110 40 110 130 c 2
 110 300 l 2xb3e0
 110 353 147 379 177 406 c 1
 171 405 166 405 160 405 c 0
 100 405 50 444 50 505 c 0xb5e0
 50 566 100 610 160 610 c 0
 231 610 280 560 280 500 c 0
 280 403 200 380 200 300 c 2
 200 130 l 2
 200 85 248 65 290 65 c 0xabe0
 332 65 380 85 380 130 c 2
 380 416 l 1
 343 430 310 463 310 510 c 0
 310 571 363 610 415 610 c 0
 465 610 516 574 520 517 c 1
EndSplineSet
Layer: 3
SplineSet
590 517 m 1xade0
 624 556 664 600 718 600 c 0
 761 600 796 572 796 516 c 0
 796 505 795 493 792 480 c 2
 690 0 l 1
 600 0 l 1x75e0
 698 460 l 2
 700 472 702 482 702 491 c 0
 702 513 693 525 672 525 c 0
 624 525 577 437 519 418 c 1
 458 130 l 2
 439 41 353 -10 248 -10 c 0
 155 -10 95 29 95 100 c 0xb5e0
 95 109 96 119 98 130 c 2
 134 300 l 2
 145 353 188 379 223 406 c 1
 217 405 212 405 206 405 c 0
 153 405 115 435 115 483 c 0xb3e0
 115 490 115 497 117 505 c 0
 130 566 190 610 250 610 c 0
 312 610 349 572 349 523 c 0
 349 515 348 508 346 500 c 0
 326 403 241 380 224 300 c 2
 188 130 l 2
 187 126 187 121 187 118 c 0
 187 81 226 65 264 65 c 0
 306 65 358 85 368 130 c 2
 428 416 l 1
 399 428 376 454 376 490 c 0
 376 496 377 503 378 510 c 0
 391 571 453 610 505 610 c 0
 551 610 591 580 591 530 c 0
 591 526 591 522 590 517 c 1xade0
238 555 m 0x2be0
 210 555 183 533 177 505 c 0
 176 501 176 498 176 494 c 0
 176 472 193 455 217 455 c 0
 245 455 271 477 277 505 c 0
 278 509 278 512 278 516 c 0
 278 539 262 555 238 555 c 0x2be0
494 560 m 0
 466 560 439 538 433 510 c 0
 432 506 432 503 432 499 c 0
 432 477 449 460 473 460 c 0
 501 460 527 482 533 510 c 0
 534 514 534 517 534 521 c 0
 534 544 518 560 494 560 c 0
EndSplineSet
Layer: 4
SplineSet
425 550 m 0x20a0
 397 550 375 528 375 500 c 0
 375 472 397 450 425 450 c 0
 453 450 475 472 475 500 c 0
 475 528 453 550 425 550 c 0x20a0
155 445 m 0
 183 445 205 467 205 495 c 0
 205 523 183 545 155 545 c 0
 127 545 105 523 105 495 c 0x2d20
 105 467 127 445 155 445 c 0
155 385 m 0
 87 385 30 425 30 495 c 0
 30 565 87 610 155 610 c 0xac20
 235 610 300 554 300 480 c 0x3520
 300 383 240 364 240 270 c 2
 240 150 l 2x3220
 240 114 273 100 300 100 c 0
 327 100 360 114 360 150 c 2
 360 370 l 2xb160
 360 384 363 396 366 405 c 1
 334 423 310 455 310 500 c 0
 310 570 368 610 425 610 c 0xa8a0
 477 610 530 576 539 517 c 1
 571 554 611 600 670 600 c 0
 741 600 770 551 770 470 c 2
 770 0 l 1
 620 0 l 1x70a0
 620 420 l 2
 620 461 613 480 590 480 c 0
 559 480 521 419 490 407 c 1
 490 150 l 2
 490 52 405 -10 295 -10 c 0
 185 -10 90 52 90 150 c 2
 90 270 l 2xb260
 90 325 126 356 160 385 c 1
 159 385 157 385 155 385 c 0
EndSplineSet
Layer: 5
SplineSet
197 385 m 2xb5e0
 137 385 92 416 92 471 c 0
 92 478 93 486 95 495 c 0
 110 565 177 610 245 610 c 0xabe0
 315 610 365 567 365 506 c 0
 365 498 364 489 362 480 c 0x33e0
 341 383 277 364 257 270 c 2
 232 150 l 2
 231 146 231 142 231 139 c 0
 231 111 257 100 281 100 c 0
 308 100 344 114 352 150 c 2
 399 370 l 2
 402 384 407 396 412 405 c 1
 389 420 374 444 374 477 c 0
 374 484 374 492 376 500 c 0
 391 570 458 610 515 610 c 0xade0
 565 610 609 578 609 523 c 2
 609 517 l 1
 649 554 699 600 758 600 c 0
 813 600 836 571 836 520 c 0
 836 505 834 489 830 470 c 2
 730 0 l 1
 580 0 l 1x75e0
 669 420 l 2
 672 434 674 445 674 454 c 0
 674 472 667 480 652 480 c 0
 621 480 570 419 537 407 c 1
 482 150 l 2
 461 52 363 -10 253 -10 c 0
 155 -10 79 40 79 120 c 0
 79 130 80 140 82 150 c 2
 107 270 l 2
 119 325 162 356 202 385 c 1
 197 385 l 2xb5e0
210 445 m 0
 238 445 264 467 270 495 c 0
 271 499 271 502 271 506 c 0
 271 529 255 545 231 545 c 0x2de0
 203 545 176 523 170 495 c 0
 169 491 169 488 169 484 c 0
 169 462 186 445 210 445 c 0
502 550 m 0
 474 550 447 528 441 500 c 0
 440 496 440 493 440 489 c 0
 440 467 457 450 481 450 c 0
 509 450 535 472 541 500 c 0
 542 504 542 507 542 511 c 0
 542 534 526 550 502 550 c 0
EndSplineSet
Colour: ffff00
EndChar

StartChar: uni0EAD
Encoding: 281 3757 25
Width: 690
VWidth: 0
Flags: HW
HStem: -20 95<246.75 415.892> 205 65<129.749 216.686> 330 80<244.59 520.387> 520 100<289.626 505.421>
VStem: 41 76<107.633 191.606> 104 132<425.87 479.972> 219 77<117.925 201.975>
AnchorPoint: "normal-below" 350 -40 basechar 0
AnchorPoint: "normal-above" 350 640 basechar 0
LayerCount: 6
Back
Fore
SplineSet
551 440 m 1xf4
 534 486 480 520 411 520 c 0
 326 520 242 481 236 450 c 1
 236 448 l 2
 236 425 303 410 387 410 c 0
 454 410 510 424 551 440 c 1xf4
192 270 m 0
 252 270 296 235 296 180 c 0xfa
 296 172 295 164 293 155 c 0
 286 124 269 99 246 82 c 1
 264 78 286 75 316 75 c 0
 412 75 467 128 480 190 c 2
 508 320 l 2
 511 335 517 347 523 357 c 1
 481 342 428 330 370 330 c 0
 243 330 104 362 104 436 c 0xf4
 104 441 105 445 106 450 c 0
 120 517 248 620 432 620 c 0
 605 620 678 533 678 434 c 0
 678 419 676 405 673 390 c 2
 630 190 l 1
 601 50 467 -20 296 -20 c 0
 139 -20 41 46 41 131 c 0xfa
 41 139 41 147 43 155 c 0
 58 225 124 270 192 270 c 0
179 205 m 0
 151 205 124 183 118 155 c 0
 117 151 117 148 117 144 c 0
 117 121 133 105 157 105 c 0
 185 105 212 127 218 155 c 0
 219 159 219 162 219 166 c 0
 219 189 203 205 179 205 c 0
EndSplineSet
Layer: 2
SplineSet
190 205 m 0xf7
 162 205 140 183 140 155 c 0
 140 127 162 105 190 105 c 0
 218 105 240 127 240 155 c 0
 240 183 218 205 190 205 c 0xf7
190 260 m 0
 250 260 300 216 300 155 c 0
 300 110 272 76 233 62 c 1
 260 56 295 50 340 50 c 0
 441 50 510 97 510 170 c 2
 510 350 l 2
 510 361 511 371 513 380 c 1
 469 362 410 345 340 345 c 0
 205 345 80 391 80 455 c 0xfb
 80 539 200 620 340 620 c 0
 480 620 600 545 600 420 c 2
 600 170 l 2
 600 45 471 -20 340 -20 c 0
 208 -20 80 49 80 155 c 0
 80 216 130 260 190 260 c 0
516 448 m 1
 499 506 429 550 340 550 c 0
 231 550 170 489 170 460 c 0
 170 436 241 405 340 405 c 0
 421 405 480 428 516 448 c 1
EndSplineSet
Layer: 3
SplineSet
571 448 m 1
 567 506 506 550 417 550 c 0
 308 550 234 489 228 460 c 1
 228 457 l 2
 228 434 291 405 386 405 c 0
 467 405 531 428 571 448 c 1
205 260 m 0
 257 260 295 226 295 177 c 0
 295 170 295 163 293 155 c 0
 283 110 248 76 206 62 c 1
 232 56 266 50 311 50 c 0
 412 50 491 97 506 170 c 2
 544 350 l 2
 547 361 550 371 554 380 c 1
 506 362 443 345 373 345 c 0
 246 345 136 386 136 445 c 0
 136 448 136 451 137 455 c 0
 155 539 292 620 432 620 c 0
 557 620 653 560 653 458 c 0
 653 446 652 433 649 420 c 2
 596 170 l 2
 570 45 427 -20 296 -20 c 0
 176 -20 70 37 70 128 c 0
 70 137 71 146 73 155 c 0
 86 216 145 260 205 260 c 0
194 205 m 0
 166 205 139 183 133 155 c 0
 132 151 132 148 132 144 c 0
 132 121 148 105 172 105 c 0
 200 105 227 127 233 155 c 0
 234 159 234 162 234 166 c 0
 234 189 218 205 194 205 c 0
EndSplineSet
Layer: 4
SplineSet
175 205 m 0xf7
 147 205 125 183 125 155 c 0
 125 127 147 105 175 105 c 0
 203 105 225 127 225 155 c 0
 225 183 203 205 175 205 c 0xf7
175 270 m 0
 243 270 300 225 300 155 c 0
 300 124 288 99 269 82 c 1
 287 78 310 75 340 75 c 0
 436 75 480 128 480 190 c 2
 480 320 l 2
 480 335 483 347 487 357 c 1
 448 342 398 330 340 330 c 0
 205 330 50 366 50 450 c 0xfb
 50 517 156 620 340 620 c 0
 538 620 630 505 630 390 c 2
 630 190 l 2
 630 50 511 -20 340 -20 c 0
 169 -20 50 59 50 155 c 0
 50 225 107 270 175 270 c 0
497 440 m 1
 471 486 409 520 340 520 c 0
 255 520 180 481 180 450 c 0
 180 426 253 410 340 410 c 0
 407 410 460 424 497 440 c 1
EndSplineSet
Layer: 5
SplineSet
551 440 m 1xf4
 534 486 480 520 411 520 c 0
 326 520 242 481 236 450 c 1
 236 448 l 2
 236 425 303 410 387 410 c 0
 454 410 510 424 551 440 c 1xf4
192 270 m 0
 252 270 296 235 296 180 c 0xfa
 296 172 295 164 293 155 c 0
 286 124 269 99 246 82 c 1
 264 78 286 75 316 75 c 0
 412 75 467 128 480 190 c 2
 508 320 l 2
 511 335 517 347 523 357 c 1
 481 342 428 330 370 330 c 0
 243 330 104 362 104 436 c 0xf4
 104 441 105 445 106 450 c 0
 120 517 248 620 432 620 c 0
 605 620 678 533 678 434 c 0
 678 419 676 405 673 390 c 2
 630 190 l 1
 601 50 467 -20 296 -20 c 0
 139 -20 41 46 41 131 c 0xfa
 41 139 41 147 43 155 c 0
 58 225 124 270 192 270 c 0
179 205 m 0
 151 205 124 183 118 155 c 0
 117 151 117 148 117 144 c 0
 117 121 133 105 157 105 c 0
 185 105 212 127 218 155 c 0
 219 159 219 162 219 166 c 0
 219 189 203 205 179 205 c 0
EndSplineSet
Colour: ffff00
EndChar

StartChar: uni0EAE
Encoding: 282 3758 26
Width: 700
VWidth: 0
Flags: HW
HStem: -20 95<258.861 435.561> 205 65<139.749 226.686> 515 105<287.644 509.084> 580 20G<633.714 728>
VStem: 51 76<109.095 191.606> 114 153<375.546 492.022> 229 77<117.925 201.975> 500 144<135.175 229.46> 593 90<390 429.2>
AnchorPoint: "normal-below" 360 -40 basechar 0
AnchorPoint: "normal-above" 350 640 basechar 0
LayerCount: 6
Back
Fore
SplineSet
638 600 m 1xd5
 728 600 l 1xd5
 683 390 l 1
 593 390 l 1
 584 449 513 515 389 515 c 0
 331 515 275 496 268 460 c 0
 267 457 267 454 267 451 c 0xe480
 267 424 303 416 412 385 c 0
 542 348 644 313 644 221 c 0
 644 212 642 201 640 190 c 0
 614 67 477 -20 306 -20 c 0
 134 -20 51 58 51 134 c 0
 51 141 52 148 53 155 c 0
 68 225 134 270 202 270 c 0
 262 270 306 235 306 180 c 0xeb
 306 172 305 164 303 155 c 0
 296 124 280 99 257 82 c 1
 273 78 295 75 326 75 c 0
 422 75 485 117 498 180 c 0
 499 185 500 189 500 193 c 0
 500 230 459 246 358 275 c 0
 237 310 114 329 114 426 c 0
 114 435 115 445 117 455 c 0
 136 545 264 620 412 620 c 0xe5
 533 620 594 555 621 493 c 1
 620 505 620 517 623 530 c 2
 638 600 l 1xd5
189 205 m 0
 161 205 134 183 128 155 c 0
 127 151 127 148 127 144 c 0
 127 121 143 105 167 105 c 0
 195 105 222 127 228 155 c 0
 229 159 229 162 229 166 c 0xca
 229 189 213 205 189 205 c 0
EndSplineSet
Layer: 2
SplineSet
550 600 m 1xda80
 610 600 l 1xda80
 610 390 l 1
 560 390 l 1
 540 425 477 545 310 545 c 0
 224 545 180 511 180 470 c 0xea80
 180 415 257 399 370 365 c 0
 490 329 610 283 610 170 c 0
 610 45 481 -20 350 -20 c 0
 218 -20 90 49 90 155 c 0xe7
 90 216 140 260 200 260 c 0
 260 260 310 216 310 155 c 0
 310 110 282 76 243 62 c 1
 270 56 305 50 350 50 c 0
 451 50 520 97 520 170 c 0
 520 229 453 263 340 295 c 0
 237 324 90 351 90 470 c 0
 90 557 176 620 310 620 c 0xeb
 443 620 521 539 558 489 c 1
 554 502 550 520 550 540 c 2
 550 600 l 1xda80
200 205 m 0
 172 205 150 183 150 155 c 0xc6
 150 127 172 105 200 105 c 0
 228 105 250 127 250 155 c 0
 250 183 228 205 200 205 c 0
EndSplineSet
Layer: 3
SplineSet
204 205 m 0xcf
 176 205 149 183 143 155 c 0
 142 151 142 148 142 144 c 0
 142 121 158 105 182 105 c 0
 210 105 237 127 243 155 c 0
 244 159 244 162 244 166 c 0
 244 189 228 205 204 205 c 0xcf
638 600 m 1xdf
 698 600 l 1xdf
 653 390 l 1
 603 390 l 1
 590 425 553 545 386 545 c 0
 300 545 249 511 240 470 c 0
 239 466 239 462 239 459 c 0
 239 413 310 397 408 365 c 0
 509 332 609 292 609 200 c 0
 609 191 608 181 606 170 c 0
 580 45 437 -20 306 -20 c 0
 186 -20 80 37 80 128 c 0
 80 137 81 146 83 155 c 0
 96 216 155 260 215 260 c 0
 267 260 305 226 305 177 c 0
 305 170 305 163 303 155 c 0
 293 110 258 76 216 62 c 1
 242 56 276 50 321 50 c 0
 422 50 501 97 516 170 c 0
 517 175 518 180 518 185 c 0
 518 235 459 266 363 295 c 0
 274 322 147 347 147 443 c 0
 147 452 148 461 150 470 c 0
 168 557 268 620 402 620 c 0xef
 535 620 596 539 622 489 c 1
 622 493 621 498 621 504 c 0
 621 514 622 527 625 540 c 2
 638 600 l 1xdf
EndSplineSet
Layer: 4
SplineSet
185 205 m 0xc6
 157 205 135 183 135 155 c 0
 135 127 157 105 185 105 c 0
 213 105 235 127 235 155 c 0
 235 183 213 205 185 205 c 0xc6
550 600 m 1xda80
 640 600 l 1xda80
 640 390 l 1
 550 390 l 1
 529 449 444 515 320 515 c 0
 262 515 210 496 210 460 c 0xea80
 210 425 243 419 370 385 c 0
 523 344 640 305 640 190 c 0
 640 67 521 -20 350 -20 c 0
 162 -20 60 73 60 155 c 0xe7
 60 225 117 270 185 270 c 0
 253 270 310 225 310 155 c 0
 310 124 299 99 280 82 c 1
 296 78 319 75 350 75 c 0
 446 75 500 117 500 180 c 0
 500 226 459 243 340 275 c 0
 199 313 60 332 60 455 c 0
 60 545 172 620 320 620 c 0xeb
 441 620 516 555 556 493 c 1
 553 505 550 517 550 530 c 2
 550 600 l 1xda80
EndSplineSet
Layer: 5
SplineSet
638 600 m 1xd5
 728 600 l 1xd5
 683 390 l 1
 593 390 l 1
 584 449 513 515 389 515 c 0
 331 515 275 496 268 460 c 0
 267 457 267 454 267 451 c 0xe480
 267 424 303 416 412 385 c 0
 542 348 644 313 644 221 c 0
 644 212 642 201 640 190 c 0
 614 67 477 -20 306 -20 c 0
 134 -20 51 58 51 134 c 0
 51 141 52 148 53 155 c 0
 68 225 134 270 202 270 c 0
 262 270 306 235 306 180 c 0xeb
 306 172 305 164 303 155 c 0
 296 124 280 99 257 82 c 1
 273 78 295 75 326 75 c 0
 422 75 485 117 498 180 c 0
 499 185 500 189 500 193 c 0
 500 230 459 246 358 275 c 0
 237 310 114 329 114 426 c 0
 114 435 115 445 117 455 c 0
 136 545 264 620 412 620 c 0xe5
 533 620 594 555 621 493 c 1
 620 505 620 517 623 530 c 2
 638 600 l 1xd5
189 205 m 0
 161 205 134 183 128 155 c 0
 127 151 127 148 127 144 c 0
 127 121 143 105 167 105 c 0
 195 105 222 127 228 155 c 0
 229 159 229 162 229 166 c 0xca
 229 189 213 205 189 205 c 0
EndSplineSet
Colour: ffff00
EndChar

StartChar: uni0EB0
Encoding: 283 3760 27
Width: 600
VWidth: 0
Flags: HW
HStem: 40 95<237.516 408.182> 40 80<106.054 178.579> 200 60<109.774 184.288> 380 95<309.516 480.28> 380 80<178.054 250.979> 540 60<182.158 255.643>
VStem: 31 72<122.409 191.984> 103 72<461.102 531.984> 185 66<128.56 199.268> 257 66<468.56 537.984>
LayerCount: 6
Back
Fore
SplineSet
238 600 m 0x35c0
 291 600 323 566 323 522 c 0
 323 515 323 507 321 500 c 0
 319 489 315 478 309 468 c 1
 320 472 331 475 341 475 c 2
 411 475 l 2
 465 475 495 493 511 570 c 1
 631 570 l 1
 604 440 523 380 421 380 c 2x35c0
 231 380 l 2x2dc0
 138 380 103 425 103 475 c 0
 103 483 104 492 106 500 c 0
 118 555 177 600 238 600 c 0x35c0
225 540 m 0
 203 540 181 522 176 500 c 0
 176 497 175 495 175 493 c 0
 175 474 189 460 208 460 c 0x2dc0
 230 460 252 478 256 500 c 0
 257 503 257 506 257 509 c 0
 257 527 244 540 225 540 c 0
165 260 m 0
 218 260 251 226 251 181 c 0
 251 174 251 167 249 160 c 0
 247 149 242 138 237 128 c 1
 248 132 259 135 269 135 c 2
 339 135 l 2
 393 135 423 153 439 230 c 1
 559 230 l 1
 531 100 451 40 349 40 c 2xa6c0
 159 40 l 2
 66 40 31 84 31 134 c 0x66c0
 31 143 32 151 34 160 c 0
 46 215 104 260 165 260 c 0
153 200 m 0
 131 200 109 182 104 160 c 0
 103 157 103 154 103 152 c 0
 103 134 117 120 136 120 c 0x66c0
 158 120 179 138 184 160 c 0
 185 163 185 166 185 169 c 0
 185 187 172 200 153 200 c 0
EndSplineSet
Layer: 2
SplineSet
170 540 m 0
 145 540 125 520 125 495 c 0
 125 470 145 450 170 450 c 0
 195 450 215 470 215 495 c 0
 215 520 195 540 170 540 c 0
170 590 m 0
 225 590 270 551 270 495 c 0
 270 477 263 462 253 450 c 1
 350 450 l 2
 404 450 430 473 430 550 c 1
 520 550 l 1
 520 420 452 380 350 380 c 2
 220 380 l 2
 112 380 70 435 70 495 c 0
 70 551 115 590 170 590 c 0
170 200 m 0
 145 200 125 180 125 155 c 0
 125 130 145 110 170 110 c 0
 195 110 215 130 215 155 c 0
 215 180 195 200 170 200 c 0
170 250 m 0
 225 250 270 211 270 155 c 0
 270 137 263 122 253 110 c 1
 350 110 l 2
 404 110 430 133 430 210 c 1
 520 210 l 1
 520 80 452 40 350 40 c 2
 220 40 l 2
 112 40 70 95 70 155 c 0
 70 211 115 250 170 250 c 0
EndSplineSet
Layer: 3
SplineSet
183 250 m 0
 231 250 265 220 265 176 c 0
 265 169 265 162 263 155 c 0
 259 137 249 122 236 110 c 1
 333 110 l 2
 387 110 418 133 435 210 c 1
 525 210 l 1
 497 80 421 40 319 40 c 2
 189 40 l 2
 96 40 60 81 60 130 c 0
 60 138 61 147 63 155 c 0
 75 211 128 250 183 250 c 0
173 200 m 0
 148 200 123 180 118 155 c 0
 117 152 117 149 117 146 c 0
 117 125 131 110 153 110 c 0
 178 110 203 130 208 155 c 0
 209 158 209 161 209 164 c 0
 209 185 195 200 173 200 c 0
255 590 m 0
 303 590 337 560 337 516 c 0
 337 509 337 502 335 495 c 0
 331 477 321 462 309 450 c 1
 406 450 l 2
 460 450 491 473 507 550 c 1
 597 550 l 1
 569 420 493 380 391 380 c 2
 261 380 l 2
 168 380 132 421 132 470 c 0
 132 478 133 487 135 495 c 0
 147 551 200 590 255 590 c 0
245 540 m 0
 220 540 196 520 190 495 c 0
 189 492 189 489 189 486 c 0
 189 465 204 450 226 450 c 0
 251 450 275 470 280 495 c 0
 281 499 281 502 281 505 c 0
 281 525 266 540 245 540 c 0
EndSplineSet
Layer: 4
SplineSet
150 200 m 0x6780
 128 200 110 182 110 160 c 0
 110 138 128 120 150 120 c 0
 172 120 190 138 190 160 c 0
 190 182 172 200 150 200 c 0x6780
150 260 m 0
 211 260 255 215 255 160 c 0
 255 149 253 138 250 128 c 1
 260 132 270 135 280 135 c 2
 350 135 l 2
 404 135 430 153 430 230 c 1
 550 230 l 1
 550 100 482 40 380 40 c 2xa780
 190 40 l 2
 82 40 40 100 40 160 c 0
 40 215 89 260 150 260 c 0
150 540 m 0
 128 540 110 522 110 500 c 0
 110 478 128 460 150 460 c 0x2f80
 172 460 190 478 190 500 c 0
 190 522 172 540 150 540 c 0
150 600 m 0
 211 600 255 555 255 500 c 0
 255 489 253 478 250 468 c 1
 260 472 270 475 280 475 c 2
 350 475 l 2
 404 475 430 493 430 570 c 1
 550 570 l 1
 550 440 482 380 380 380 c 2x3780
 190 380 l 2
 82 380 40 440 40 500 c 0
 40 555 89 600 150 600 c 0
EndSplineSet
Layer: 5
SplineSet
238 600 m 0x35c0
 291 600 323 566 323 522 c 0
 323 515 323 507 321 500 c 0
 319 489 315 478 309 468 c 1
 320 472 331 475 341 475 c 2
 411 475 l 2
 465 475 495 493 511 570 c 1
 631 570 l 1
 604 440 523 380 421 380 c 2x35c0
 231 380 l 2x2dc0
 138 380 103 425 103 475 c 0
 103 483 104 492 106 500 c 0
 118 555 177 600 238 600 c 0x35c0
225 540 m 0
 203 540 181 522 176 500 c 0
 176 497 175 495 175 493 c 0
 175 474 189 460 208 460 c 0x2dc0
 230 460 252 478 256 500 c 0
 257 503 257 506 257 509 c 0
 257 527 244 540 225 540 c 0
165 260 m 0
 218 260 251 226 251 181 c 0
 251 174 251 167 249 160 c 0
 247 149 242 138 237 128 c 1
 248 132 259 135 269 135 c 2
 339 135 l 2
 393 135 423 153 439 230 c 1
 559 230 l 1
 531 100 451 40 349 40 c 2xa6c0
 159 40 l 2
 66 40 31 84 31 134 c 0x66c0
 31 143 32 151 34 160 c 0
 46 215 104 260 165 260 c 0
153 200 m 0
 131 200 109 182 104 160 c 0
 103 157 103 154 103 152 c 0
 103 134 117 120 136 120 c 0x66c0
 158 120 179 138 184 160 c 0
 185 163 185 166 185 169 c 0
 185 187 172 200 153 200 c 0
EndSplineSet
Colour: ffff
EndChar

StartChar: uni0EB1
Encoding: 284 3761 28
Width: 0
VWidth: 0
Flags: HW
HStem: 700 80<-382.5 -313.205 -266.718 -94.0422> 845 55<-378.92 -311.308>
VStem: -450 67<775.164 840.886> -311 61<779.335 843.822> -65 110<807.307 870>
AnchorPoint: "left-above" -280 640 mark 0
AnchorPoint: "normal-mkmk" -340 920 basemark 0
AnchorPoint: "normal-above" -340 640 mark 0
LayerCount: 6
Back
Fore
SplineSet
-329 900 m 0
 -280 900 -250 870 -250 829 c 0
 -250 823 -251 817 -252 810 c 0
 -255 797 -260 785 -267 775 c 1
 -261 778 -254 780 -248 780 c 2
 -164 780 l 2
 -100 780 -78 808 -65 870 c 1
 45 870 l 1
 20 755 -55 700 -141 700 c 2
 -331 700 l 2
 -409 700 -450 739 -450 789 c 0
 -450 796 -450 803 -448 810 c 0
 -437 860 -384 900 -329 900 c 0
-340 845 m 0
 -359 845 -378 829 -382 810 c 0
 -383 808 -383 805 -383 803 c 0
 -383 787 -372 775 -355 775 c 0
 -335 775 -316 791 -312 810 c 0
 -311 812 -311 815 -311 817 c 0
 -311 833 -323 845 -340 845 c 0
EndSplineSet
Layer: 2
SplineSet
-460 760 m 0
 -438 760 -420 778 -420 800 c 0
 -420 822 -438 840 -460 840 c 0
 -482 840 -500 822 -500 800 c 0
 -500 778 -482 760 -460 760 c 0
-382 765 m 1
 -290 765 l 2
 -226 765 -210 798 -210 860 c 1
 -130 860 l 1
 -130 745 -195 700 -280 700 c 2
 -410 700 l 2
 -506 700 -550 740 -550 800 c 0
 -550 850 -510 885 -460 885 c 0
 -410 885 -370 850 -370 800 c 0
 -370 787 -374 775 -382 765 c 1
EndSplineSet
Layer: 3
SplineSet
-259 765 m 1
 -167 765 l 2
 -103 765 -80 798 -67 860 c 1
 13 860 l 1
 -12 745 -86 700 -171 700 c 2
 -301 700 l 2
 -384 700 -423 730 -423 778 c 0
 -423 785 -422 792 -420 800 c 0
 -409 850 -362 885 -312 885 c 0
 -269 885 -238 859 -238 819 c 0
 -238 813 -239 807 -240 800 c 0
 -243 787 -249 775 -259 765 c 1
-338 760 m 0
 -316 760 -295 778 -290 800 c 0
 -289 803 -289 806 -289 809 c 0
 -289 827 -302 840 -321 840 c 0
 -343 840 -365 822 -370 800 c 0
 -371 797 -371 794 -371 792 c 0
 -371 774 -357 760 -338 760 c 0
EndSplineSet
Layer: 4
SplineSet
-480 845 m 0
 -499 845 -514 829 -514 810 c 0
 -514 791 -499 775 -480 775 c 0
 -460 775 -444 791 -444 810 c 0
 -444 829 -460 845 -480 845 c 0
-480 900 m 0
 -424 900 -384 860 -384 810 c 0
 -384 797 -387 785 -392 775 c 1
 -386 778 -380 780 -374 780 c 2
 -290 780 l 2
 -226 780 -210 808 -210 870 c 1
 -100 870 l 1
 -100 755 -164 700 -250 700 c 2
 -440 700 l 2
 -529 700 -580 750 -580 810 c 0
 -580 860 -535 900 -480 900 c 0
EndSplineSet
Layer: 5
SplineSet
-329 900 m 0
 -280 900 -250 870 -250 829 c 0
 -250 823 -251 817 -252 810 c 0
 -255 797 -260 785 -267 775 c 1
 -261 778 -254 780 -248 780 c 2
 -164 780 l 2
 -100 780 -78 808 -65 870 c 1
 45 870 l 1
 20 755 -55 700 -141 700 c 2
 -331 700 l 2
 -409 700 -450 739 -450 789 c 0
 -450 796 -450 803 -448 810 c 0
 -437 860 -384 900 -329 900 c 0
-340 845 m 0
 -359 845 -378 829 -382 810 c 0
 -383 808 -383 805 -383 803 c 0
 -383 787 -372 775 -355 775 c 0
 -335 775 -316 791 -312 810 c 0
 -311 812 -311 815 -311 817 c 0
 -311 833 -323 845 -340 845 c 0
EndSplineSet
Colour: ffff
EndChar

StartChar: uni0EB2
Encoding: 285 3762 29
Width: 540
VWidth: 0
Flags: HW
HStem: 0 21G<280 434.25> 280 65<150.314 237.251> 520 90<225.193 355.346>
VStem: 71 77<348.025 428.495> 250 76<358.394 441.113> 371 150<306.875 503.582>
LayerCount: 6
Back
Fore
SplineSet
280 0 m 1
 367 410 l 2
 370 424 371 436 371 446 c 0
 371 502 334 520 286 520 c 0
 261 520 238 512 219 500 c 1
 277 497 326 469 326 416 c 0
 326 409 326 402 324 395 c 0
 309 325 243 280 175 280 c 0
 115 280 71 315 71 370 c 0
 71 378 72 386 74 395 c 0
 100 517 210 610 340 610 c 0
 440 610 521 552 521 449 c 0
 521 434 519 417 515 400 c 2
 430 0 l 1
 280 0 l 1
210 445 m 0
 182 445 155 423 149 395 c 0
 148 391 148 388 148 384 c 0
 148 361 164 345 188 345 c 0
 216 345 243 367 249 395 c 0
 250 399 250 402 250 406 c 0
 250 429 234 445 210 445 c 0
EndSplineSet
Layer: 2
SplineSet
160 475 m 0
 132 475 110 453 110 425 c 0
 110 397 132 375 160 375 c 0
 188 375 210 397 210 425 c 0
 210 453 188 475 160 475 c 0
450 0 m 1
 360 0 l 1
 360 410 l 2
 360 503 315 540 245 540 c 0
 214 540 188 534 168 525 c 1
 225 521 270 483 270 425 c 0
 270 364 220 320 160 320 c 0
 100 320 50 364 50 425 c 0
 50 536 135 610 245 610 c 0
 355 610 450 552 450 410 c 2
 450 0 l 1
EndSplineSet
Layer: 3
SplineSet
410 0 m 1
 320 0 l 1
 407 410 l 2
 411 427 412 442 412 455 c 0
 412 515 377 540 320 540 c 0
 289 540 262 534 240 525 c 1
 288 522 323 493 323 447 c 0
 323 440 322 433 320 425 c 0
 307 364 248 320 188 320 c 0
 136 320 98 354 98 403 c 0
 98 410 98 417 100 425 c 0
 124 536 225 610 335 610 c 0
 429 610 503 567 503 465 c 0
 503 448 501 430 497 410 c 2
 410 0 l 1
221 475 m 0
 193 475 166 453 160 425 c 0
 159 421 159 418 159 414 c 0
 159 392 176 375 200 375 c 0
 228 375 254 397 260 425 c 0
 261 429 261 432 261 436 c 0
 261 459 245 475 221 475 c 0
EndSplineSet
Layer: 4
SplineSet
155 445 m 0
 127 445 105 423 105 395 c 0
 105 367 127 345 155 345 c 0
 183 345 205 367 205 395 c 0
 205 423 183 445 155 445 c 0
320 0 m 9
 320 410 l 2
 320 495 272 520 215 520 c 0
 190 520 169 512 153 500 c 1
 218 497 280 462 280 395 c 0
 280 325 223 280 155 280 c 0
 87 280 30 325 30 395 c 0
 30 517 120 610 250 610 c 0
 365 610 470 534 470 400 c 2
 470 0 l 17
 320 0 l 9
EndSplineSet
Layer: 5
SplineSet
280 0 m 1
 367 410 l 2
 370 424 371 436 371 446 c 0
 371 502 334 520 286 520 c 0
 261 520 238 512 219 500 c 1
 277 497 326 469 326 416 c 0
 326 409 326 402 324 395 c 0
 309 325 243 280 175 280 c 0
 115 280 71 315 71 370 c 0
 71 378 72 386 74 395 c 0
 100 517 210 610 340 610 c 0
 440 610 521 552 521 449 c 0
 521 434 519 417 515 400 c 2
 430 0 l 1
 280 0 l 1
210 445 m 0
 182 445 155 423 149 395 c 0
 148 391 148 388 148 384 c 0
 148 361 164 345 188 345 c 0
 216 345 243 367 249 395 c 0
 250 399 250 402 250 406 c 0
 250 429 234 445 210 445 c 0
EndSplineSet
Colour: ffff00
EndChar

StartChar: uni0EBD
Encoding: 286 3773 30
Width: 630
VWidth: 0
Flags: HW
HStem: -260 95<164.792 306.337> -35 65<48.7491 135.686> 530 90<241.129 426.903> 580 20G<553.667 648>
VStem: -41 77<-132.441 -48.1238> 83 124<417.626 497.006> 138 77<-122.512 -37.6139> 407 152<116.4 232.931> 513 90<390 429.2>
LayerCount: 6
Back
Fore
SplineSet
98 -35 m 0xca
 70 -35 43 -57 37 -85 c 0
 36 -89 36 -92 36 -96 c 0
 36 -119 52 -135 76 -135 c 0
 104 -135 131 -113 137 -85 c 0
 138 -81 138 -78 138 -74 c 0
 138 -51 122 -35 98 -35 c 0xca
558 600 m 1xdd
 648 600 l 1xdd
 603 390 l 1
 513 390 l 1
 509 437 442 530 333 530 c 0
 265 530 216 498 208 460 c 0
 207 457 207 455 207 452 c 0xec80
 207 416 269 397 368 365 c 0
 503 322 559 289 559 208 c 0
 559 191 557 172 552 150 c 2
 509 -50 l 2
 483 -173 366 -260 195 -260 c 0
 41 -260 -41 -196 -41 -113 c 0
 -41 -104 -40 -94 -38 -85 c 0
 -23 -15 43 30 111 30 c 0
 171 30 215 -5 215 -60 c 0
 215 -68 214 -76 212 -85 c 0
 205 -118 186 -144 162 -161 c 1
 175 -164 193 -165 215 -165 c 0xeb
 301 -165 344 -122 359 -50 c 2
 402 150 l 2
 405 163 407 175 407 186 c 0
 407 223 382 245 278 275 c 0
 189 301 83 341 83 426 c 0
 83 434 84 442 86 450 c 0
 105 540 210 620 352 620 c 0xed
 460 620 518 552 544 495 c 1
 543 502 542 509 542 516 c 0
 542 524 543 532 545 540 c 2
 558 600 l 1xdd
EndSplineSet
Layer: 2
SplineSet
460 600 m 1xd680
 520 600 l 1xd680
 520 390 l 1
 470 390 l 1
 456 437 368 550 240 550 c 0
 168 550 130 521 130 480 c 0xe640
 130 439 142 409 289 365 c 0
 448 317 520 273 520 160 c 2
 520 -60 l 2
 520 -206 389 -260 280 -260 c 0
 178 -260 40 -214 40 -85 c 0xeb
 40 -24 90 20 150 20 c 0
 210 20 260 -24 260 -85 c 0
 260 -134 228 -168 185 -180 c 1
 208 -186 239 -190 280 -190 c 0
 369 -190 430 -137 430 -60 c 2
 430 160 l 2
 430 223 383 265 270 295 c 0
 145 329 50 375 50 480 c 0
 50 546 111 620 240 620 c 0xe7
 344 620 426 549 467 491 c 1
 463 505 460 521 460 540 c 2
 460 600 l 1xd680
150 -35 m 0
 122 -35 100 -57 100 -85 c 0xca
 100 -113 122 -135 150 -135 c 0
 178 -135 200 -113 200 -85 c 0
 200 -57 178 -35 150 -35 c 0
EndSplineSet
Layer: 3
SplineSet
103 -35 m 0xca
 75 -35 48 -57 42 -85 c 0
 41 -89 41 -92 41 -96 c 0
 41 -119 57 -135 81 -135 c 0
 109 -135 136 -113 142 -85 c 0
 143 -81 143 -78 143 -74 c 0
 143 -51 127 -35 103 -35 c 0xca
548 600 m 1xdd
 608 600 l 1xdd
 563 390 l 1
 513 390 l 1
 509 437 445 550 317 550 c 0
 245 550 201 521 192 480 c 0
 190 473 189 466 189 459 c 0xec80
 189 428 213 401 327 365 c 0
 455 324 519 285 519 203 c 0
 519 190 517 176 514 160 c 2
 467 -60 l 2
 436 -206 294 -260 185 -260 c 0
 92 -260 -22 -222 -22 -119 c 0
 -22 -108 -20 -97 -18 -85 c 0
 -5 -24 54 20 114 20 c 0
 166 20 204 -14 204 -63 c 0xeb
 204 -70 204 -77 202 -85 c 0
 192 -134 152 -168 107 -180 c 1
 128 -186 159 -190 200 -190 c 0
 289 -190 361 -137 377 -60 c 2
 424 160 l 2
 426 168 426 175 426 183 c 0
 426 233 386 269 293 295 c 0
 188 325 109 365 109 448 c 0
 109 458 110 469 112 480 c 0
 126 546 203 620 332 620 c 0xed
 436 620 503 549 531 491 c 1
 531 501 l 2
 531 513 532 525 535 540 c 2
 548 600 l 1xdd
EndSplineSet
Layer: 4
SplineSet
470 600 m 1xd680
 560 600 l 1xd680
 560 390 l 1
 470 390 l 1
 456 437 369 530 260 530 c 0
 192 530 150 498 150 460 c 0xe680
 150 418 217 399 330 365 c 0
 504 313 560 276 560 150 c 2
 560 -50 l 2
 560 -173 461 -260 290 -260 c 0
 119 -260 20 -181 20 -85 c 0xeb
 20 -15 77 30 145 30 c 0
 213 30 270 -15 270 -85 c 0
 270 -118 257 -144 236 -161 c 1
 250 -164 268 -165 290 -165 c 0
 376 -165 410 -122 410 -50 c 2
 410 150 l 2
 410 211 401 237 260 275 c 0
 157 303 30 349 30 450 c 0
 30 540 118 620 260 620 c 0xe7
 368 620 441 552 479 495 c 1
 474 508 470 524 470 540 c 2
 470 600 l 1xd680
145 -35 m 0
 117 -35 95 -57 95 -85 c 0xca
 95 -113 117 -135 145 -135 c 0
 173 -135 195 -113 195 -85 c 0
 195 -57 173 -35 145 -35 c 0
EndSplineSet
Layer: 5
SplineSet
98 -35 m 0xca
 70 -35 43 -57 37 -85 c 0
 36 -89 36 -92 36 -96 c 0
 36 -119 52 -135 76 -135 c 0
 104 -135 131 -113 137 -85 c 0
 138 -81 138 -78 138 -74 c 0
 138 -51 122 -35 98 -35 c 0xca
558 600 m 1xdd
 648 600 l 1xdd
 603 390 l 1
 513 390 l 1
 509 437 442 530 333 530 c 0
 265 530 216 498 208 460 c 0
 207 457 207 455 207 452 c 0xec80
 207 416 269 397 368 365 c 0
 503 322 559 289 559 208 c 0
 559 191 557 172 552 150 c 2
 509 -50 l 2
 483 -173 366 -260 195 -260 c 0
 41 -260 -41 -196 -41 -113 c 0
 -41 -104 -40 -94 -38 -85 c 0
 -23 -15 43 30 111 30 c 0
 171 30 215 -5 215 -60 c 0
 215 -68 214 -76 212 -85 c 0
 205 -118 186 -144 162 -161 c 1
 175 -164 193 -165 215 -165 c 0xeb
 301 -165 344 -122 359 -50 c 2
 402 150 l 2
 405 163 407 175 407 186 c 0
 407 223 382 245 278 275 c 0
 189 301 83 341 83 426 c 0
 83 434 84 442 86 450 c 0
 105 540 210 620 352 620 c 0xed
 460 620 518 552 544 495 c 1
 543 502 542 509 542 516 c 0
 542 524 543 532 545 540 c 2
 558 600 l 1xdd
EndSplineSet
Colour: ffff00
EndChar

StartChar: uni0EC0
Encoding: 287 3776 31
Width: 350
VWidth: 0
Flags: HW
HStem: -10 65<128.368 215.367> 524 86<289.143 373.55>
VStem: 49 77<58.0251 142.146> 228 77<68.3936 151.159>
LayerCount: 6
Back
Fore
SplineSet
404 585 m 1
 364 515 l 1
 364 515 345 524 324 524 c 0
 307 524 290 517 282 480 c 2
 231 240 l 2
 228 228 225 220 220 214 c 1
 270 208 305 178 305 130 c 0
 305 122 304 114 302 105 c 0
 287 35 221 -10 153 -10 c 0
 93 -10 49 25 49 80 c 0
 49 88 50 96 52 105 c 2
 132 480 l 2
 149 558 207 610 295 610 c 0
 352 610 385 596 404 585 c 1
188 155 m 0
 160 155 133 133 127 105 c 0
 126 101 126 98 126 94 c 0
 126 72 143 55 167 55 c 0
 195 55 221 77 227 105 c 0
 228 109 228 112 228 116 c 0
 228 139 212 155 188 155 c 0
EndSplineSet
Layer: 2
SplineSet
265 595 m 1xf4
 250 540 l 1
 242 543 234 550 210 550 c 0
 186 550 180 531 180 503 c 2
 180 198 l 1xf4
 186 199 193 200 200 200 c 0
 260 200 310 156 310 95 c 0
 310 34 260 -10 200 -10 c 0
 140 -10 90 34 90 95 c 2xec
 90 503 l 2
 90 570 120 610 190 610 c 0
 229 610 250 600 265 595 c 1xf4
200 145 m 0
 172 145 150 123 150 95 c 0xec
 150 67 172 45 200 45 c 0
 228 45 250 67 250 95 c 0
 250 123 228 145 200 145 c 0
EndSplineSet
Layer: 3
SplineSet
191 145 m 0
 163 145 136 123 130 95 c 0
 129 91 129 88 129 84 c 0
 129 62 146 45 170 45 c 0
 198 45 224 67 230 95 c 0
 231 99 231 102 231 106 c 0
 231 129 215 145 191 145 c 0
351 595 m 1
 325 540 l 1
 317 543 311 550 287 550 c 0
 263 550 253 531 247 503 c 2
 182 198 l 1
 188 199 196 200 203 200 c 0
 255 200 292 167 292 117 c 0
 292 110 292 103 290 95 c 0
 277 34 218 -10 158 -10 c 0
 106 -10 68 24 68 73 c 0
 68 80 68 87 70 95 c 2
 157 503 l 2
 171 570 210 610 280 610 c 0
 319 610 338 600 351 595 c 1
EndSplineSet
Layer: 4
SplineSet
195 155 m 0xd8
 167 155 145 133 145 105 c 0
 145 77 167 55 195 55 c 0
 223 55 245 77 245 105 c 0
 245 133 223 155 195 155 c 0xd8
320 585 m 1
 295 515 l 1
 295 515 274 524 253 524 c 0
 236 524 220 517 220 480 c 2
 220 240 l 2xe8
 220 228 218 220 215 214 c 1
 274 207 320 168 320 105 c 0
 320 35 263 -10 195 -10 c 0
 127 -10 70 35 70 105 c 2xd8
 70 480 l 2xe8
 70 558 117 610 205 610 c 0
 262 610 298 596 320 585 c 1
EndSplineSet
Layer: 5
SplineSet
404 585 m 1
 364 515 l 1
 364 515 345 524 324 524 c 0
 307 524 290 517 282 480 c 2
 231 240 l 2
 228 228 225 220 220 214 c 1
 270 208 305 178 305 130 c 0
 305 122 304 114 302 105 c 0
 287 35 221 -10 153 -10 c 0
 93 -10 49 25 49 80 c 0
 49 88 50 96 52 105 c 2
 132 480 l 2
 149 558 207 610 295 610 c 0
 352 610 385 596 404 585 c 1
188 155 m 0
 160 155 133 133 127 105 c 0
 126 101 126 98 126 94 c 0
 126 72 143 55 167 55 c 0
 195 55 221 77 227 105 c 0
 228 109 228 112 228 116 c 0
 228 139 212 155 188 155 c 0
EndSplineSet
Colour: ffff00
EndChar

StartChar: uni0EC2
Encoding: 289 3778 33
Width: 420
VWidth: 0
Flags: HW
HStem: -10 65<198.368 285.367> 780 21G<430.167 530.19> 900 90<236.286 379.434>
VStem: 98 122<797.4 882.876> 119 77<58.0251 142.146> 234 151<513.828 692.148> 298 77<68.3936 151.159>
LayerCount: 6
Back
Fore
SplineSet
490 990 m 1xf4
 570 990 l 1
 526 780 l 1
 456 780 l 1
 456 780 406 900 301 900 c 0
 259 900 226 876 221 850 c 0
 220 846 220 842 220 839 c 0
 220 800 266 786 320 755 c 0
 369 727 385 697 385 658 c 0xf4
 385 638 381 616 375 590 c 2
 301 240 l 2
 298 228 295 220 290 214 c 1
 340 208 375 178 375 130 c 0
 375 122 374 114 372 105 c 0
 357 35 291 -10 223 -10 c 0
 163 -10 119 25 119 80 c 0xea
 119 88 120 96 122 105 c 2
 225 590 l 2
 227 597 228 604 230 610 c 0
 232 622 234 632 234 642 c 0
 234 667 223 687 181 710 c 0
 139 732 98 766 98 822 c 0
 98 831 99 840 101 850 c 0
 115 918 191 990 310 990 c 0
 392 990 446 940 475 893 c 1
 474 904 475 916 478 930 c 2
 490 990 l 1xf4
258 155 m 0
 230 155 203 133 197 105 c 0
 196 101 196 98 196 94 c 0
 196 72 213 55 237 55 c 0
 265 55 291 77 297 105 c 0
 298 109 298 112 298 116 c 0xea
 298 139 282 155 258 155 c 0
EndSplineSet
Layer: 2
SplineSet
310 960 m 1xfd
 360 960 l 1xfd
 360 780 l 1
 320 780 l 1
 315 798 234 930 120 930 c 0
 73 930 50 909 50 880 c 0
 50 840 92 832 155 795 c 0
 232 750 250 702 250 590 c 2
 250 198 l 1xfc40
 256 199 263 200 270 200 c 0
 330 200 380 156 380 95 c 0
 380 34 330 -10 270 -10 c 0
 210 -10 160 34 160 95 c 2xfa80
 160 590 l 2
 160 677 157 711 90 750 c 0
 43 777 -20 799 -20 880 c 0
 -20 934 27 990 120 990 c 0
 215 990 280 915 314 865 c 1
 312 872 310 881 310 890 c 2
 310 960 l 1xfd
270 145 m 0
 242 145 220 123 220 95 c 0
 220 67 242 45 270 45 c 0
 298 45 320 67 320 95 c 0xfa80
 320 123 298 145 270 145 c 0
EndSplineSet
Layer: 3
SplineSet
261 145 m 0xf580
 233 145 206 123 200 95 c 0
 199 91 199 88 199 84 c 0
 199 62 216 45 240 45 c 0
 268 45 294 67 300 95 c 0
 301 99 301 102 301 106 c 0
 301 129 285 145 261 145 c 0xf580
474 960 m 1
 524 960 l 1
 486 780 l 1
 446 780 l 1
 445 798 392 930 278 930 c 0
 231 930 203 909 197 880 c 0
 196 877 196 873 196 870 c 0
 196 838 234 829 284 795 c 0
 329 765 347 733 347 682 c 0xfa80
 347 657 343 627 335 590 c 2
 252 198 l 1
 258 199 266 200 273 200 c 0
 325 200 362 167 362 117 c 0
 362 110 362 103 360 95 c 0
 347 34 288 -10 228 -10 c 0
 176 -10 138 24 138 73 c 0xf580
 138 80 138 87 140 95 c 2
 245 590 l 2
 252 624 258 650 258 671 c 0
 258 704 245 726 209 750 c 0
 173 774 124 794 124 853 c 0xfa80
 124 861 125 870 127 880 c 0
 139 934 197 990 290 990 c 0
 385 990 434 915 458 865 c 1
 457 872 457 881 459 890 c 2
 474 960 l 1
EndSplineSet
Layer: 4
SplineSet
265 155 m 0xf6
 237 155 215 133 215 105 c 0
 215 77 237 55 265 55 c 0
 293 55 315 77 315 105 c 0
 315 133 293 155 265 155 c 0xf6
320 990 m 1xf5
 400 990 l 1
 400 780 l 1
 330 780 l 1
 330 780 255 900 150 900 c 0
 108 900 80 876 80 850 c 0
 80 803 133 789 200 755 c 0
 284 712 290 666 290 590 c 2
 290 240 l 2xf9
 290 228 288 220 285 214 c 1
 344 207 390 168 390 105 c 0
 390 35 333 -10 265 -10 c 0
 197 -10 140 35 140 105 c 2xf6
 140 590 l 2xf8
 140 597 140 604 140 610 c 0
 140 651 136 678 70 710 c 0
 16 736 -40 777 -40 850 c 0
 -40 918 21 990 140 990 c 0
 222 990 286 940 325 893 c 1
 322 904 320 916 320 930 c 2
 320 990 l 1xf5
EndSplineSet
Layer: 5
SplineSet
490 990 m 1xf4
 570 990 l 1
 526 780 l 1
 456 780 l 1
 456 780 406 900 301 900 c 0
 259 900 226 876 221 850 c 0
 220 846 220 842 220 839 c 0
 220 800 266 786 320 755 c 0
 369 727 385 697 385 658 c 0xf4
 385 638 381 616 375 590 c 2
 301 240 l 2
 298 228 295 220 290 214 c 1
 340 208 375 178 375 130 c 0
 375 122 374 114 372 105 c 0
 357 35 291 -10 223 -10 c 0
 163 -10 119 25 119 80 c 0xea
 119 88 120 96 122 105 c 2
 225 590 l 2
 227 597 228 604 230 610 c 0
 232 622 234 632 234 642 c 0
 234 667 223 687 181 710 c 0
 139 732 98 766 98 822 c 0
 98 831 99 840 101 850 c 0
 115 918 191 990 310 990 c 0
 392 990 446 940 475 893 c 1
 474 904 475 916 478 930 c 2
 490 990 l 1xf4
258 155 m 0
 230 155 203 133 197 105 c 0
 196 101 196 98 196 94 c 0
 196 72 213 55 237 55 c 0
 265 55 291 77 297 105 c 0
 298 109 298 112 298 116 c 0xea
 298 139 282 155 258 155 c 0
EndSplineSet
Colour: ffff00
EndChar

StartChar: uni0EC3
Encoding: 290 3779 34
Width: 420
VWidth: 0
Flags: HW
HStem: -10 65<198.368 285.367> 900 90<291.304 461.934>
VStem: 119 77<58.0251 142.146> 132 122<770.382 865.175> 298 77<68.3936 151.159> 477 121<789.108 881.611>
LayerCount: 6
Back
Fore
SplineSet
269 770 m 1xdc
 155 730 l 1
 144 748 132 767 132 797 c 0xdc
 132 806 133 815 135 825 c 0
 152 902 252 990 400 990 c 0
 532 990 598 919 598 849 c 0
 598 841 597 833 595 825 c 0
 570 704 398 697 375 590 c 2
 301 240 l 2
 298 228 295 220 290 214 c 1
 340 208 375 178 375 130 c 0
 375 122 374 114 372 105 c 0
 357 35 291 -10 223 -10 c 0
 163 -10 119 25 119 80 c 0xec
 119 88 120 96 122 105 c 2
 225 590 l 2
 255 730 457 740 475 825 c 0
 476 830 477 834 477 838 c 0
 477 876 438 900 381 900 c 0
 317 900 265 870 255 825 c 0
 254 821 254 817 254 813 c 0
 254 795 262 778 269 770 c 1xdc
258 155 m 0
 230 155 203 133 197 105 c 0
 196 101 196 98 196 94 c 0xec
 196 72 213 55 237 55 c 0
 265 55 291 77 297 105 c 0
 298 109 298 112 298 116 c 0
 298 139 282 155 258 155 c 0
EndSplineSet
Layer: 2
SplineSet
270 145 m 0xf6
 242 145 220 123 220 95 c 0
 220 67 242 45 270 45 c 0
 298 45 320 67 320 95 c 0
 320 123 298 145 270 145 c 0xf6
130 790 m 1
 60 760 l 1
 41 783 30 808 30 840 c 0
 30 917 98 990 220 990 c 0xf5
 342 990 410 917 410 840 c 0
 410 719 250 718 250 590 c 2
 250 198 l 1xf9
 256 199 263 200 270 200 c 0
 330 200 380 156 380 95 c 0
 380 34 330 -10 270 -10 c 0
 210 -10 160 34 160 95 c 2xf6
 160 590 l 2
 160 747 340 755 340 840 c 0xf9
 340 885 303 930 220 930 c 0
 144 930 110 885 110 840 c 0
 110 819 122 800 130 790 c 1
EndSplineSet
Layer: 3
SplineSet
258 790 m 1xee
 182 760 l 1
 171 776 166 793 166 813 c 0xee
 166 821 167 830 169 840 c 0
 185 917 268 990 390 990 c 0
 498 990 552 933 552 867 c 0
 552 858 551 849 549 840 c 0
 523 719 363 718 335 590 c 2
 252 198 l 1
 258 199 266 200 273 200 c 0
 325 200 362 167 362 117 c 0
 362 110 362 103 360 95 c 0
 347 34 288 -10 228 -10 c 0
 176 -10 138 24 138 73 c 0xf6
 138 80 138 87 140 95 c 2
 245 590 l 2
 279 747 460 755 479 840 c 0
 480 845 481 851 481 856 c 0
 481 895 451 930 378 930 c 0
 302 930 258 885 249 840 c 0
 248 835 247 831 247 826 c 0
 247 811 253 798 258 790 c 1xee
261 145 m 0
 233 145 206 123 200 95 c 0
 199 91 199 88 199 84 c 0xf6
 199 62 216 45 240 45 c 0
 268 45 294 67 300 95 c 0
 301 99 301 102 301 106 c 0
 301 129 285 145 261 145 c 0
EndSplineSet
Layer: 4
SplineSet
265 155 m 0xec
 237 155 215 133 215 105 c 0
 215 77 237 55 265 55 c 0
 293 55 315 77 315 105 c 0
 315 133 293 155 265 155 c 0xec
145 770 m 1
 40 730 l 1
 21 753 0 778 0 825 c 0
 0 902 82 990 230 990 c 0
 378 990 460 902 460 825 c 0
 460 704 290 697 290 590 c 2
 290 240 l 2xf2
 290 228 288 220 285 214 c 1
 344 207 390 168 390 105 c 0
 390 35 333 -10 265 -10 c 0
 197 -10 140 35 140 105 c 2xec
 140 590 l 2
 140 730 340 740 340 825 c 0xf2
 340 870 294 900 230 900 c 0
 166 900 120 870 120 825 c 0
 120 802 135 780 145 770 c 1
EndSplineSet
Layer: 5
SplineSet
269 770 m 1xdc
 155 730 l 1
 144 748 132 767 132 797 c 0xdc
 132 806 133 815 135 825 c 0
 152 902 252 990 400 990 c 0
 532 990 598 919 598 849 c 0
 598 841 597 833 595 825 c 0
 570 704 398 697 375 590 c 2
 301 240 l 2
 298 228 295 220 290 214 c 1
 340 208 375 178 375 130 c 0
 375 122 374 114 372 105 c 0
 357 35 291 -10 223 -10 c 0
 163 -10 119 25 119 80 c 0xec
 119 88 120 96 122 105 c 2
 225 590 l 2
 255 730 457 740 475 825 c 0
 476 830 477 834 477 838 c 0
 477 876 438 900 381 900 c 0
 317 900 265 870 255 825 c 0
 254 821 254 817 254 813 c 0
 254 795 262 778 269 770 c 1xdc
258 155 m 0
 230 155 203 133 197 105 c 0
 196 101 196 98 196 94 c 0xec
 196 72 213 55 237 55 c 0
 265 55 291 77 297 105 c 0
 298 109 298 112 298 116 c 0
 298 139 282 155 258 155 c 0
EndSplineSet
Colour: ffff00
EndChar

StartChar: uni0EC4
Encoding: 291 3780 35
Width: 420
VWidth: 0
Flags: HW
HStem: -10 65<198.368 285.367> 660 90<410.005 520> 910 80<170.825 241.82>
VStem: 119 77<57.67 141.346> 222 108<727.5 882.507> 243 103<830 907.768> 298 77<67.7281 151.978>
LayerCount: 6
Back
Fore
SplineSet
258 155 m 0xf2
 230 155 203 133 197 105 c 0
 196 101 196 98 196 94 c 0
 196 72 213 55 237 55 c 0
 265 55 291 77 297 105 c 0
 298 109 298 112 298 116 c 0
 298 139 282 155 258 155 c 0xf2
167 975 m 1
 187 985 214 990 235 990 c 0
 301 990 346 953 346 891 c 0xf4
 346 881 345 871 343 860 c 2
 332 810 l 2
 331 803 330 797 330 792 c 0xf8
 330 763 350 750 389 750 c 2
 539 750 l 1
 520 660 l 1
 400 660 380 612 369 560 c 2
 301 240 l 2
 298 228 295 220 290 214 c 1
 340 208 375 178 375 130 c 0xf2
 375 122 374 114 372 105 c 0
 357 35 291 -10 223 -10 c 0
 163 -10 119 25 119 80 c 0
 119 88 120 96 122 105 c 2
 219 560 l 2
 229 605 260 639 301 664 c 1
 250 674 222 707 222 748 c 0xf8
 222 755 222 763 224 770 c 2
 239 840 l 2
 241 851 243 864 243 875 c 0xf4
 243 894 237 910 213 910 c 0
 199 910 188 906 171 900 c 1
 167 975 l 1
EndSplineSet
Layer: 2
SplineSet
20 975 m 1xf9
 31 981 61 990 90 990 c 0
 158 990 180 942 180 890 c 2
 180 820 l 2xf9
 180 777 193 755 240 755 c 2
 380 755 l 1
 380 690 l 1
 268 690 250 644 250 580 c 2
 250 198 l 1xf5
 256 199 263 200 270 200 c 0
 330 200 380 156 380 95 c 0
 380 34 330 -10 270 -10 c 0
 210 -10 160 34 160 95 c 2xf3
 160 580 l 2xf5
 160 632 183 668 217 691 c 1
 144 699 110 743 110 800 c 2
 110 870 l 2
 110 914 107 930 80 930 c 0
 62 930 44 924 35 920 c 1
 20 975 l 1xf9
270 145 m 0
 242 145 220 123 220 95 c 0xf3
 220 67 242 45 270 45 c 0
 298 45 320 67 320 95 c 0
 320 123 298 145 270 145 c 0
EndSplineSet
Layer: 3
SplineSet
261 145 m 0xfa
 233 145 206 123 200 95 c 0
 199 91 199 88 199 84 c 0
 199 62 216 45 240 45 c 0
 268 45 294 67 300 95 c 0
 301 99 301 102 301 106 c 0xf9
 301 129 285 145 261 145 c 0xfa
187 975 m 1
 200 981 231 990 260 990 c 0
 314 990 333 960 333 922 c 0xfa
 333 911 331 901 329 890 c 2
 314 820 l 2
 312 810 311 801 311 794 c 0xfc
 311 768 324 755 360 755 c 2
 500 755 l 1
 487 690 l 1
 375 690 347 644 333 580 c 2xfa
 252 198 l 1
 258 199 266 200 273 200 c 0
 325 200 362 167 362 117 c 0xf9
 362 110 362 103 360 95 c 0
 347 34 288 -10 228 -10 c 0
 176 -10 138 24 138 73 c 0
 138 80 138 87 140 95 c 2
 243 580 l 2
 254 632 285 668 324 691 c 1
 264 698 237 730 237 774 c 0xfc
 237 782 238 791 240 800 c 2
 255 870 l 2
 258 887 261 899 261 909 c 0xfa
 261 924 255 930 238 930 c 0
 220 930 200 924 191 920 c 1
 187 975 l 1
EndSplineSet
Layer: 4
SplineSet
0 975 m 1xf2
 18 985 44 990 65 990 c 0
 141 990 200 940 200 860 c 2
 200 810 l 2xf2
 200 768 223 750 270 750 c 2
 420 750 l 1
 420 660 l 1
 300 660 290 612 290 560 c 2
 290 240 l 2xea
 290 228 288 220 285 214 c 1
 344 207 390 168 390 105 c 0
 390 35 333 -10 265 -10 c 0
 197 -10 140 35 140 105 c 2xe6
 140 560 l 2xea
 140 605 164 639 200 664 c 1
 137 676 100 718 100 770 c 2
 100 840 l 2
 100 872 97 910 60 910 c 0
 46 910 35 906 20 900 c 1
 0 975 l 1xf2
265 155 m 0
 237 155 215 133 215 105 c 0xe6
 215 77 237 55 265 55 c 0
 293 55 315 77 315 105 c 0
 315 133 293 155 265 155 c 0
EndSplineSet
Layer: 5
SplineSet
258 155 m 0xf2
 230 155 203 133 197 105 c 0
 196 101 196 98 196 94 c 0
 196 72 213 55 237 55 c 0
 265 55 291 77 297 105 c 0
 298 109 298 112 298 116 c 0
 298 139 282 155 258 155 c 0xf2
167 975 m 1
 187 985 214 990 235 990 c 0
 301 990 346 953 346 891 c 0xf4
 346 881 345 871 343 860 c 2
 332 810 l 2
 331 803 330 797 330 792 c 0xf8
 330 763 350 750 389 750 c 2
 539 750 l 1
 520 660 l 1
 400 660 380 612 369 560 c 2
 301 240 l 2
 298 228 295 220 290 214 c 1
 340 208 375 178 375 130 c 0xf2
 375 122 374 114 372 105 c 0
 357 35 291 -10 223 -10 c 0
 163 -10 119 25 119 80 c 0
 119 88 120 96 122 105 c 2
 219 560 l 2
 229 605 260 639 301 664 c 1
 250 674 222 707 222 748 c 0xf8
 222 755 222 763 224 770 c 2
 239 840 l 2
 241 851 243 864 243 875 c 0xf4
 243 894 237 910 213 910 c 0
 199 910 188 906 171 900 c 1
 167 975 l 1
EndSplineSet
Colour: ffff00
EndChar

StartChar: uni0EDC
Encoding: 292 3804 36
Width: 1160
VWidth: 0
Flags: HW
HStem: -10 110<234.029 338.645 788.17 917.556> -10 86<533.109 619.596> 385 60<172.661 202> 545 65<182.133 268.149 449.525 540.661> 580 20G<747 805.5 1033.75 1188>
VStem: 79 152<105.356 186> 92 77<449.24 531.606> 271 94<458.621 540.734> 374 66<452.608 536.145> 542 67<510 547.797> 694 162<376.656 553.055>
AnchorPoint: "normal-below" 840 -40 basechar 0
AnchorPoint: "normal-above" 840 640 basechar 0
LayerCount: 6
Back
Fore
SplineSet
197 385 m 2xa5e0
 137 385 92 416 92 471 c 0xa3e0
 92 478 93 486 95 495 c 0
 110 565 177 610 245 610 c 0
 315 610 365 567 365 506 c 0
 365 498 364 489 362 480 c 0
 341 383 277 364 257 270 c 2
 232 150 l 2
 231 146 231 142 231 139 c 0
 231 111 257 100 281 100 c 0
 308 100 344 114 352 150 c 2
 399 370 l 2
 402 384 407 396 412 405 c 1
 389 420 374 444 374 477 c 0
 374 484 374 492 376 500 c 0
 391 570 458 610 515 610 c 0xb5e0
 565 610 609 579 609 524 c 0
 609 519 609 515 608 510 c 1
 656 549 716 600 778 600 c 0
 833 600 856 571 856 520 c 0
 856 505 854 489 850 470 c 2
 778 134 l 1
 795 114 818 100 851 100 c 0
 902 100 937 128 953 200 c 2
 1038 600 l 1
 1188 600 l 1
 1103 200 l 2
 1072 56 993 -10 888 -10 c 0xade0
 816 -10 773 19 748 55 c 1
 720 15 674 -10 613 -10 c 0
 556 -10 523 4 503 15 c 1
 543 85 l 1
 543 85 562 76 583 76 c 0x65e0
 600 76 618 83 626 120 c 2
 689 420 l 2
 692 434 694 445 694 454 c 0
 694 472 687 480 672 480 c 0
 641 480 573 419 537 407 c 1
 482 150 l 2
 461 52 363 -10 253 -10 c 0
 155 -10 79 40 79 120 c 0
 79 130 80 140 82 150 c 2
 107 270 l 2
 119 325 162 356 202 385 c 1
 197 385 l 2xa5e0
210 445 m 0
 238 445 264 467 270 495 c 0
 271 499 271 502 271 506 c 0
 271 529 255 545 231 545 c 0x35e0
 203 545 176 523 170 495 c 0
 169 491 169 488 169 484 c 0
 169 462 186 445 210 445 c 0
502 550 m 0
 474 550 447 528 441 500 c 0
 440 496 440 493 440 489 c 0
 440 467 457 450 481 450 c 0
 509 450 535 472 541 500 c 0
 542 504 542 507 542 511 c 0
 542 534 526 550 502 550 c 0
EndSplineSet
Layer: 2
SplineSet
415 560 m 0x21b8
 387 560 365 538 365 510 c 0
 365 482 387 460 415 460 c 0
 443 460 465 482 465 510 c 0
 465 538 443 560 415 560 c 0x21b8
160 555 m 0x2d98
 132 555 110 533 110 505 c 0
 110 477 132 455 160 455 c 0
 188 455 210 477 210 505 c 0
 210 533 188 555 160 555 c 0x2d98
743 66 m 1
 729 25 696 -10 640 -10 c 0
 598 -10 568 6 550 15 c 1
 575 70 l 1
 585 65 606 55 625 55 c 0x61b8
 652 55 660 83 660 120 c 2
 660 460 l 2
 660 501 640 525 610 525 c 0
 562 525 526 436 470 418 c 1
 470 130 l 2
 470 41 395 -10 290 -10 c 0
 185 -10 110 40 110 130 c 2
 110 300 l 2xb3d8
 110 353 147 379 177 406 c 1
 171 405 166 405 160 405 c 0
 100 405 50 444 50 505 c 0xb598
 50 566 100 610 160 610 c 0
 231 610 280 560 280 500 c 0
 280 403 200 380 200 300 c 2
 200 130 l 2
 200 85 248 65 290 65 c 0
 332 65 380 85 380 130 c 2
 380 416 l 1
 343 430 310 463 310 510 c 0
 310 571 363 610 415 610 c 0xabd8
 466 610 519 571 520 511 c 1
 550 552 583 600 640 600 c 0
 691 600 750 561 750 480 c 2
 750 130 l 1
 774 94 809 65 865 65 c 0
 950 65 970 107 970 170 c 2
 970 600 l 1
 1060 600 l 1
 1060 170 l 2
 1060 57 1002 -10 895 -10 c 0xb1b8
 824 -10 776 22 743 66 c 1
EndSplineSet
Layer: 3
SplineSet
717 66 m 1xb5e0
 694 25 654 -10 598 -10 c 0
 556 -10 529 6 513 15 c 1
 550 70 l 1
 559 65 578 55 597 55 c 0x65e0
 624 55 638 83 646 120 c 2
 718 460 l 2
 719 468 720 475 720 481 c 0
 720 509 706 525 682 525 c 0
 634 525 579 436 519 418 c 1
 458 130 l 2
 439 41 353 -10 248 -10 c 0
 155 -10 95 29 95 100 c 0xb5e0
 95 109 96 119 98 130 c 2
 134 300 l 2
 145 353 188 379 223 406 c 1
 217 405 212 405 206 405 c 0
 153 405 115 435 115 483 c 0xb3e0
 115 490 115 497 117 505 c 0
 130 566 190 610 250 610 c 0
 312 610 349 572 349 523 c 0
 349 515 348 508 346 500 c 0
 326 403 241 380 224 300 c 2
 188 130 l 2
 187 126 187 121 187 118 c 0
 187 81 226 65 264 65 c 0
 306 65 358 85 368 130 c 2
 428 416 l 1
 399 428 376 454 376 490 c 0
 376 496 377 503 378 510 c 0
 391 571 453 610 505 610 c 0xade0
 551 610 591 579 591 529 c 0
 591 523 590 517 589 511 c 1
 627 552 671 600 728 600 c 0
 772 600 815 571 815 511 c 0
 815 501 814 491 812 480 c 2
 738 130 l 1
 754 94 783 65 839 65 c 0
 924 65 953 107 966 170 c 2
 1058 600 l 1
 1148 600 l 1
 1056 170 l 2
 1032 57 960 -10 853 -10 c 0
 782 -10 741 22 717 66 c 1xb5e0
238 555 m 0x2be0
 210 555 183 533 177 505 c 0
 176 501 176 498 176 494 c 0
 176 472 193 455 217 455 c 0
 245 455 271 477 277 505 c 0
 278 509 278 512 278 516 c 0
 278 539 262 555 238 555 c 0x2be0
494 560 m 0
 466 560 439 538 433 510 c 0
 432 506 432 503 432 499 c 0
 432 477 449 460 473 460 c 0
 501 460 527 482 533 510 c 0
 534 514 534 517 534 521 c 0
 534 544 518 560 494 560 c 0
EndSplineSet
Layer: 4
SplineSet
425 550 m 0x20b0
 397 550 375 528 375 500 c 0
 375 472 397 450 425 450 c 0
 453 450 475 472 475 500 c 0
 475 528 453 550 425 550 c 0x20b0
155 445 m 0
 183 445 205 467 205 495 c 0
 205 523 183 545 155 545 c 0
 127 545 105 523 105 495 c 0x2d30
 105 467 127 445 155 445 c 0
155 385 m 0
 87 385 30 425 30 495 c 0
 30 565 87 610 155 610 c 0xac30
 235 610 300 554 300 480 c 0x3530
 300 383 240 364 240 270 c 2
 240 150 l 2x3230
 240 114 273 100 300 100 c 0
 327 100 360 114 360 150 c 2
 360 370 l 2xb170
 360 384 363 396 366 405 c 1
 334 423 310 455 310 500 c 0
 310 570 368 610 425 610 c 0xa8b0
 479 610 534 574 540 510 c 1
 579 549 628 600 690 600 c 0
 761 600 790 551 790 470 c 2
 790 134 l 1
 811 114 837 100 870 100 c 0
 921 100 950 128 950 200 c 2
 950 600 l 1
 1100 600 l 1
 1100 200 l 2
 1100 56 1035 -10 930 -10 c 0xb0b0
 858 -10 809 19 776 55 c 1
 757 15 716 -10 655 -10 c 0
 598 -10 562 4 540 15 c 1
 565 85 l 1
 565 85 586 76 607 76 c 0x60b0
 624 76 640 83 640 120 c 2
 640 420 l 2
 640 461 633 480 610 480 c 0
 579 480 524 419 490 407 c 1
 490 150 l 2
 490 52 405 -10 295 -10 c 0
 185 -10 90 52 90 150 c 2
 90 270 l 2xb270
 90 325 126 356 160 385 c 1
 159 385 157 385 155 385 c 0
EndSplineSet
Layer: 5
SplineSet
197 385 m 2xa5e0
 137 385 92 416 92 471 c 0xa3e0
 92 478 93 486 95 495 c 0
 110 565 177 610 245 610 c 0
 315 610 365 567 365 506 c 0
 365 498 364 489 362 480 c 0
 341 383 277 364 257 270 c 2
 232 150 l 2
 231 146 231 142 231 139 c 0
 231 111 257 100 281 100 c 0
 308 100 344 114 352 150 c 2
 399 370 l 2
 402 384 407 396 412 405 c 1
 389 420 374 444 374 477 c 0
 374 484 374 492 376 500 c 0
 391 570 458 610 515 610 c 0xb5e0
 565 610 609 579 609 524 c 0
 609 519 609 515 608 510 c 1
 656 549 716 600 778 600 c 0
 833 600 856 571 856 520 c 0
 856 505 854 489 850 470 c 2
 778 134 l 1
 795 114 818 100 851 100 c 0
 902 100 937 128 953 200 c 2
 1038 600 l 1
 1188 600 l 1
 1103 200 l 2
 1072 56 993 -10 888 -10 c 0xade0
 816 -10 773 19 748 55 c 1
 720 15 674 -10 613 -10 c 0
 556 -10 523 4 503 15 c 1
 543 85 l 1
 543 85 562 76 583 76 c 0x65e0
 600 76 618 83 626 120 c 2
 689 420 l 2
 692 434 694 445 694 454 c 0
 694 472 687 480 672 480 c 0
 641 480 573 419 537 407 c 1
 482 150 l 2
 461 52 363 -10 253 -10 c 0
 155 -10 79 40 79 120 c 0
 79 130 80 140 82 150 c 2
 107 270 l 2
 119 325 162 356 202 385 c 1
 197 385 l 2xa5e0
210 445 m 0
 238 445 264 467 270 495 c 0
 271 499 271 502 271 506 c 0
 271 529 255 545 231 545 c 0x35e0
 203 545 176 523 170 495 c 0
 169 491 169 488 169 484 c 0
 169 462 186 445 210 445 c 0
502 550 m 0
 474 550 447 528 441 500 c 0
 440 496 440 493 440 489 c 0
 440 467 457 450 481 450 c 0
 509 450 535 472 541 500 c 0
 542 504 542 507 542 511 c 0
 542 534 526 550 502 550 c 0
EndSplineSet
LCarets2: 1 0
Ligature2: "'liga' Lao - Ligatures" uni0EAB uni0E99
Colour: ffff00
EndChar

StartChar: uni0EDD
Encoding: 293 3805 37
Width: 1160
VWidth: 0
Flags: HW
HStem: -10 110<234.029 338.645 788.851 917.556> -10 65<598.368 686.017> 385 60<172.661 202> 545 65<182.133 268.149 449.525 540.661> 580 20G<747 805.5 1033.75 1188>
VStem: 79 152<105.356 186> 92 77<449.24 531.606> 271 94<458.621 540.734> 374 66<452.608 536.145> 519 77<57.67 142.469> 542 67<510 547.797> 694 162<381.328 553.055>
AnchorPoint: "normal-above" 840 640 basechar 0
AnchorPoint: "normal-below" 840 -40 basechar 0
LayerCount: 6
Back
Fore
SplineSet
658 155 m 0x61d0
 630 155 603 133 597 105 c 0
 596 101 596 98 596 94 c 0
 596 72 613 55 637 55 c 0
 665 55 691 77 697 105 c 0
 698 109 698 112 698 116 c 0
 698 139 682 155 658 155 c 0x61d0
197 385 m 2
 137 385 92 416 92 471 c 0xa390
 92 478 93 486 95 495 c 0
 110 565 177 610 245 610 c 0
 315 610 365 567 365 506 c 0
 365 498 364 489 362 480 c 0
 341 383 277 364 257 270 c 2
 232 150 l 2
 231 146 231 142 231 139 c 0
 231 111 257 100 281 100 c 0
 308 100 344 114 352 150 c 2
 399 370 l 2
 402 384 407 396 412 405 c 1
 389 420 374 444 374 477 c 0
 374 484 374 492 376 500 c 0
 391 570 458 610 515 610 c 0xb590
 565 610 609 579 609 524 c 0
 609 519 609 515 608 510 c 1
 656 549 716 600 778 600 c 0
 833 600 856 571 856 520 c 0
 856 505 854 489 850 470 c 2
 814 300 l 1
 778 134 l 1
 795 114 818 100 851 100 c 0
 902 100 937 128 953 200 c 2
 1038 600 l 1
 1188 600 l 1
 1103 200 l 2
 1072 56 993 -10 888 -10 c 0xadb0
 817 -10 775 18 749 54 c 1
 721 14 673 -10 623 -10 c 0x65b0
 563 -10 519 25 519 80 c 0
 519 88 520 96 522 105 c 0
 535 167 590 210 649 218 c 1
 649 224 649 231 651 240 c 2
 664 300 l 1
 689 420 l 2
 692 434 694 445 694 454 c 0
 694 472 687 480 672 480 c 0
 641 480 573 419 537 407 c 1
 482 150 l 2
 461 52 363 -10 253 -10 c 0
 155 -10 79 40 79 120 c 0xa5d0
 79 130 80 140 82 150 c 2
 107 270 l 2
 119 325 162 356 202 385 c 1
 197 385 l 2
210 445 m 0
 238 445 264 467 270 495 c 0
 271 499 271 502 271 506 c 0
 271 529 255 545 231 545 c 0x3590
 203 545 176 523 170 495 c 0
 169 491 169 488 169 484 c 0
 169 462 186 445 210 445 c 0
502 550 m 0
 474 550 447 528 441 500 c 0
 440 496 440 493 440 489 c 0
 440 467 457 450 481 450 c 0
 509 450 535 472 541 500 c 0
 542 504 542 507 542 511 c 0x21b0
 542 534 526 550 502 550 c 0
EndSplineSet
Layer: 2
SplineSet
640 45 m 0x70cb
 668 45 690 67 690 95 c 0
 690 123 668 145 640 145 c 0
 612 145 590 123 590 95 c 0
 590 67 612 45 640 45 c 0x70cb
640 -10 m 0
 580 -10 530 34 530 95 c 0
 530 156 580 200 640 200 c 0
 647 200 654 199 660 198 c 1
 660 460 l 2
 660 501 640 525 610 525 c 0
 562 525 526 436 470 418 c 1
 470 130 l 2
 470 41 395 -10 290 -10 c 0
 185 -10 110 40 110 130 c 2
 110 300 l 2xb9ed
 110 353 147 379 177 406 c 1
 171 405 166 405 160 405 c 0
 100 405 50 444 50 505 c 0xbac9
 50 566 100 610 160 610 c 0
 231 610 280 560 280 500 c 0
 280 403 200 380 200 300 c 2
 200 130 l 2
 200 85 248 65 290 65 c 0
 332 65 380 85 380 130 c 2
 380 416 l 1
 343 430 310 463 310 510 c 0
 310 571 363 610 415 610 c 0xb5e9
 466 610 519 571 520 511 c 1
 550 552 583 600 640 600 c 0
 691 600 750 561 750 480 c 2x38dd
 750 129 l 1
 775 94 811 65 870 65 c 0
 947 65 970 111 970 180 c 2
 970 600 l 1
 1060 600 l 1
 1060 180 l 2
 1060 55 987 -10 890 -10 c 0xb8cb
 824 -10 775 25 744 61 c 1
 730 18 688 -10 640 -10 c 0
415 560 m 0
 387 560 365 538 365 510 c 0
 365 482 387 460 415 460 c 0
 443 460 465 482 465 510 c 0x30d9
 465 538 443 560 415 560 c 0
160 555 m 0x36c9
 132 555 110 533 110 505 c 0
 110 477 132 455 160 455 c 0
 188 455 210 477 210 505 c 0
 210 533 188 555 160 555 c 0x36c9
EndSplineSet
Layer: 3
SplineSet
238 555 m 0x35c8
 210 555 183 533 177 505 c 0
 176 501 176 498 176 494 c 0
 176 472 193 455 217 455 c 0
 245 455 271 477 277 505 c 0
 278 509 278 512 278 516 c 0
 278 539 262 555 238 555 c 0x35c8
494 560 m 0
 466 560 439 538 433 510 c 0
 432 506 432 503 432 499 c 0
 432 477 449 460 473 460 c 0
 501 460 527 482 533 510 c 0
 534 514 534 517 534 521 c 0x30d8
 534 544 518 560 494 560 c 0
598 -10 m 0x72d8
 546 -10 508 24 508 73 c 0
 508 80 508 87 510 95 c 0
 523 156 583 200 643 200 c 0
 650 200 656 199 662 198 c 1
 718 460 l 2
 719 468 720 475 720 481 c 0
 720 509 706 525 682 525 c 0
 634 525 579 436 519 418 c 1
 458 130 l 2
 439 41 353 -10 248 -10 c 0
 155 -10 95 29 95 100 c 0xbae8
 95 109 96 119 98 130 c 2
 134 300 l 2
 145 353 188 379 223 406 c 1
 217 405 212 405 206 405 c 0
 153 405 115 435 115 483 c 0xb9c8
 115 490 115 497 117 505 c 0
 130 566 190 610 250 610 c 0
 312 610 349 572 349 523 c 0
 349 515 348 508 346 500 c 0
 326 403 241 380 224 300 c 2
 188 130 l 2
 187 126 187 121 187 118 c 0
 187 81 226 65 264 65 c 0
 306 65 358 85 368 130 c 2
 428 416 l 1
 399 428 376 454 376 490 c 0
 376 496 377 503 378 510 c 0
 391 571 453 610 505 610 c 0xb6c8
 551 610 591 579 591 529 c 0
 591 523 590 517 589 511 c 1
 627 552 671 600 728 600 c 0
 772 600 815 571 815 511 c 0
 815 501 814 491 812 480 c 2
 737 129 l 1
 755 94 785 65 844 65 c 0
 921 65 954 111 968 180 c 2
 1058 600 l 1
 1148 600 l 1
 1058 180 l 2
 1032 55 945 -10 848 -10 c 0xbad8
 782 -10 740 25 717 61 c 1
 694 18 646 -10 598 -10 c 0x72d8
610 45 m 0x70e8
 638 45 664 67 670 95 c 0
 671 99 671 102 671 106 c 0
 671 129 655 145 631 145 c 0
 603 145 576 123 570 95 c 0
 569 91 569 88 569 84 c 0
 569 62 586 45 610 45 c 0x70e8
EndSplineSet
Layer: 4
SplineSet
425 550 m 0x20a4
 397 550 375 528 375 500 c 0
 375 472 397 450 425 450 c 0
 453 450 475 472 475 500 c 0
 475 528 453 550 425 550 c 0x20a4
155 445 m 0
 183 445 205 467 205 495 c 0
 205 523 183 545 155 545 c 0
 127 545 105 523 105 495 c 0x2d24
 105 467 127 445 155 445 c 0
155 385 m 0
 87 385 30 425 30 495 c 0
 30 565 87 610 155 610 c 0xac24
 235 610 300 554 300 480 c 0x3524
 300 383 240 364 240 270 c 2
 240 150 l 2x3224
 240 114 273 100 300 100 c 0
 327 100 360 114 360 150 c 2
 360 370 l 2xb164
 360 384 363 396 366 405 c 1
 334 423 310 455 310 500 c 0
 310 570 368 610 425 610 c 0xa8a4
 479 610 534 574 540 510 c 1
 579 549 628 600 690 600 c 0
 761 600 790 551 790 470 c 2
 790 300 l 1x30b4
 790 134 l 1
 811 114 837 100 870 100 c 0
 921 100 950 128 950 200 c 2
 950 600 l 1
 1100 600 l 1
 1100 200 l 2
 1100 56 1035 -10 930 -10 c 0xb02c
 859 -10 811 18 778 54 c 1
 758 14 715 -10 665 -10 c 0x602c
 597 -10 540 35 540 105 c 0
 540 167 585 210 643 218 c 1
 641 224 640 231 640 240 c 2
 640 300 l 1
 640 420 l 2
 640 461 633 480 610 480 c 0
 579 480 524 419 490 407 c 1
 490 150 l 2
 490 52 405 -10 295 -10 c 0
 185 -10 90 52 90 150 c 2
 90 270 l 2xb274
 90 325 126 356 160 385 c 1
 159 385 157 385 155 385 c 0
665 155 m 0
 637 155 615 133 615 105 c 0
 615 77 637 55 665 55 c 0
 693 55 715 77 715 105 c 0x602c
 715 133 693 155 665 155 c 0
EndSplineSet
Layer: 5
SplineSet
658 155 m 0x61d0
 630 155 603 133 597 105 c 0
 596 101 596 98 596 94 c 0
 596 72 613 55 637 55 c 0
 665 55 691 77 697 105 c 0
 698 109 698 112 698 116 c 0
 698 139 682 155 658 155 c 0x61d0
197 385 m 2
 137 385 92 416 92 471 c 0xa390
 92 478 93 486 95 495 c 0
 110 565 177 610 245 610 c 0
 315 610 365 567 365 506 c 0
 365 498 364 489 362 480 c 0
 341 383 277 364 257 270 c 2
 232 150 l 2
 231 146 231 142 231 139 c 0
 231 111 257 100 281 100 c 0
 308 100 344 114 352 150 c 2
 399 370 l 2
 402 384 407 396 412 405 c 1
 389 420 374 444 374 477 c 0
 374 484 374 492 376 500 c 0
 391 570 458 610 515 610 c 0xb590
 565 610 609 579 609 524 c 0
 609 519 609 515 608 510 c 1
 656 549 716 600 778 600 c 0
 833 600 856 571 856 520 c 0
 856 505 854 489 850 470 c 2
 814 300 l 1
 778 134 l 1
 795 114 818 100 851 100 c 0
 902 100 937 128 953 200 c 2
 1038 600 l 1
 1188 600 l 1
 1103 200 l 2
 1072 56 993 -10 888 -10 c 0xadb0
 817 -10 775 18 749 54 c 1
 721 14 673 -10 623 -10 c 0x65b0
 563 -10 519 25 519 80 c 0
 519 88 520 96 522 105 c 0
 535 167 590 210 649 218 c 1
 649 224 649 231 651 240 c 2
 664 300 l 1
 689 420 l 2
 692 434 694 445 694 454 c 0
 694 472 687 480 672 480 c 0
 641 480 573 419 537 407 c 1
 482 150 l 2
 461 52 363 -10 253 -10 c 0
 155 -10 79 40 79 120 c 0xa5d0
 79 130 80 140 82 150 c 2
 107 270 l 2
 119 325 162 356 202 385 c 1
 197 385 l 2
210 445 m 0
 238 445 264 467 270 495 c 0
 271 499 271 502 271 506 c 0
 271 529 255 545 231 545 c 0x3590
 203 545 176 523 170 495 c 0
 169 491 169 488 169 484 c 0
 169 462 186 445 210 445 c 0
502 550 m 0
 474 550 447 528 441 500 c 0
 440 496 440 493 440 489 c 0
 440 467 457 450 481 450 c 0
 509 450 535 472 541 500 c 0
 542 504 542 507 542 511 c 0x21b0
 542 534 526 550 502 550 c 0
EndSplineSet
LCarets2: 1 0
Ligature2: "'liga' Thai - Ligatures" uni0E2B uni0E21
Ligature2: "'liga' Lao - Ligatures" uni0EAB uni0EA1
Colour: ffff00
EndChar

StartChar: uni0EBB
Encoding: 294 3771 38
Width: 0
VWidth: 0
Flags: HW
HStem: 680 55<-390.623 -323.235> 800 80<-386.559 -319.009 -260.765 -99.6427>
VStem: -458 67<735.499 800.479> -94 111<710 793.465>
AnchorPoint: "left-above" -280 640 mark 0
AnchorPoint: "normal-mkmk" -340 920 basemark 0
AnchorPoint: "normal-above" -340 640 mark 0
LayerCount: 6
Back
Fore
SplineSet
-375 680 m 0
 -423 680 -458 711 -458 753 c 0
 -458 758 -457 764 -456 770 c 0
 -444 830 -382 880 -293 880 c 2
 -103 880 l 2
 -31 880 17 842 17 762 c 0
 17 746 15 729 11 710 c 1
 -99 710 l 1
 -96 725 -94 738 -94 749 c 0
 -94 784 -112 800 -160 800 c 2
 -244 800 l 2
 -250 800 -256 802 -261 805 c 1
 -258 795 -258 783 -260 770 c 0
 -271 720 -319 680 -375 680 c 0
-364 735 m 0
 -344 735 -324 751 -320 770 c 0
 -320 772 -319 775 -319 777 c 0
 -319 793 -331 805 -349 805 c 0
 -368 805 -386 789 -390 770 c 0
 -391 767 -391 765 -391 762 c 0
 -391 747 -380 735 -364 735 c 0
EndSplineSet
Layer: 2
SplineSet
-460 810 m 0
 -482 810 -500 792 -500 770 c 0
 -500 748 -482 730 -460 730 c 0
 -438 730 -420 748 -420 770 c 0
 -420 792 -438 810 -460 810 c 0
-382 805 m 1
 -374 795 -370 783 -370 770 c 0
 -370 720 -410 685 -460 685 c 0
 -510 685 -550 720 -550 770 c 0
 -550 830 -506 870 -410 870 c 2
 -280 870 l 2
 -195 870 -130 825 -130 710 c 1
 -210 710 l 1
 -210 772 -226 805 -290 805 c 2
 -382 805 l 1
EndSplineSet
Layer: 3
SplineSet
-251 805 m 1
 -245 795 -244 783 -246 770 c 0
 -257 720 -304 685 -354 685 c 0
 -397 685 -428 711 -428 751 c 0
 -428 757 -427 763 -426 770 c 0
 -414 830 -361 870 -265 870 c 2
 -135 870 l 2
 -64 870 -13 838 -13 760 c 0
 -13 745 -15 728 -19 710 c 1
 -99 710 l 1
 -96 725 -94 739 -94 751 c 0
 -94 786 -111 805 -159 805 c 2
 -251 805 l 1
-328 810 m 0
 -350 810 -372 792 -376 770 c 0
 -377 767 -377 764 -377 761 c 0
 -377 743 -364 730 -345 730 c 0
 -323 730 -301 748 -296 770 c 0
 -296 773 -295 775 -295 777 c 0
 -295 796 -309 810 -328 810 c 0
EndSplineSet
Layer: 4
SplineSet
-480 735 m 0
 -460 735 -444 751 -444 770 c 0
 -444 789 -460 805 -480 805 c 0
 -499 805 -514 789 -514 770 c 0
 -514 751 -499 735 -480 735 c 0
-480 680 m 0
 -535 680 -580 720 -580 770 c 0
 -580 830 -529 880 -440 880 c 2
 -250 880 l 2
 -164 880 -100 825 -100 710 c 1
 -210 710 l 1
 -210 772 -226 800 -290 800 c 2
 -374 800 l 2
 -380 800 -386 802 -392 805 c 1
 -387 795 -384 783 -384 770 c 0
 -384 720 -424 680 -480 680 c 0
EndSplineSet
Layer: 5
SplineSet
-375 680 m 0
 -423 680 -458 711 -458 753 c 0
 -458 758 -457 764 -456 770 c 0
 -444 830 -382 880 -293 880 c 2
 -103 880 l 2
 -31 880 17 842 17 762 c 0
 17 746 15 729 11 710 c 1
 -99 710 l 1
 -96 725 -94 738 -94 749 c 0
 -94 784 -112 800 -160 800 c 2
 -244 800 l 2
 -250 800 -256 802 -261 805 c 1
 -258 795 -258 783 -260 770 c 0
 -271 720 -319 680 -375 680 c 0
-364 735 m 0
 -344 735 -324 751 -320 770 c 0
 -320 772 -319 775 -319 777 c 0
 -319 793 -331 805 -349 805 c 0
 -368 805 -386 789 -390 770 c 0
 -391 767 -391 765 -391 762 c 0
 -391 747 -380 735 -364 735 c 0
EndSplineSet
Colour: ffff
EndChar

StartChar: uni0EB4
Encoding: 295 3764 40
Width: 0
VWidth: 0
Flags: HW
HStem: 690 225<-384.769 -313 -81 -16.7363> 840 75<-328.497 -82.7851>
VStem: -454 109<701.959 824.278> -81 112<742.242 833.985>
AnchorPoint: "left-above" -260 640 mark 0
AnchorPoint: "normal-mkmk" -340 920 basemark 0
AnchorPoint: "normal-above" -340 640 mark 0
LayerCount: 6
Back
Fore
SplineSet
-296 915 m 2x70
 -186 915 l 1x70
 -76 915 l 2
 -8 915 31 878 31 821 c 0
 31 811 30 801 28 790 c 0
 20 751 -24 701 -53 690 c 1
 -153 690 l 1xb0
 -128 708 -91 748 -84 780 c 0
 -82 787 -81 795 -81 801 c 0
 -81 824 -94 840 -141 840 c 2
 -201 840 l 1
 -261 840 l 2x70
 -321 840 -337 814 -344 780 c 0
 -345 775 -345 771 -345 766 c 0
 -345 737 -329 705 -313 690 c 1
 -413 690 l 1xb0
 -434 699 -454 738 -454 773 c 0
 -454 779 -453 784 -452 790 c 0
 -436 864 -376 915 -296 915 c 2x70
EndSplineSet
Layer: 2
SplineSet
-420 900 m 2
 -340 900 l 1
 -260 900 l 2
 -180 900 -130 854 -130 780 c 0
 -130 751 -153 701 -180 690 c 1
 -260 690 l 1
 -238 708 -210 748 -210 780 c 0
 -210 814 -220 840 -280 840 c 2
 -340 840 l 1
 -400 840 l 2
 -460 840 -470 814 -470 780 c 0
 -470 748 -442 708 -420 690 c 1
 -500 690 l 1
 -527 701 -550 751 -550 780 c 0
 -550 854 -500 900 -420 900 c 2
EndSplineSet
Layer: 3
SplineSet
-269 900 m 2
 -189 900 l 1
 -109 900 l 2
 -40 900 -1 866 -1 810 c 0
 -1 801 -2 791 -4 780 c 0
 -10 751 -44 701 -73 690 c 1
 -153 690 l 1
 -128 708 -91 748 -84 780 c 0
 -82 787 -81 795 -81 801 c 0
 -81 824 -94 840 -141 840 c 2
 -201 840 l 1
 -261 840 l 2
 -321 840 -337 814 -344 780 c 0
 -345 775 -345 771 -345 766 c 0
 -345 737 -329 705 -313 690 c 1
 -393 690 l 1
 -414 699 -426 735 -426 764 c 0
 -426 769 -425 775 -424 780 c 0
 -408 854 -349 900 -269 900 c 2
EndSplineSet
Layer: 4
SplineSet
-450 915 m 2
 -340 915 l 1
 -230 915 l 2
 -150 915 -100 864 -100 790 c 0
 -100 751 -133 701 -160 690 c 1
 -260 690 l 1
 -238 708 -210 748 -210 780 c 0
 -210 814 -220 840 -280 840 c 2
 -340 840 l 1
 -400 840 l 2
 -460 840 -470 814 -470 780 c 0
 -470 748 -442 708 -420 690 c 1
 -520 690 l 1
 -547 701 -580 751 -580 790 c 0
 -580 864 -530 915 -450 915 c 2
EndSplineSet
Layer: 5
SplineSet
-296 915 m 2x70
 -186 915 l 1x70
 -76 915 l 2
 -8 915 31 878 31 821 c 0
 31 811 30 801 28 790 c 0
 20 751 -24 701 -53 690 c 1
 -153 690 l 1xb0
 -128 708 -91 748 -84 780 c 0
 -82 787 -81 795 -81 801 c 0
 -81 824 -94 840 -141 840 c 2
 -201 840 l 1
 -261 840 l 2x70
 -321 840 -337 814 -344 780 c 0
 -345 775 -345 771 -345 766 c 0
 -345 737 -329 705 -313 690 c 1
 -413 690 l 1xb0
 -434 699 -454 738 -454 773 c 0
 -454 779 -453 784 -452 790 c 0
 -436 864 -376 915 -296 915 c 2x70
EndSplineSet
EndChar

StartChar: uni0EB5
Encoding: 296 3765 41
Width: 0
VWidth: 0
Flags: HW
HStem: 690 70<-198 -112.55 -41 97> 840 75<-358.497 -114.775>
VStem: -484 109<701.959 824.278> -111 81<760.328 835.754>
AnchorPoint: "left-above" -260 640 mark 0
AnchorPoint: "normal-mkmk" -380 920 basemark 0
AnchorPoint: "normal-above" -340 640 mark 0
LayerCount: 6
Back
Fore
SplineSet
97 690 m 1
 -213 690 l 1
 -198 760 l 1
 -121 760 l 1
 -118 767 -116 773 -114 780 c 0
 -112 787 -111 795 -111 801 c 0
 -111 824 -124 840 -171 840 c 2
 -231 840 l 1
 -291 840 l 2
 -351 840 -367 814 -374 780 c 0
 -375 775 -375 771 -375 766 c 0
 -375 737 -359 705 -343 690 c 1
 -443 690 l 1
 -464 699 -484 738 -484 773 c 0
 -484 779 -483 784 -482 790 c 0
 -466 864 -406 915 -326 915 c 2
 -216 915 l 1
 -136 915 l 2
 -68 915 -30 871 -30 812 c 0
 -30 802 -32 791 -34 780 c 0
 -35 774 -38 767 -41 760 c 1
 112 760 l 1
 97 690 l 1
EndSplineSet
Layer: 2
SplineSet
-450 900 m 2
 -380 900 l 1
 -310 900 l 2
 -230 900 -190 854 -190 780 c 0
 -190 768 -195 756 -202 745 c 1
 -40 745 l 1
 -40 690 l 1
 -350 690 l 1
 -350 745 l 1
 -266 745 l 1
 -259 756 -255 768 -255 780 c 0
 -255 814 -270 840 -330 840 c 2
 -380 840 l 1
 -430 840 l 2
 -490 840 -500 814 -500 780 c 0
 -500 748 -472 708 -450 690 c 1
 -530 690 l 1
 -557 701 -580 751 -580 780 c 0
 -580 854 -530 900 -450 900 c 2
EndSplineSet
Layer: 3
SplineSet
-299 900 m 2
 -229 900 l 1
 -159 900 l 2
 -93 900 -60 868 -60 815 c 0
 -60 804 -61 793 -64 780 c 0
 -67 768 -74 756 -84 745 c 1
 78 745 l 1
 67 690 l 1
 -243 690 l 1
 -232 745 l 1
 -148 745 l 1
 -138 756 -132 768 -129 780 c 0
 -128 786 -127 792 -127 798 c 0
 -127 823 -142 840 -191 840 c 2
 -241 840 l 1
 -291 840 l 2
 -351 840 -367 814 -374 780 c 0
 -375 775 -375 771 -375 766 c 0
 -375 737 -359 705 -343 690 c 1
 -423 690 l 1
 -444 699 -456 735 -456 764 c 0
 -456 769 -455 775 -454 780 c 0
 -438 854 -379 900 -299 900 c 2
EndSplineSet
Layer: 4
SplineSet
-10 690 m 1
 -320 690 l 1
 -320 760 l 1
 -243 760 l 1
 -241 767 -240 773 -240 780 c 0
 -240 814 -250 840 -310 840 c 2
 -370 840 l 1
 -430 840 l 2
 -490 840 -500 814 -500 780 c 0
 -500 748 -472 708 -450 690 c 1
 -550 690 l 1
 -577 701 -610 751 -610 790 c 0
 -610 864 -560 915 -480 915 c 2
 -370 915 l 1
 -290 915 l 2
 -210 915 -160 854 -160 780 c 0
 -160 774 -161 767 -163 760 c 1
 -10 760 l 1
 -10 690 l 1
EndSplineSet
Layer: 5
SplineSet
97 690 m 1
 -213 690 l 1
 -198 760 l 1
 -121 760 l 1
 -118 767 -116 773 -114 780 c 0
 -112 787 -111 795 -111 801 c 0
 -111 824 -124 840 -171 840 c 2
 -231 840 l 1
 -291 840 l 2
 -351 840 -367 814 -374 780 c 0
 -375 775 -375 771 -375 766 c 0
 -375 737 -359 705 -343 690 c 1
 -443 690 l 1
 -464 699 -484 738 -484 773 c 0
 -484 779 -483 784 -482 790 c 0
 -466 864 -406 915 -326 915 c 2
 -216 915 l 1
 -136 915 l 2
 -68 915 -30 871 -30 812 c 0
 -30 802 -32 791 -34 780 c 0
 -35 774 -38 767 -41 760 c 1
 112 760 l 1
 97 690 l 1
EndSplineSet
Substitution2: "Lao+-Thai - Vowel Above Alt" uni0EB5.alt
EndChar

StartChar: uni0EB6
Encoding: 297 3766 42
Width: 0
VWidth: 0
Flags: HW
HStem: 680 120<-265.352 -179.893> 690 225<-384.769 -313 -81 -16.7363> 840 75<-328.497 -82.7851>
VStem: -454 109<701.959 824.278> -284 123<699.339 780.685> -81 112<742.242 833.985>
AnchorPoint: "left-above" -260 640 mark 0
AnchorPoint: "normal-mkmk" -340 920 basemark 0
AnchorPoint: "normal-above" -340 640 mark 0
LayerCount: 6
Back
Fore
SplineSet
-296 915 m 2x3c
 -186 915 l 1x3c
 -76 915 l 2
 -8 915 31 878 31 821 c 0
 31 811 30 801 28 790 c 0
 20 751 -24 701 -53 690 c 1
 -153 690 l 1x5c
 -128 708 -91 748 -84 780 c 0
 -82 787 -81 795 -81 801 c 0
 -81 824 -94 840 -141 840 c 2
 -201 840 l 1
 -261 840 l 2x3c
 -321 840 -337 814 -344 780 c 0
 -345 775 -345 771 -345 766 c 0
 -345 737 -329 705 -313 690 c 1
 -413 690 l 1x5c
 -434 699 -454 738 -454 773 c 0
 -454 779 -453 784 -452 790 c 0
 -436 864 -376 915 -296 915 c 2x3c
-163 740 m 0
 -170 706 -201 680 -235 680 c 0
 -265 680 -284 700 -284 727 c 0
 -284 731 -284 736 -283 740 c 0
 -275 774 -244 800 -210 800 c 0x9c
 -181 800 -161 781 -161 754 c 0
 -161 750 -162 745 -163 740 c 0
EndSplineSet
Layer: 2
SplineSet
-420 900 m 2
 -340 900 l 1
 -260 900 l 2
 -180 900 -130 854 -130 780 c 0
 -130 751 -153 701 -180 690 c 1
 -250 690 l 1
 -228 708 -200 748 -200 780 c 0
 -200 814 -210 840 -270 840 c 2
 -340 840 l 1
 -410 840 l 2
 -470 840 -480 814 -480 780 c 0
 -480 748 -452 708 -430 690 c 1
 -500 690 l 1
 -527 701 -550 751 -550 780 c 0
 -550 854 -500 900 -420 900 c 2
-290 740 m 0
 -290 712 -312 690 -340 690 c 0
 -368 690 -390 712 -390 740 c 0
 -390 768 -368 790 -340 790 c 0
 -312 790 -290 768 -290 740 c 0
EndSplineSet
Layer: 3
SplineSet
-173 740 m 0
 -179 712 -205 690 -233 690 c 0
 -257 690 -274 707 -274 729 c 0
 -274 733 -274 736 -273 740 c 0
 -267 768 -240 790 -212 790 c 0
 -188 790 -172 774 -172 751 c 0
 -172 747 -172 744 -173 740 c 0
-269 900 m 2
 -189 900 l 1
 -109 900 l 2
 -40 900 -1 866 -1 810 c 0
 -1 801 -2 791 -4 780 c 0
 -10 751 -44 701 -73 690 c 1
 -143 690 l 1
 -118 708 -81 748 -74 780 c 0
 -72 787 -71 795 -71 801 c 0
 -71 824 -84 840 -131 840 c 2
 -201 840 l 1
 -271 840 l 2
 -331 840 -347 814 -354 780 c 0
 -355 775 -355 771 -355 766 c 0
 -355 737 -339 705 -323 690 c 1
 -393 690 l 1
 -414 699 -426 735 -426 764 c 0
 -426 769 -425 775 -424 780 c 0
 -408 854 -349 900 -269 900 c 2
EndSplineSet
Layer: 4
SplineSet
-280 740 m 0
 -280 706 -306 680 -340 680 c 0
 -374 680 -400 706 -400 740 c 0
 -400 774 -374 800 -340 800 c 0
 -306 800 -280 774 -280 740 c 0
-450 915 m 2
 -340 915 l 1
 -230 915 l 2
 -150 915 -100 864 -100 790 c 0
 -100 751 -133 701 -160 690 c 1
 -260 690 l 1
 -238 708 -210 748 -210 780 c 0
 -210 814 -220 840 -280 840 c 2
 -340 840 l 1
 -400 840 l 2
 -460 840 -470 814 -470 780 c 0
 -470 748 -442 708 -420 690 c 1
 -520 690 l 1
 -547 701 -580 751 -580 790 c 0
 -580 864 -530 915 -450 915 c 2
EndSplineSet
Layer: 5
SplineSet
-296 915 m 2x3c
 -186 915 l 1x3c
 -76 915 l 2
 -8 915 31 878 31 821 c 0
 31 811 30 801 28 790 c 0
 20 751 -24 701 -53 690 c 1
 -153 690 l 1x5c
 -128 708 -91 748 -84 780 c 0
 -82 787 -81 795 -81 801 c 0
 -81 824 -94 840 -141 840 c 2
 -201 840 l 1
 -261 840 l 2x3c
 -321 840 -337 814 -344 780 c 0
 -345 775 -345 771 -345 766 c 0
 -345 737 -329 705 -313 690 c 1
 -413 690 l 1x5c
 -434 699 -454 738 -454 773 c 0
 -454 779 -453 784 -452 790 c 0
 -436 864 -376 915 -296 915 c 2x3c
-163 740 m 0
 -170 706 -201 680 -235 680 c 0
 -265 680 -284 700 -284 727 c 0
 -284 731 -284 736 -283 740 c 0
 -275 774 -244 800 -210 800 c 0x9c
 -181 800 -161 781 -161 754 c 0
 -161 750 -162 745 -163 740 c 0
EndSplineSet
EndChar

StartChar: uni0EB7
Encoding: 298 3767 43
Width: 0
VWidth: 0
Flags: HW
HStem: 680 120<-295.352 -209.893> 690 70<-41 97> 840 75<-358.497 -114.775>
VStem: -484 109<701.959 824.278> -314 123<699.339 780.685> -111 81<761.354 835.587>
AnchorPoint: "left-above" -260 640 mark 0
AnchorPoint: "normal-mkmk" -380 920 basemark 0
AnchorPoint: "normal-above" -340 640 mark 0
LayerCount: 6
Back
Fore
SplineSet
-231 840 m 1x7c
 -291 840 l 2
 -351 840 -367 814 -374 780 c 0
 -375 775 -375 771 -375 766 c 0
 -375 737 -359 705 -343 690 c 1
 -443 690 l 1
 -464 699 -484 738 -484 773 c 0
 -484 779 -483 784 -482 790 c 0
 -466 864 -406 915 -326 915 c 2
 -216 915 l 1
 -136 915 l 2
 -68 915 -30 871 -30 812 c 0
 -30 802 -32 791 -34 780 c 0
 -35 774 -38 767 -41 760 c 1
 112 760 l 1
 97 690 l 1
 -183 690 l 1
 -158 708 -121 748 -114 780 c 0
 -112 787 -111 795 -111 801 c 0
 -111 824 -124 840 -171 840 c 2
 -231 840 l 1x7c
-193 740 m 0
 -200 706 -231 680 -265 680 c 0
 -295 680 -314 700 -314 727 c 0
 -314 731 -314 736 -313 740 c 0
 -305 774 -274 800 -240 800 c 0xbc
 -211 800 -191 781 -191 754 c 0
 -191 750 -192 745 -193 740 c 0
EndSplineSet
Layer: 2
SplineSet
-450 900 m 2x7c
 -380 900 l 1
 -310 900 l 2
 -230 900 -190 854 -190 780 c 0
 -190 768 -195 756 -202 745 c 1
 -40 745 l 1
 -40 690 l 1
 -300 690 l 1
 -278 708 -245 748 -245 780 c 0
 -245 814 -260 840 -320 840 c 2
 -380 840 l 1
 -440 840 l 2
 -500 840 -510 814 -510 780 c 0
 -510 748 -482 708 -460 690 c 1
 -530 690 l 1
 -557 701 -580 751 -580 780 c 0
 -580 854 -530 900 -450 900 c 2x7c
-330 740 m 0
 -330 712 -352 690 -380 690 c 0
 -408 690 -430 712 -430 740 c 0
 -430 768 -408 790 -380 790 c 0xbc
 -352 790 -330 768 -330 740 c 0
EndSplineSet
Layer: 3
SplineSet
-213 740 m 0xbc
 -219 712 -245 690 -273 690 c 0
 -297 690 -314 707 -314 729 c 0
 -314 733 -314 736 -313 740 c 0
 -307 768 -280 790 -252 790 c 0
 -228 790 -212 774 -212 751 c 0
 -212 747 -212 744 -213 740 c 0xbc
-299 900 m 2
 -229 900 l 1
 -159 900 l 2
 -93 900 -60 868 -60 815 c 0
 -60 804 -61 793 -64 780 c 0
 -67 768 -74 756 -84 745 c 1
 78 745 l 1
 67 690 l 1
 -193 690 l 1
 -168 708 -126 748 -119 780 c 0
 -118 786 -117 792 -117 798 c 0
 -117 823 -132 840 -181 840 c 2
 -241 840 l 1
 -301 840 l 2
 -361 840 -377 814 -384 780 c 0
 -385 775 -385 771 -385 766 c 0
 -385 737 -369 705 -353 690 c 1
 -423 690 l 1x7c
 -444 699 -456 735 -456 764 c 0
 -456 769 -455 775 -454 780 c 0
 -438 854 -379 900 -299 900 c 2
EndSplineSet
Layer: 4
SplineSet
-310 740 m 0xbc
 -310 706 -336 680 -370 680 c 0
 -404 680 -430 706 -430 740 c 0
 -430 774 -404 800 -370 800 c 0
 -336 800 -310 774 -310 740 c 0xbc
-370 840 m 1
 -430 840 l 2
 -490 840 -500 814 -500 780 c 0
 -500 748 -472 708 -450 690 c 1
 -550 690 l 1
 -577 701 -610 751 -610 790 c 0
 -610 864 -560 915 -480 915 c 2
 -370 915 l 1
 -290 915 l 2
 -210 915 -160 854 -160 780 c 0
 -160 774 -161 767 -163 760 c 1
 -10 760 l 1
 -10 690 l 1
 -290 690 l 1x7c
 -268 708 -240 748 -240 780 c 0
 -240 814 -250 840 -310 840 c 2
 -370 840 l 1
EndSplineSet
Layer: 5
SplineSet
-231 840 m 1x7c
 -291 840 l 2
 -351 840 -367 814 -374 780 c 0
 -375 775 -375 771 -375 766 c 0
 -375 737 -359 705 -343 690 c 1
 -443 690 l 1
 -464 699 -484 738 -484 773 c 0
 -484 779 -483 784 -482 790 c 0
 -466 864 -406 915 -326 915 c 2
 -216 915 l 1
 -136 915 l 2
 -68 915 -30 871 -30 812 c 0
 -30 802 -32 791 -34 780 c 0
 -35 774 -38 767 -41 760 c 1
 112 760 l 1
 97 690 l 1
 -183 690 l 1
 -158 708 -121 748 -114 780 c 0
 -112 787 -111 795 -111 801 c 0
 -111 824 -124 840 -171 840 c 2
 -231 840 l 1x7c
-193 740 m 0
 -200 706 -231 680 -265 680 c 0
 -295 680 -314 700 -314 727 c 0
 -314 731 -314 736 -313 740 c 0
 -305 774 -274 800 -240 800 c 0xbc
 -211 800 -191 781 -191 754 c 0
 -191 750 -192 745 -193 740 c 0
EndSplineSet
Substitution2: "Lao+-Thai - Vowel Above Alt" uni0EB7.alt
EndChar

StartChar: uni0EC8
Encoding: 299 3784 44
Width: 0
VWidth: 0
Flags: HW
HStem: 960 220<-184 -121>
VStem: -231 157
AnchorPoint: "left-above" -320 900 mark 0
AnchorPoint: "normal-mkmk" -340 920 mark 0
AnchorPoint: "normal-above" -340 900 mark 0
LayerCount: 6
Back
Fore
SplineSet
-184 1180 m 1
 -74 1180 l 1
 -121 960 l 1
 -231 960 l 1
 -184 1180 l 1
EndSplineSet
Layer: 2
SplineSet
-370 1150 m 1
 -290 1150 l 1
 -290 970 l 1
 -370 970 l 1
 -370 1150 l 1
EndSplineSet
Layer: 3
SplineSet
-166 1150 m 1
 -86 1150 l 1
 -124 970 l 1
 -204 970 l 1
 -166 1150 l 1
EndSplineSet
Layer: 4
SplineSet
-395 1180 m 1
 -285 1180 l 1
 -285 960 l 1
 -395 960 l 1
 -395 1180 l 1
EndSplineSet
Layer: 5
SplineSet
-184 1180 m 1
 -74 1180 l 1
 -121 960 l 1
 -231 960 l 1
 -184 1180 l 1
EndSplineSet
EndChar

StartChar: uni0ECB
Encoding: 300 3787 45
Width: 0
VWidth: 0
Flags: HW
HStem: 1035 70<-295 -206 -91 0>
VStem: -310 325
AnchorPoint: "left-above" -260 900 mark 0
AnchorPoint: "normal-mkmk" -340 920 mark 0
AnchorPoint: "normal-above" -340 900 mark 0
LayerCount: 6
Back
Fore
SplineSet
-175 1180 m 1
 -75 1180 l 1
 -91 1105 l 1
 15 1105 l 1
 0 1035 l 1
 -106 1035 l 1
 -122 960 l 1
 -222 960 l 1
 -206 1035 l 1
 -310 1035 l 1
 -295 1105 l 1
 -191 1105 l 1
 -175 1180 l 1
EndSplineSet
Layer: 2
SplineSet
-370 1150 m 1
 -290 1150 l 1
 -290 1090 l 1
 -200 1090 l 1
 -200 1030 l 1
 -290 1030 l 1
 -290 970 l 1
 -370 970 l 1
 -370 1030 l 1
 -460 1030 l 1
 -460 1090 l 1
 -370 1090 l 1
 -370 1150 l 1
EndSplineSet
Layer: 3
SplineSet
-166 1150 m 1
 -86 1150 l 1
 -98 1090 l 1
 -8 1090 l 1
 -21 1030 l 1
 -111 1030 l 1
 -124 970 l 1
 -204 970 l 1
 -191 1030 l 1
 -281 1030 l 1
 -268 1090 l 1
 -178 1090 l 1
 -166 1150 l 1
EndSplineSet
Layer: 4
SplineSet
-386 1180 m 1
 -286 1180 l 1
 -286 1105 l 1
 -180 1105 l 1
 -180 1035 l 1
 -286 1035 l 1
 -286 960 l 1
 -386 960 l 1
 -386 1035 l 1
 -490 1035 l 1
 -490 1105 l 1
 -386 1105 l 1
 -386 1180 l 1
EndSplineSet
Layer: 5
SplineSet
-175 1180 m 1
 -75 1180 l 1
 -91 1105 l 1
 15 1105 l 1
 0 1035 l 1
 -106 1035 l 1
 -122 960 l 1
 -222 960 l 1
 -206 1035 l 1
 -310 1035 l 1
 -295 1105 l 1
 -191 1105 l 1
 -175 1180 l 1
EndSplineSet
EndChar

StartChar: uni0EC9
Encoding: 301 3785 46
Width: 0
VWidth: 0
Flags: HW
HStem: 960 65<-203 -69.3388> 960 55<-344 -252.706> 1035 40<-265.703 -252> 1135 45<-262.684 -204.516>
VStem: -317 51<1075.39 1132.65> -204 51<1078.24 1133.82> -23 105<1076.24 1140>
AnchorPoint: "left-above" -260 900 mark 0
AnchorPoint: "normal-mkmk" -340 920 mark 0
AnchorPoint: "normal-above" -340 900 mark 0
LayerCount: 6
Back
Fore
SplineSet
-356 960 m 1x7e
 -344 1015 l 1
 -304 1015 l 2x7e
 -286 1015 -267 1023 -252 1035 c 1
 -290 1036 -317 1058 -317 1090 c 0
 -317 1095 -316 1100 -315 1105 c 0
 -306 1146 -263 1180 -219 1180 c 0
 -180 1180 -153 1154 -153 1120 c 0
 -153 1115 -154 1110 -155 1105 c 0
 -163 1069 -185 1042 -203 1025 c 1
 -132 1025 l 2
 -78 1025 -39 1065 -23 1140 c 1
 82 1140 l 1
 58 1025 -23 960 -116 960 c 2xbe
 -356 960 l 1x7e
-229 1135 m 0
 -246 1135 -262 1122 -265 1105 c 0
 -266 1102 -266 1100 -266 1098 c 0
 -266 1084 -256 1075 -242 1075 c 0
 -225 1075 -209 1088 -205 1105 c 0
 -205 1107 -204 1109 -204 1111 c 0
 -204 1125 -214 1135 -229 1135 c 0
EndSplineSet
Layer: 2
SplineSet
-410 1135 m 0x3c
 -427 1135 -440 1122 -440 1105 c 0
 -440 1088 -427 1075 -410 1075 c 0
 -393 1075 -380 1088 -380 1105 c 0
 -380 1122 -393 1135 -410 1135 c 0x3c
-490 970 m 1x7c
 -490 1015 l 1
 -480 1015 l 2x7c
 -458 1015 -431 1025 -416 1040 c 1
 -452 1043 -480 1068 -480 1105 c 0
 -480 1144 -449 1170 -410 1170 c 0
 -371 1170 -340 1144 -340 1105 c 0
 -340 1071 -354 1044 -369 1025 c 1
 -290 1025 l 2
 -236 1025 -205 1055 -205 1130 c 1
 -130 1130 l 1
 -130 1015 -197 970 -290 970 c 2xbc
 -490 970 l 1x7c
EndSplineSet
Layer: 3
SplineSet
-324 970 m 1x3e
 -314 1015 l 1
 -304 1015 l 2x3e
 -282 1015 -253 1025 -235 1040 c 1
 -265 1043 -287 1062 -287 1091 c 0
 -287 1095 -286 1100 -285 1105 c 0
 -277 1144 -240 1170 -201 1170 c 0
 -167 1170 -144 1150 -144 1119 c 0
 -144 1115 -144 1110 -145 1105 c 0
 -152 1071 -172 1044 -191 1025 c 1
 -112 1025 l 2
 -58 1025 -21 1055 -5 1130 c 1
 70 1130 l 1
 46 1015 -31 970 -124 970 c 2x5e
 -324 970 l 1x3e
-209 1135 m 0
 -226 1135 -242 1122 -245 1105 c 0
 -246 1102 -246 1100 -246 1098 c 0
 -246 1084 -236 1075 -222 1075 c 0x9e
 -205 1075 -189 1088 -185 1105 c 0
 -185 1107 -184 1109 -184 1111 c 0
 -184 1125 -194 1135 -209 1135 c 0
EndSplineSet
Layer: 4
SplineSet
-430 1135 m 0x3e
 -447 1135 -460 1122 -460 1105 c 0
 -460 1088 -447 1075 -430 1075 c 0
 -413 1075 -400 1088 -400 1105 c 0
 -400 1122 -413 1135 -430 1135 c 0x3e
-520 960 m 1x7e
 -520 1015 l 1
 -480 1015 l 2x7e
 -462 1015 -444 1023 -432 1035 c 1
 -475 1036 -510 1064 -510 1105 c 0
 -510 1146 -474 1180 -430 1180 c 0
 -386 1180 -350 1146 -350 1105 c 0
 -350 1069 -366 1042 -381 1025 c 1
 -310 1025 l 2
 -256 1025 -225 1065 -225 1140 c 1
 -120 1140 l 1
 -120 1025 -187 960 -280 960 c 2xbe
 -520 960 l 1x7e
EndSplineSet
Layer: 5
SplineSet
-356 960 m 1x7e
 -344 1015 l 1
 -304 1015 l 2x7e
 -286 1015 -267 1023 -252 1035 c 1
 -290 1036 -317 1058 -317 1090 c 0
 -317 1095 -316 1100 -315 1105 c 0
 -306 1146 -263 1180 -219 1180 c 0
 -180 1180 -153 1154 -153 1120 c 0
 -153 1115 -154 1110 -155 1105 c 0
 -163 1069 -185 1042 -203 1025 c 1
 -132 1025 l 2
 -78 1025 -39 1065 -23 1140 c 1
 82 1140 l 1
 58 1025 -23 960 -116 960 c 2xbe
 -356 960 l 1x7e
-229 1135 m 0
 -246 1135 -262 1122 -265 1105 c 0
 -266 1102 -266 1100 -266 1098 c 0
 -266 1084 -256 1075 -242 1075 c 0
 -225 1075 -209 1088 -205 1105 c 0
 -205 1107 -204 1109 -204 1111 c 0
 -204 1125 -214 1135 -229 1135 c 0
EndSplineSet
EndChar

StartChar: uni0ECD
Encoding: 302 3789 47
Width: 0
VWidth: 0
Flags: HW
HStem: 670 70<-265.386 -179.039> 840 70<-255.365 -169.097>
VStem: -355 87<742.953 826.55> -166 87<753.45 837.047>
AnchorPoint: "left-above" -320 640 mark 0
AnchorPoint: "normal-mkmk" -340 920 basemark 0
AnchorPoint: "normal-above" -340 640 mark 0
LayerCount: 6
Back
Fore
SplineSet
-206 840 m 0
 -234 840 -261 818 -267 790 c 0
 -268 786 -268 783 -268 779 c 0
 -268 756 -252 740 -228 740 c 0
 -200 740 -173 762 -167 790 c 0
 -166 794 -166 797 -166 801 c 0
 -166 824 -182 840 -206 840 c 0
-192 910 m 0
 -123 910 -79 869 -79 814 c 0
 -79 806 -80 798 -82 790 c 0
 -96 723 -164 670 -243 670 c 0
 -312 670 -355 711 -355 766 c 0
 -355 774 -354 782 -352 790 c 0
 -338 857 -271 910 -192 910 c 0
EndSplineSet
Layer: 2
SplineSet
-330 900 m 0
 -260 900 -210 851 -210 790 c 0
 -210 729 -260 680 -330 680 c 0
 -400 680 -450 729 -450 790 c 0
 -450 851 -400 900 -330 900 c 0
-330 845 m 0
 -360 845 -385 820 -385 790 c 0
 -385 760 -360 735 -330 735 c 0
 -300 735 -275 760 -275 790 c 0
 -275 820 -300 845 -330 845 c 0
EndSplineSet
Layer: 3
SplineSet
-190 845 m 0
 -220 845 -251 820 -257 790 c 0
 -258 786 -258 783 -258 779 c 0
 -258 754 -240 735 -214 735 c 0
 -184 735 -153 760 -147 790 c 0
 -146 794 -146 797 -146 801 c 0
 -146 826 -164 845 -190 845 c 0
-179 900 m 0
 -118 900 -80 863 -80 812 c 0
 -80 805 -80 798 -82 790 c 0
 -95 729 -155 680 -225 680 c 0
 -286 680 -324 717 -324 768 c 0
 -324 775 -324 782 -322 790 c 0
 -309 851 -249 900 -179 900 c 0
EndSplineSet
Layer: 4
SplineSet
-345 910 m 0
 -266 910 -210 857 -210 790 c 0
 -210 723 -266 670 -345 670 c 0
 -424 670 -480 723 -480 790 c 0
 -480 857 -424 910 -345 910 c 0
-345 840 m 0
 -373 840 -395 818 -395 790 c 0
 -395 762 -373 740 -345 740 c 0
 -317 740 -295 762 -295 790 c 0
 -295 818 -317 840 -345 840 c 0
EndSplineSet
Layer: 5
SplineSet
-206 840 m 0
 -234 840 -261 818 -267 790 c 0
 -268 786 -268 783 -268 779 c 0
 -268 756 -252 740 -228 740 c 0
 -200 740 -173 762 -167 790 c 0
 -166 794 -166 797 -166 801 c 0
 -166 824 -182 840 -206 840 c 0
-192 910 m 0
 -123 910 -79 869 -79 814 c 0
 -79 806 -80 798 -82 790 c 0
 -96 723 -164 670 -243 670 c 0
 -312 670 -355 711 -355 766 c 0
 -355 774 -354 782 -352 790 c 0
 -338 857 -271 910 -192 910 c 0
EndSplineSet
EndChar

StartChar: uni0ECA
Encoding: 304 3786 49
Width: 0
VWidth: 0
Flags: HW
HStem: 960 36<-292.998 -245.357> 1046 34<-278.818 -243.157>
VStem: -357 155<987 1071.34> -88 71<1043.94 1114.56> 16 90<1056.06 1110>
AnchorPoint: "left-above" -240 900 mark 0
AnchorPoint: "normal-mkmk" -340 920 mark 0
AnchorPoint: "normal-above" -340 900 mark 0
LayerCount: 6
Back
Fore
SplineSet
-255 1080 m 0
 -223 1080 -202 1060 -202 1032 c 0
 -202 1028 -202 1024 -203 1020 c 0
 -210 987 -245 960 -281 960 c 0
 -332 960 -357 996 -357 1038 c 0
 -357 1045 -356 1053 -355 1060 c 0
 -337 1143 -243 1176 -225 1176 c 1
 -170 1130 l 1
 -95 1176 l 1
 -80 1176 -17 1150 -17 1084 c 0
 -17 1077 -18 1069 -20 1060 c 0
 -21 1055 -23 1049 -25 1043 c 1
 -1 1056 10 1080 16 1110 c 1
 106 1110 l 1
 90 1034 36 970 -104 970 c 2
 -144 970 l 1
 -122 990 -97 1024 -91 1056 c 0
 -89 1064 -88 1071 -88 1078 c 0
 -88 1095 -94 1108 -103 1116 c 1
 -183 1070 l 1
 -243 1116 l 1
 -255 1109 -270 1095 -279 1076 c 1
 -272 1079 -264 1080 -255 1080 c 0
-263 1046 m 0
 -277 1046 -290 1034 -293 1020 c 0
 -296 1007 -287 996 -273 996 c 0
 -259 996 -246 1007 -243 1020 c 0
 -240 1034 -249 1046 -263 1046 c 0
EndSplineSet
Layer: 2
SplineSet
-415 1000 m 0
 -401 1000 -390 1011 -390 1025 c 0
 -390 1039 -401 1050 -415 1050 c 0
 -429 1050 -440 1039 -440 1025 c 0
 -440 1011 -429 1000 -415 1000 c 0
-415 1170 m 1
 -350 1125 l 1
 -285 1170 l 1
 -268 1170 -195 1142 -195 1060 c 0
 -195 1049 -198 1039 -202 1030 c 1
 -169 1040 -165 1064 -165 1100 c 1
 -100 1100 l 1
 -100 1024 -120 980 -260 980 c 2
 -300 980 l 1
 -278 998 -255 1028 -255 1060 c 0
 -255 1091 -271 1114 -285 1120 c 1
 -350 1080 l 1
 -415 1120 l 1
 -429 1115 -448 1099 -450 1066 c 1
 -441 1074 -429 1080 -415 1080 c 0
 -382 1080 -355 1058 -355 1025 c 0
 -355 992 -382 970 -415 970 c 0
 -479 970 -510 1022 -510 1060 c 0
 -510 1142 -433 1170 -415 1170 c 1
EndSplineSet
Layer: 3
SplineSet
-206 1170 m 1
 -151 1125 l 1
 -76 1170 l 1
 -61 1170 -7 1148 -7 1087 c 0
 -7 1078 -8 1070 -10 1060 c 0
 -12 1049 -17 1039 -23 1030 c 1
 12 1040 21 1064 29 1100 c 1
 94 1100 l 1
 78 1024 48 980 -92 980 c 2
 -132 980 l 1
 -106 998 -76 1028 -70 1060 c 0
 -68 1067 -68 1073 -68 1079 c 0
 -68 1100 -77 1115 -87 1120 c 1
 -160 1080 l 1
 -217 1120 l 1
 -232 1115 -254 1099 -263 1066 c 1
 -253 1074 -239 1080 -225 1080 c 0
 -196 1080 -176 1063 -176 1037 c 0
 -176 1033 -176 1029 -177 1025 c 0
 -184 992 -216 970 -249 970 c 0
 -304 970 -327 1009 -327 1044 c 0
 -327 1049 -326 1055 -325 1060 c 0
 -307 1142 -224 1170 -206 1170 c 1
-242 1000 m 0
 -228 1000 -215 1011 -212 1025 c 0
 -209 1039 -218 1050 -232 1050 c 0
 -246 1050 -259 1039 -262 1025 c 0
 -265 1011 -256 1000 -242 1000 c 0
EndSplineSet
Layer: 4
SplineSet
-445 1046 m 0
 -459 1046 -470 1034 -470 1020 c 0
 -470 1007 -459 996 -445 996 c 0
 -431 996 -420 1007 -420 1020 c 0
 -420 1034 -431 1046 -445 1046 c 0
-445 1080 m 0
 -409 1080 -380 1054 -380 1020 c 0
 -380 987 -409 960 -445 960 c 0
 -505 960 -540 1010 -540 1060 c 0
 -540 1143 -453 1176 -435 1176 c 1
 -370 1130 l 1
 -305 1176 l 1
 -288 1176 -205 1143 -205 1060 c 0
 -205 1055 -206 1049 -207 1043 c 1
 -185 1056 -180 1080 -180 1110 c 1
 -90 1110 l 1
 -90 1034 -130 970 -270 970 c 2
 -310 970 l 1
 -292 990 -275 1024 -275 1056 c 0
 -275 1085 -286 1105 -300 1116 c 1
 -370 1070 l 1
 -440 1116 l 1
 -451 1109 -463 1095 -468 1076 c 1
 -461 1079 -454 1080 -445 1080 c 0
EndSplineSet
Layer: 5
SplineSet
-255 1080 m 0
 -223 1080 -202 1060 -202 1032 c 0
 -202 1028 -202 1024 -203 1020 c 0
 -210 987 -245 960 -281 960 c 0
 -332 960 -357 996 -357 1038 c 0
 -357 1045 -356 1053 -355 1060 c 0
 -337 1143 -243 1176 -225 1176 c 1
 -170 1130 l 1
 -95 1176 l 1
 -80 1176 -17 1150 -17 1084 c 0
 -17 1077 -18 1069 -20 1060 c 0
 -21 1055 -23 1049 -25 1043 c 1
 -1 1056 10 1080 16 1110 c 1
 106 1110 l 1
 90 1034 36 970 -104 970 c 2
 -144 970 l 1
 -122 990 -97 1024 -91 1056 c 0
 -89 1064 -88 1071 -88 1078 c 0
 -88 1095 -94 1108 -103 1116 c 1
 -183 1070 l 1
 -243 1116 l 1
 -255 1109 -270 1095 -279 1076 c 1
 -272 1079 -264 1080 -255 1080 c 0
-263 1046 m 0
 -277 1046 -290 1034 -293 1020 c 0
 -296 1007 -287 996 -273 996 c 0
 -259 996 -246 1007 -243 1020 c 0
 -240 1034 -249 1046 -263 1046 c 0
EndSplineSet
EndChar

StartChar: uni0EAF
Encoding: 305 3759 50
Width: 590
VWidth: 0
Flags: HW
HStem: -10 86<263.109 348.81> 380 65<151.368 236.927> 480 120<385 535.5> 545 65<162.133 247.869>
VStem: 72 77<448.025 531.606> 251 77<507 541.975> 424 162<377.422 553.055>
LayerCount: 6
Back
Fore
SplineSet
508 600 m 0xee
 563 600 586 571 586 520 c 0
 586 505 584 489 580 470 c 2
 506 120 l 2
 489 42 431 -10 343 -10 c 0
 286 -10 253 4 233 15 c 1
 273 85 l 1
 273 85 292 76 313 76 c 0
 330 76 348 83 356 120 c 2
 419 420 l 2
 422 434 424 445 424 454 c 0
 424 472 417 480 402 480 c 0xee
 368 480 286 380 176 380 c 0
 116 380 72 415 72 470 c 0
 72 478 73 486 75 495 c 0
 90 565 157 610 225 610 c 0xde
 285 610 328 575 328 520 c 0
 328 516 327 511 327 507 c 1
 380 548 448 600 508 600 c 0xee
211 545 m 0xde
 183 545 156 523 150 495 c 0
 149 491 149 488 149 484 c 0
 149 462 166 445 190 445 c 0
 218 445 244 467 250 495 c 0
 251 499 251 502 251 506 c 0
 251 529 235 545 211 545 c 0xde
EndSplineSet
Layer: 2
SplineSet
140 555 m 0xdc
 112 555 90 533 90 505 c 0
 90 477 112 455 140 455 c 0
 168 455 190 477 190 505 c 0
 190 533 168 555 140 555 c 0xdc
140 400 m 0
 80 400 30 444 30 505 c 0
 30 566 80 610 140 610 c 0xdc
 198 610 247 569 250 511 c 1
 290 554 332 600 390 600 c 0
 444 600 500 559 500 480 c 2
 500 110 l 2
 500 38 466 -10 390 -10 c 0
 348 -10 318 6 300 15 c 1
 325 70 l 1
 335 65 356 55 375 55 c 0
 402 55 410 83 410 120 c 2
 410 460 l 2
 410 501 396 525 360 525 c 0xec
 299 525 256 400 140 400 c 0
EndSplineSet
Layer: 3
SplineSet
185 400 m 0xee
 133 400 95 434 95 483 c 0
 95 490 95 497 97 505 c 0
 110 566 170 610 230 610 c 0xde
 283 610 320 576 320 527 c 0
 320 522 320 516 319 511 c 1
 368 554 420 600 478 600 c 0
 524 600 566 570 566 511 c 0
 566 502 564 491 562 480 c 2
 483 110 l 2
 468 38 424 -10 348 -10 c 0
 306 -10 279 6 263 15 c 1
 300 70 l 1
 309 65 328 55 347 55 c 0
 374 55 388 83 396 120 c 2
 468 460 l 2
 470 469 471 478 471 486 c 0
 471 511 460 525 432 525 c 0
 371 525 301 400 185 400 c 0xee
218 555 m 0
 190 555 163 533 157 505 c 0
 156 501 156 498 156 494 c 0
 156 472 173 455 197 455 c 0
 225 455 251 477 257 505 c 0
 258 509 258 512 258 516 c 0
 258 539 242 555 218 555 c 0
EndSplineSet
Layer: 4
SplineSet
135 545 m 0xdc
 107 545 85 523 85 495 c 0
 85 467 107 445 135 445 c 0
 163 445 185 467 185 495 c 0
 185 523 163 545 135 545 c 0xdc
420 600 m 0xec
 491 600 520 551 520 470 c 2
 520 120 l 2
 520 42 473 -10 385 -10 c 0
 328 -10 292 4 270 15 c 1
 295 85 l 1
 295 85 316 76 337 76 c 0
 354 76 370 83 370 120 c 2
 370 420 l 2
 370 461 363 480 340 480 c 0xec
 306 480 245 380 135 380 c 0
 67 380 10 425 10 495 c 0
 10 565 67 610 135 610 c 0xdc
 199 610 253 570 259 507 c 1
 304 548 360 600 420 600 c 0xec
EndSplineSet
Layer: 5
SplineSet
508 600 m 0xee
 563 600 586 571 586 520 c 0
 586 505 584 489 580 470 c 2
 506 120 l 2
 489 42 431 -10 343 -10 c 0
 286 -10 253 4 233 15 c 1
 273 85 l 1
 273 85 292 76 313 76 c 0
 330 76 348 83 356 120 c 2
 419 420 l 2
 422 434 424 445 424 454 c 0
 424 472 417 480 402 480 c 0xee
 368 480 286 380 176 380 c 0
 116 380 72 415 72 470 c 0
 72 478 73 486 75 495 c 0
 90 565 157 610 225 610 c 0xde
 285 610 328 575 328 520 c 0
 328 516 327 511 327 507 c 1
 380 548 448 600 508 600 c 0xee
211 545 m 0xde
 183 545 156 523 150 495 c 0
 149 491 149 488 149 484 c 0
 149 462 166 445 190 445 c 0
 218 445 244 467 250 495 c 0
 251 499 251 502 251 506 c 0
 251 529 235 545 211 545 c 0xde
EndSplineSet
Colour: ffff00
EndChar

StartChar: uni0ECC
Encoding: 306 3788 51
Width: 0
VWidth: 0
Flags: HW
HStem: 938 54<-230.46 -164.697> 1045 78<-101 -20.5408> 1060 63<-226.998 -161.008>
VStem: -296 65<993.355 1055.91> -161 60<995.652 1044.58> 11 107<1158.32 1220>
AnchorPoint: "left-above" -260 900 mark 0
AnchorPoint: "normal-mkmk" -360 920 mark 0
AnchorPoint: "normal-above" -360 900 mark 0
LayerCount: 6
Back
Fore
SplineSet
-101 1045 m 1xdc
 -101 1039 -101 1033 -103 1025 c 0
 -113 978 -161 938 -215 938 c 0
 -262 938 -296 969 -296 1010 c 0
 -296 1015 -295 1020 -294 1025 c 0
 -281 1084 -226 1123 -156 1123 c 2xbc
 -88 1123 l 2
 -25 1123 -2 1160 11 1220 c 1
 118 1220 l 1
 95 1109 29 1045 -75 1045 c 2
 -101 1045 l 1xdc
-203 992 m 0
 -184 992 -166 1007 -162 1025 c 0
 -161 1028 -161 1030 -161 1033 c 0
 -161 1049 -172 1060 -188 1060 c 0
 -207 1060 -226 1045 -230 1025 c 0
 -230 1023 -231 1020 -231 1019 c 0
 -231 1004 -220 992 -203 992 c 0
EndSplineSet
Layer: 2
SplineSet
-350 1065 m 0
 -372 1065 -390 1047 -390 1025 c 0
 -390 1003 -372 985 -350 985 c 0
 -328 985 -310 1003 -310 1025 c 0
 -310 1047 -328 1065 -350 1065 c 0
-440 1025 m 0
 -440 1085 -392 1125 -320 1125 c 2
 -260 1125 l 2
 -196 1125 -180 1158 -180 1220 c 1
 -100 1220 l 1
 -100 1105 -165 1060 -250 1060 c 2
 -272 1060 l 1
 -264 1050 -260 1038 -260 1025 c 0
 -260 975 -300 940 -350 940 c 0
 -400 940 -440 975 -440 1025 c 0
EndSplineSet
Layer: 3
SplineSet
-258 1022 m 0
 -245 1081 -190 1120 -119 1120 c 2
 -60 1120 l 2
 3 1120 26 1153 38 1214 c 1
 117 1214 l 1
 93 1101 20 1056 -64 1056 c 2
 -86 1056 l 1
 -80 1047 -78 1035 -81 1022 c 0
 -91 973 -138 938 -187 938 c 0
 -229 938 -260 964 -260 1003 c 0
 -260 1009 -259 1015 -258 1022 c 0
-161 1061 m 0
 -183 1061 -204 1044 -209 1022 c 0
 -210 1019 -210 1016 -210 1013 c 0
 -210 995 -197 983 -178 983 c 0
 -156 983 -135 1000 -130 1022 c 0
 -129 1025 -129 1028 -129 1030 c 0
 -129 1048 -143 1061 -161 1061 c 0
EndSplineSet
Layer: 4
SplineSet
-380 996 m 0xbc
 -361 996 -345 1011 -345 1030 c 0
 -345 1050 -361 1066 -380 1066 c 0
 -399 1066 -415 1050 -415 1030 c 0
 -415 1011 -399 996 -380 996 c 0xbc
-287 1050 m 1xdc
 -286 1044 -285 1038 -285 1030 c 0
 -285 981 -325 940 -380 940 c 0
 -435 940 -480 981 -480 1030 c 0
 -480 1090 -432 1130 -360 1130 c 2
 -290 1130 l 2xbc
 -226 1130 -210 1168 -210 1230 c 1
 -100 1230 l 1
 -100 1116 -153 1050 -260 1050 c 2
 -287 1050 l 1xdc
EndSplineSet
Layer: 5
SplineSet
-101 1045 m 1xdc
 -101 1039 -101 1033 -103 1025 c 0
 -113 978 -161 938 -215 938 c 0
 -262 938 -296 969 -296 1010 c 0
 -296 1015 -295 1020 -294 1025 c 0
 -281 1084 -226 1123 -156 1123 c 2xbc
 -88 1123 l 2
 -25 1123 -2 1160 11 1220 c 1
 118 1220 l 1
 95 1109 29 1045 -75 1045 c 2
 -101 1045 l 1xdc
-203 992 m 0
 -184 992 -166 1007 -162 1025 c 0
 -161 1028 -161 1030 -161 1033 c 0
 -161 1049 -172 1060 -188 1060 c 0
 -207 1060 -226 1045 -230 1025 c 0
 -230 1023 -231 1020 -231 1019 c 0
 -231 1004 -220 992 -203 992 c 0
EndSplineSet
EndChar

